<?xml version="1.0" encoding="UTF-8"?>
<svg id="Capa_1" data-name="Capa 1" xmlns="http://www.w3.org/2000/svg" version="1.1" xmlns:xlink="http://www.w3.org/1999/xlink" viewBox="0 0 2210.5 1552.83">
  <defs>
    <style>
      .cls-1 {
        filter: url(#drop-shadow-30);
      }

      .cls-1, .cls-2, .cls-3, .cls-4, .cls-5, .cls-6, .cls-7, .cls-8, .cls-9, .cls-10, .cls-11, .cls-12, .cls-13, .cls-14, .cls-15, .cls-16, .cls-17, .cls-18, .cls-19, .cls-20, .cls-21, .cls-22, .cls-23, .cls-24, .cls-25, .cls-26, .cls-27, .cls-28, .cls-29, .cls-30, .cls-31, .cls-32, .cls-33, .cls-34, .cls-35, .cls-36, .cls-37, .cls-38, .cls-39, .cls-40, .cls-41, .cls-42, .cls-43, .cls-44, .cls-45, .cls-46, .cls-47, .cls-48, .cls-49, .cls-50, .cls-51, .cls-52, .cls-53, .cls-54, .cls-55, .cls-56, .cls-57 {
        font-family: ArialMT, Arial;
      }

      .cls-1, .cls-2, .cls-3, .cls-4, .cls-5, .cls-6, .cls-7, .cls-8, .cls-9, .cls-10, .cls-12, .cls-13, .cls-14, .cls-15, .cls-16, .cls-17, .cls-18, .cls-20, .cls-21, .cls-22, .cls-23, .cls-24, .cls-25, .cls-26, .cls-27, .cls-28, .cls-29, .cls-30, .cls-31, .cls-32, .cls-33, .cls-34, .cls-35, .cls-36, .cls-37, .cls-38, .cls-39, .cls-40, .cls-41, .cls-42, .cls-43, .cls-44, .cls-45, .cls-46, .cls-47, .cls-48, .cls-49, .cls-50, .cls-51, .cls-52, .cls-53, .cls-54, .cls-56 {
        fill: #fff;
      }

      .cls-1, .cls-3, .cls-4, .cls-5, .cls-6, .cls-7, .cls-8, .cls-9, .cls-10, .cls-13, .cls-15, .cls-16, .cls-17, .cls-18, .cls-20, .cls-21, .cls-22, .cls-23, .cls-25, .cls-26, .cls-27, .cls-28, .cls-29, .cls-30, .cls-31, .cls-32, .cls-33, .cls-35, .cls-36, .cls-37, .cls-38, .cls-39, .cls-40, .cls-41, .cls-43, .cls-44, .cls-45, .cls-46, .cls-47, .cls-48, .cls-50, .cls-51, .cls-53, .cls-54 {
        font-size: 43.16px;
        letter-spacing: -.02em;
      }

      .cls-2 {
        filter: url(#drop-shadow-42);
      }

      .cls-2, .cls-12, .cls-14, .cls-24, .cls-34, .cls-42, .cls-49, .cls-52, .cls-56 {
        font-size: 44.38px;
        letter-spacing: -.02em;
      }

      .cls-3 {
        filter: url(#drop-shadow-2);
      }

      .cls-4 {
        filter: url(#drop-shadow-23);
      }

      .cls-58 {
        fill: none;
        stroke: #000;
      }

      .cls-58, .cls-59, .cls-60 {
        stroke-miterlimit: 10;
      }

      .cls-58, .cls-60 {
        stroke-width: 2px;
      }

      .cls-5 {
        filter: url(#drop-shadow-13);
      }

      .cls-6 {
        filter: url(#drop-shadow-38);
      }

      .cls-61 {
        fill: #000;
        stroke-width: 0px;
      }

      .cls-7 {
        filter: url(#drop-shadow-48);
      }

      .cls-8 {
        filter: url(#drop-shadow-32);
      }

      .cls-9 {
        filter: url(#drop-shadow-3);
      }

      .cls-10 {
        filter: url(#drop-shadow-36);
      }

      .cls-11, .cls-19, .cls-55, .cls-57 {
        fill: #9b9b9b;
      }

      .cls-11, .cls-19, .cls-57 {
        font-size: 39.04px;
      }

      .cls-12 {
        filter: url(#drop-shadow-47);
      }

      .cls-13 {
        filter: url(#drop-shadow-10);
      }

      .cls-14 {
        filter: url(#drop-shadow-40);
      }

      .cls-15 {
        filter: url(#drop-shadow-49);
      }

      .cls-62, .cls-57 {
        letter-spacing: -.04em;
      }

      .cls-16 {
        filter: url(#drop-shadow-31);
      }

      .cls-17 {
        filter: url(#drop-shadow-16);
      }

      .cls-18 {
        filter: url(#drop-shadow-6);
      }

      .cls-19, .cls-63 {
        letter-spacing: -.04em;
      }

      .cls-20 {
        filter: url(#drop-shadow-12);
      }

      .cls-21 {
        filter: url(#drop-shadow-14);
      }

      .cls-22 {
        filter: url(#drop-shadow-17);
      }

      .cls-23 {
        filter: url(#drop-shadow-9);
      }

      .cls-24 {
        filter: url(#drop-shadow-46);
      }

      .cls-25 {
        filter: url(#drop-shadow-35);
      }

      .cls-26 {
        filter: url(#drop-shadow-1);
      }

      .cls-27 {
        filter: url(#drop-shadow-22);
      }

      .cls-28 {
        filter: url(#drop-shadow-25);
      }

      .cls-29 {
        filter: url(#drop-shadow-5);
      }

      .cls-30 {
        filter: url(#drop-shadow-11);
      }

      .cls-31 {
        filter: url(#drop-shadow-33);
      }

      .cls-32 {
        filter: url(#drop-shadow-21);
      }

      .cls-33 {
        filter: url(#drop-shadow-34);
      }

      .cls-34 {
        filter: url(#drop-shadow-45);
      }

      .cls-35 {
        filter: url(#drop-shadow-8);
      }

      .cls-36 {
        filter: url(#drop-shadow-20);
      }

      .cls-37 {
        filter: url(#drop-shadow-37);
      }

      .cls-38 {
        filter: url(#drop-shadow-52);
      }

      .cls-39 {
        filter: url(#drop-shadow-26);
      }

      .cls-40 {
        filter: url(#drop-shadow-51);
      }

      .cls-41 {
        filter: url(#drop-shadow-19);
      }

      .cls-42 {
        filter: url(#drop-shadow-43);
      }

      .cls-43 {
        filter: url(#drop-shadow-50);
      }

      .cls-44 {
        filter: url(#drop-shadow-15);
      }

      .cls-45 {
        filter: url(#drop-shadow-28);
      }

      .cls-46 {
        filter: url(#drop-shadow-18);
      }

      .cls-47 {
        filter: url(#drop-shadow-4);
      }

      .cls-48 {
        filter: url(#drop-shadow-7);
      }

      .cls-59 {
        stroke: #fff;
      }

      .cls-49 {
        filter: url(#drop-shadow-39);
      }

      .cls-50 {
        filter: url(#drop-shadow-24);
      }

      .cls-51 {
        filter: url(#drop-shadow-29);
      }


.cls-60 {
    fill: #e9e9e9;
    stroke: #ffffff;
}

      .cls-52 {
        filter: url(#drop-shadow-41);
      }

      .cls-53 {
        filter: url(#drop-shadow-27);
      }

      .cls-54 {
        filter: url(#drop-shadow-53);
      }

      .cls-55 {
        font-size: 39.04px;
        letter-spacing: -.04em;
      }

      .cls-56 {
        filter: url(#drop-shadow-44);
      }
    </style>
    <filter id="drop-shadow-1" filterUnits="userSpaceOnUse">
      <feOffset dx="5" dy="5"/>
      <feGaussianBlur result="blur" stdDeviation="3"/>
      <feFlood flood-color="#777" flood-opacity=".75"/>
      <feComposite in2="blur" operator="in"/>
      <feComposite in="SourceGraphic"/>
    </filter>
    <path id="path" d="M43.56,514.06s51,195.87,186.29,370.83"/>
    <filter id="drop-shadow-2" filterUnits="userSpaceOnUse">
      <feOffset dx="5" dy="5"/>
      <feGaussianBlur result="blur-2" stdDeviation="3"/>
      <feFlood flood-color="#777" flood-opacity=".75"/>
      <feComposite in2="blur-2" operator="in"/>
      <feComposite in="SourceGraphic"/>
    </filter>
    <filter id="drop-shadow-3" filterUnits="userSpaceOnUse">
      <feOffset dx="5" dy="5"/>
      <feGaussianBlur result="blur-3" stdDeviation="3"/>
      <feFlood flood-color="#777" flood-opacity=".75"/>
      <feComposite in2="blur-3" operator="in"/>
      <feComposite in="SourceGraphic"/>
    </filter>
    <filter id="drop-shadow-4" filterUnits="userSpaceOnUse">
      <feOffset dx="5" dy="5"/>
      <feGaussianBlur result="blur-4" stdDeviation="3"/>
      <feFlood flood-color="#777" flood-opacity=".75"/>
      <feComposite in2="blur-4" operator="in"/>
      <feComposite in="SourceGraphic"/>
    </filter>
    <filter id="drop-shadow-5" filterUnits="userSpaceOnUse">
      <feOffset dx="5" dy="5"/>
      <feGaussianBlur result="blur-5" stdDeviation="3"/>
      <feFlood flood-color="#777" flood-opacity=".75"/>
      <feComposite in2="blur-5" operator="in"/>
      <feComposite in="SourceGraphic"/>
    </filter>
    <filter id="drop-shadow-6" filterUnits="userSpaceOnUse">
      <feOffset dx="5" dy="5"/>
      <feGaussianBlur result="blur-6" stdDeviation="3"/>
      <feFlood flood-color="#777" flood-opacity=".75"/>
      <feComposite in2="blur-6" operator="in"/>
      <feComposite in="SourceGraphic"/>
    </filter>
    <filter id="drop-shadow-7" filterUnits="userSpaceOnUse">
      <feOffset dx="5" dy="5"/>
      <feGaussianBlur result="blur-7" stdDeviation="3"/>
      <feFlood flood-color="#777" flood-opacity=".75"/>
      <feComposite in2="blur-7" operator="in"/>
      <feComposite in="SourceGraphic"/>
    </filter>
    <filter id="drop-shadow-8" filterUnits="userSpaceOnUse">
      <feOffset dx="5" dy="5"/>
      <feGaussianBlur result="blur-8" stdDeviation="3"/>
      <feFlood flood-color="#777" flood-opacity=".75"/>
      <feComposite in2="blur-8" operator="in"/>
      <feComposite in="SourceGraphic"/>
    </filter>
    <filter id="drop-shadow-9" filterUnits="userSpaceOnUse">
      <feOffset dx="5" dy="5"/>
      <feGaussianBlur result="blur-9" stdDeviation="3"/>
      <feFlood flood-color="#777" flood-opacity=".75"/>
      <feComposite in2="blur-9" operator="in"/>
      <feComposite in="SourceGraphic"/>
    </filter>
    <filter id="drop-shadow-10" filterUnits="userSpaceOnUse">
      <feOffset dx="5" dy="5"/>
      <feGaussianBlur result="blur-10" stdDeviation="3"/>
      <feFlood flood-color="#777" flood-opacity=".75"/>
      <feComposite in2="blur-10" operator="in"/>
      <feComposite in="SourceGraphic"/>
    </filter>
    <filter id="drop-shadow-11" filterUnits="userSpaceOnUse">
      <feOffset dx="5" dy="5"/>
      <feGaussianBlur result="blur-11" stdDeviation="3"/>
      <feFlood flood-color="#777" flood-opacity=".75"/>
      <feComposite in2="blur-11" operator="in"/>
      <feComposite in="SourceGraphic"/>
    </filter>
    <filter id="drop-shadow-12" filterUnits="userSpaceOnUse">
      <feOffset dx="5" dy="5"/>
      <feGaussianBlur result="blur-12" stdDeviation="3"/>
      <feFlood flood-color="#777" flood-opacity=".75"/>
      <feComposite in2="blur-12" operator="in"/>
      <feComposite in="SourceGraphic"/>
    </filter>
    <filter id="drop-shadow-13" filterUnits="userSpaceOnUse">
      <feOffset dx="5" dy="5"/>
      <feGaussianBlur result="blur-13" stdDeviation="3"/>
      <feFlood flood-color="#777" flood-opacity=".75"/>
      <feComposite in2="blur-13" operator="in"/>
      <feComposite in="SourceGraphic"/>
    </filter>
    <filter id="drop-shadow-14" filterUnits="userSpaceOnUse">
      <feOffset dx="5" dy="5"/>
      <feGaussianBlur result="blur-14" stdDeviation="3"/>
      <feFlood flood-color="#777" flood-opacity=".75"/>
      <feComposite in2="blur-14" operator="in"/>
      <feComposite in="SourceGraphic"/>
    </filter>
    <filter id="drop-shadow-15" filterUnits="userSpaceOnUse">
      <feOffset dx="5" dy="5"/>
      <feGaussianBlur result="blur-15" stdDeviation="3"/>
      <feFlood flood-color="#777" flood-opacity=".75"/>
      <feComposite in2="blur-15" operator="in"/>
      <feComposite in="SourceGraphic"/>
    </filter>
    <filter id="drop-shadow-16" filterUnits="userSpaceOnUse">
      <feOffset dx="5" dy="5"/>
      <feGaussianBlur result="blur-16" stdDeviation="3"/>
      <feFlood flood-color="#777" flood-opacity=".75"/>
      <feComposite in2="blur-16" operator="in"/>
      <feComposite in="SourceGraphic"/>
    </filter>
    <filter id="drop-shadow-17" filterUnits="userSpaceOnUse">
      <feOffset dx="5" dy="5"/>
      <feGaussianBlur result="blur-17" stdDeviation="3"/>
      <feFlood flood-color="#777" flood-opacity=".75"/>
      <feComposite in2="blur-17" operator="in"/>
      <feComposite in="SourceGraphic"/>
    </filter>
    <filter id="drop-shadow-18" filterUnits="userSpaceOnUse">
      <feOffset dx="5" dy="5"/>
      <feGaussianBlur result="blur-18" stdDeviation="3"/>
      <feFlood flood-color="#777" flood-opacity=".75"/>
      <feComposite in2="blur-18" operator="in"/>
      <feComposite in="SourceGraphic"/>
    </filter>
    <filter id="drop-shadow-19" filterUnits="userSpaceOnUse">
      <feOffset dx="5" dy="5"/>
      <feGaussianBlur result="blur-19" stdDeviation="3"/>
      <feFlood flood-color="#777" flood-opacity=".75"/>
      <feComposite in2="blur-19" operator="in"/>
      <feComposite in="SourceGraphic"/>
    </filter>
    <filter id="drop-shadow-20" filterUnits="userSpaceOnUse">
      <feOffset dx="5" dy="5"/>
      <feGaussianBlur result="blur-20" stdDeviation="3"/>
      <feFlood flood-color="#777" flood-opacity=".75"/>
      <feComposite in2="blur-20" operator="in"/>
      <feComposite in="SourceGraphic"/>
    </filter>
    <filter id="drop-shadow-21" filterUnits="userSpaceOnUse">
      <feOffset dx="5" dy="5"/>
      <feGaussianBlur result="blur-21" stdDeviation="3"/>
      <feFlood flood-color="#777" flood-opacity=".75"/>
      <feComposite in2="blur-21" operator="in"/>
      <feComposite in="SourceGraphic"/>
    </filter>
    <filter id="drop-shadow-22" filterUnits="userSpaceOnUse">
      <feOffset dx="5" dy="5"/>
      <feGaussianBlur result="blur-22" stdDeviation="3"/>
      <feFlood flood-color="#777" flood-opacity=".75"/>
      <feComposite in2="blur-22" operator="in"/>
      <feComposite in="SourceGraphic"/>
    </filter>
    <filter id="drop-shadow-23" filterUnits="userSpaceOnUse">
      <feOffset dx="5" dy="5"/>
      <feGaussianBlur result="blur-23" stdDeviation="3"/>
      <feFlood flood-color="#777" flood-opacity=".75"/>
      <feComposite in2="blur-23" operator="in"/>
      <feComposite in="SourceGraphic"/>
    </filter>
    <filter id="drop-shadow-24" filterUnits="userSpaceOnUse">
      <feOffset dx="5" dy="5"/>
      <feGaussianBlur result="blur-24" stdDeviation="3"/>
      <feFlood flood-color="#777" flood-opacity=".75"/>
      <feComposite in2="blur-24" operator="in"/>
      <feComposite in="SourceGraphic"/>
    </filter>
    <filter id="drop-shadow-25" filterUnits="userSpaceOnUse">
      <feOffset dx="5" dy="5"/>
      <feGaussianBlur result="blur-25" stdDeviation="3"/>
      <feFlood flood-color="#777" flood-opacity=".75"/>
      <feComposite in2="blur-25" operator="in"/>
      <feComposite in="SourceGraphic"/>
    </filter>
    <filter id="drop-shadow-26" filterUnits="userSpaceOnUse">
      <feOffset dx="5" dy="5"/>
      <feGaussianBlur result="blur-26" stdDeviation="3"/>
      <feFlood flood-color="#777" flood-opacity=".75"/>
      <feComposite in2="blur-26" operator="in"/>
      <feComposite in="SourceGraphic"/>
    </filter>
    <filter id="drop-shadow-27" filterUnits="userSpaceOnUse">
      <feOffset dx="5" dy="5"/>
      <feGaussianBlur result="blur-27" stdDeviation="3"/>
      <feFlood flood-color="#777" flood-opacity=".75"/>
      <feComposite in2="blur-27" operator="in"/>
      <feComposite in="SourceGraphic"/>
    </filter>
    <filter id="drop-shadow-28" filterUnits="userSpaceOnUse">
      <feOffset dx="5" dy="5"/>
      <feGaussianBlur result="blur-28" stdDeviation="3"/>
      <feFlood flood-color="#777" flood-opacity=".75"/>
      <feComposite in2="blur-28" operator="in"/>
      <feComposite in="SourceGraphic"/>
    </filter>
    <filter id="drop-shadow-29" filterUnits="userSpaceOnUse">
      <feOffset dx="5" dy="5"/>
      <feGaussianBlur result="blur-29" stdDeviation="3"/>
      <feFlood flood-color="#777" flood-opacity=".75"/>
      <feComposite in2="blur-29" operator="in"/>
      <feComposite in="SourceGraphic"/>
    </filter>
    <filter id="drop-shadow-30" filterUnits="userSpaceOnUse">
      <feOffset dx="5" dy="5"/>
      <feGaussianBlur result="blur-30" stdDeviation="3"/>
      <feFlood flood-color="#777" flood-opacity=".75"/>
      <feComposite in2="blur-30" operator="in"/>
      <feComposite in="SourceGraphic"/>
    </filter>
    <filter id="drop-shadow-31" filterUnits="userSpaceOnUse">
      <feOffset dx="5" dy="5"/>
      <feGaussianBlur result="blur-31" stdDeviation="3"/>
      <feFlood flood-color="#777" flood-opacity=".75"/>
      <feComposite in2="blur-31" operator="in"/>
      <feComposite in="SourceGraphic"/>
    </filter>
    <filter id="drop-shadow-32" filterUnits="userSpaceOnUse">
      <feOffset dx="5" dy="5"/>
      <feGaussianBlur result="blur-32" stdDeviation="3"/>
      <feFlood flood-color="#777" flood-opacity=".75"/>
      <feComposite in2="blur-32" operator="in"/>
      <feComposite in="SourceGraphic"/>
    </filter>
    <filter id="drop-shadow-33" filterUnits="userSpaceOnUse">
      <feOffset dx="5" dy="5"/>
      <feGaussianBlur result="blur-33" stdDeviation="3"/>
      <feFlood flood-color="#777" flood-opacity=".75"/>
      <feComposite in2="blur-33" operator="in"/>
      <feComposite in="SourceGraphic"/>
    </filter>
    <filter id="drop-shadow-34" filterUnits="userSpaceOnUse">
      <feOffset dx="5" dy="5"/>
      <feGaussianBlur result="blur-34" stdDeviation="3"/>
      <feFlood flood-color="#777" flood-opacity=".75"/>
      <feComposite in2="blur-34" operator="in"/>
      <feComposite in="SourceGraphic"/>
    </filter>
    <filter id="drop-shadow-35" filterUnits="userSpaceOnUse">
      <feOffset dx="5" dy="5"/>
      <feGaussianBlur result="blur-35" stdDeviation="3"/>
      <feFlood flood-color="#777" flood-opacity=".75"/>
      <feComposite in2="blur-35" operator="in"/>
      <feComposite in="SourceGraphic"/>
    </filter>
    <filter id="drop-shadow-36" filterUnits="userSpaceOnUse">
      <feOffset dx="5" dy="5"/>
      <feGaussianBlur result="blur-36" stdDeviation="3"/>
      <feFlood flood-color="#777" flood-opacity=".75"/>
      <feComposite in2="blur-36" operator="in"/>
      <feComposite in="SourceGraphic"/>
    </filter>
    <filter id="drop-shadow-37" filterUnits="userSpaceOnUse">
      <feOffset dx="5" dy="5"/>
      <feGaussianBlur result="blur-37" stdDeviation="3"/>
      <feFlood flood-color="#777" flood-opacity=".75"/>
      <feComposite in2="blur-37" operator="in"/>
      <feComposite in="SourceGraphic"/>
    </filter>
    <filter id="drop-shadow-38" filterUnits="userSpaceOnUse">
      <feOffset dx="5" dy="5"/>
      <feGaussianBlur result="blur-38" stdDeviation="3"/>
      <feFlood flood-color="#777" flood-opacity=".75"/>
      <feComposite in2="blur-38" operator="in"/>
      <feComposite in="SourceGraphic"/>
    </filter>
    <filter id="drop-shadow-39" filterUnits="userSpaceOnUse">
      <feOffset dx="5" dy="5"/>
      <feGaussianBlur result="blur-39" stdDeviation="3"/>
      <feFlood flood-color="#777" flood-opacity=".75"/>
      <feComposite in2="blur-39" operator="in"/>
      <feComposite in="SourceGraphic"/>
    </filter>
    <filter id="drop-shadow-40" filterUnits="userSpaceOnUse">
      <feOffset dx="5" dy="5"/>
      <feGaussianBlur result="blur-40" stdDeviation="3"/>
      <feFlood flood-color="#777" flood-opacity=".75"/>
      <feComposite in2="blur-40" operator="in"/>
      <feComposite in="SourceGraphic"/>
    </filter>
    <filter id="drop-shadow-41" filterUnits="userSpaceOnUse">
      <feOffset dx="5" dy="5"/>
      <feGaussianBlur result="blur-41" stdDeviation="3"/>
      <feFlood flood-color="#777" flood-opacity=".75"/>
      <feComposite in2="blur-41" operator="in"/>
      <feComposite in="SourceGraphic"/>
    </filter>
    <filter id="drop-shadow-42" filterUnits="userSpaceOnUse">
      <feOffset dx="5" dy="5"/>
      <feGaussianBlur result="blur-42" stdDeviation="3"/>
      <feFlood flood-color="#777" flood-opacity=".75"/>
      <feComposite in2="blur-42" operator="in"/>
      <feComposite in="SourceGraphic"/>
    </filter>
    <filter id="drop-shadow-43" filterUnits="userSpaceOnUse">
      <feOffset dx="5" dy="5"/>
      <feGaussianBlur result="blur-43" stdDeviation="3"/>
      <feFlood flood-color="#777" flood-opacity=".75"/>
      <feComposite in2="blur-43" operator="in"/>
      <feComposite in="SourceGraphic"/>
    </filter>
    <filter id="drop-shadow-44" filterUnits="userSpaceOnUse">
      <feOffset dx="5" dy="5"/>
      <feGaussianBlur result="blur-44" stdDeviation="3"/>
      <feFlood flood-color="#777" flood-opacity=".75"/>
      <feComposite in2="blur-44" operator="in"/>
      <feComposite in="SourceGraphic"/>
    </filter>
    <filter id="drop-shadow-45" filterUnits="userSpaceOnUse">
      <feOffset dx="5" dy="5"/>
      <feGaussianBlur result="blur-45" stdDeviation="3"/>
      <feFlood flood-color="#777" flood-opacity=".75"/>
      <feComposite in2="blur-45" operator="in"/>
      <feComposite in="SourceGraphic"/>
    </filter>
    <filter id="drop-shadow-46" filterUnits="userSpaceOnUse">
      <feOffset dx="5" dy="5"/>
      <feGaussianBlur result="blur-46" stdDeviation="3"/>
      <feFlood flood-color="#777" flood-opacity=".75"/>
      <feComposite in2="blur-46" operator="in"/>
      <feComposite in="SourceGraphic"/>
    </filter>
    <filter id="drop-shadow-47" filterUnits="userSpaceOnUse">
      <feOffset dx="5" dy="5"/>
      <feGaussianBlur result="blur-47" stdDeviation="3"/>
      <feFlood flood-color="#777" flood-opacity=".75"/>
      <feComposite in2="blur-47" operator="in"/>
      <feComposite in="SourceGraphic"/>
    </filter>
    <filter id="drop-shadow-48" filterUnits="userSpaceOnUse">
      <feOffset dx="5" dy="5"/>
      <feGaussianBlur result="blur-48" stdDeviation="3"/>
      <feFlood flood-color="#777" flood-opacity=".75"/>
      <feComposite in2="blur-48" operator="in"/>
      <feComposite in="SourceGraphic"/>
    </filter>
    <filter id="drop-shadow-49" filterUnits="userSpaceOnUse">
      <feOffset dx="5" dy="5"/>
      <feGaussianBlur result="blur-49" stdDeviation="3"/>
      <feFlood flood-color="#777" flood-opacity=".75"/>
      <feComposite in2="blur-49" operator="in"/>
      <feComposite in="SourceGraphic"/>
    </filter>
    <filter id="drop-shadow-50" filterUnits="userSpaceOnUse">
      <feOffset dx="5" dy="5"/>
      <feGaussianBlur result="blur-50" stdDeviation="3"/>
      <feFlood flood-color="#777" flood-opacity=".75"/>
      <feComposite in2="blur-50" operator="in"/>
      <feComposite in="SourceGraphic"/>
    </filter>
    <filter id="drop-shadow-51" filterUnits="userSpaceOnUse">
      <feOffset dx="5" dy="5"/>
      <feGaussianBlur result="blur-51" stdDeviation="3"/>
      <feFlood flood-color="#777" flood-opacity=".75"/>
      <feComposite in2="blur-51" operator="in"/>
      <feComposite in="SourceGraphic"/>
    </filter>
    <filter id="drop-shadow-52" filterUnits="userSpaceOnUse">
      <feOffset dx="5" dy="5"/>
      <feGaussianBlur result="blur-52" stdDeviation="3"/>
      <feFlood flood-color="#777" flood-opacity=".75"/>
      <feComposite in2="blur-52" operator="in"/>
      <feComposite in="SourceGraphic"/>
    </filter>
    <filter id="drop-shadow-53" filterUnits="userSpaceOnUse">
      <feOffset dx="5" dy="5"/>
      <feGaussianBlur result="blur-53" stdDeviation="3"/>
      <feFlood flood-color="#777" flood-opacity=".75"/>
      <feComposite in2="blur-53" operator="in"/>
      <feComposite in="SourceGraphic"/>
    </filter>
  </defs>
  <g id="lineas">
    <polyline class="cls-58" points="107.57 1115.18 349.57 1115.18 466.57 1247.18 466.57 1418.18 557.07 1508.68"/>
    <polyline class="cls-58" points="466.57 1312.18 713.57 1312.18 913.57 1505.18"/>
  </g>
  <g id="poligonos">
    <path id="Alabama" class="cls-60" d="M1374.91,1142.21l.87-17.85-1.95-2.93-3.69-1.71-5.43-6.85,1.09-7.09,105.97-12.47-1.52-5.38-3.26-3.67-1.09-3.42,1.3-15.41-5.21-13.94,1.09-6.36.65-9.05,4.78-9.29-.43-2.69-3.69-2.45v-7.82l-3.91-4.65-6.3-14.92-28.01-111.99-99.24,9.78,2.82,4.89-2.82,163.83,9.55,81.18,1.95-1.22,2.82.24,1.3.98,1.74-.24,4.34-9.29v-5.62l2.39-2.69,3.04,1.22,7.38,15.65v2.2l-7.17,5.38,7.6-.98,10.64-3.91,2.39-1.47Z"/>
    <path id="Alaska" class="cls-60" d="M43.25,1506.4h5.21l1.52,1.71-2.17,2.93-4.13.49-5.43,3.18-8.03-.24,4.78-2.2.65-2.69,5.43-.73,2.17-2.45ZM61.28,1502.24l2.82,1.22h1.95l1.09,2.93.65-1.47,1.95.49,2.39,3.67v1.22l-9.12,4.65-5.21-.24-2.17-1.22-2.39,1.71h-4.34l-2.39-3.42,10.21-1.22,4.56-8.31ZM73,1502l2.17.24,1.52,1.71v2.45l-2.82.24-1.95-2.69,1.09-1.96ZM78.43,1502.73l2.82-.24-.22,2.45-2.39,1.47-.22-3.67ZM79.08,1508.11l7.38-.24.43,2.69-2.82.24-.65-1.22-1.74,1.47-.87-1.47-1.95-.49.22-.98ZM440.21,1526.69l4.56.24-2.17,4.65-2.39-.24-.87-1.96,1.09-3.18M438.04,1519.11l1.3-3.18-.43-5.62,5.21-1.22,9.77,10.76,2.82,8.31,4.13,3.91.65,12.47h-3.04l-2.82-5.62-6.73-5.87h-1.3l2.39,6.85,3.69.49.43,5.14-1.95.24-8.9-10.76-.22-2.2,4.13-2.45v-2.45l-1.09-1.96-3.47-1.47-3.69-3.18,3.04.24,1.09-.98-1.3-2.2-1.3,1.22-2.39-.49ZM430.22,1496.86l2.82.24,5.21,6.11-.43,1.96-1.74-.24-.22,4.4,1.09,1.22v3.67l-1.74.73-.87,2.93-1.74-.98-.87-5.38,2.39-3.42-4.56-5.38.22-2.93.43-2.93ZM433.48,1493.19l4.13.49,5.43.24,7.38,7.82-.43,1.22-2.39,1.47-2.39-.49-.22-1.71-2.61-3.91-.65,1.71,2.17,3.18-.43,2.93-1.74-.24-2.82.49-.22-4.16-5.65-6.85.43-2.2ZM405.9,1471.43l1.95-.98h3.47l1.52-1.22,8.9,5.38.22,3.67-1.09,1.22h-1.74l-3.04-1.71,2.39,3.18h3.91l1.09,4.89h-1.95l-4.78-3.67-2.39-.49,1.3,3.18.22,2.2,1.74-1.47,3.69,2.93,2.82-.24-.43,1.96,4.13,10.51v8.31l.87,5.14-1.74.73-2.61-4.89-1.09-3.67-3.47-3.91-.43-6.6-1.3-4.16h-1.52l.65,2.69v1.22l-3.04,2.45.22-8.07-3.47-3.91-2.82-5.62-2.61-2.93.43-6.11ZM421.53,1465.81l2.39,4.4,5.21-.24,2.17,5.14-1.3,1.47,4.34,7.82v3.18l-2.61,1.96v1.71l-4.34,4.65-1.09-3.42-.22-3.18,1.3-1.71v-2.69l-3.26-4.65-1.09-9.05-1.95-3.67.43-1.71ZM298.41,1421.06l-8.69,10.03v3.91l4.56-1.96,1.74-4.65,4.78-5.87-2.39-1.47ZM229.79,1461.65v1.47l3.91,2.93.43-3.42,1.3,2.2,7.6.24,1.52-1.47.43-4.4-1.09-1.71h-3.04v-1.96l.87-1.47v-.98l-3.26-.73-7.17,8.8-1.52.49ZM212.2,1476.81l3.26,14.18h4.56l5.21-6.11.65,2.93,13.68-9.78,1.52-2.45-2.17-2.69v-1.71l1.09-3.18-1.95-.24-4.34,2.45v-2.93l-5.86-1.47-5.21.73-.43,8.31-1.74-4.89-3.26-.24-2.17,1.47-2.82,5.62ZM207.42,1496.86l.22-1.71,4.56-3.18,1.3.73,2.82.49,2.82,2.93-4.78-.49-.87-1.47-2.17,1.47-3.91,1.22ZM196.13,1504.93l-2.39,1.96,3.26,3.42,1.74-1.71-.22-3.18-2.39-.49ZM182.45,1485.61l3.04.24.87,1.47-3.91.24v-1.96ZM152.26,1514.71v1.22l1.52.24-.22-1.47h-1.3ZM151.4,1506.89l-2.17,2.45v1.22l1.52,2.69,2.17-2.45-1.52-.24v-3.67ZM147.05,1504.93l-.65,2.45-2.82.24-.87.49v3.18l-1.09,2.2h1.3l1.52-2.2,1.74-.24,1.95-2.45.43-3.18-1.52-.49ZM137.5,1500.04l-.43,4.4,3.04,1.96,2.61-1.47v-2.45l3.69-.73-.22-1.47-1.95-.49-1.52,1.47-1.95-1.22h-3.26ZM126.86,1499.8l2.17,1.71-.65,2.93-3.04-2.69,1.52-1.96ZM117.74,1502.97l3.04.24-1.52,1.96-1.52-2.2ZM110.14,1510.31l3.91,2.69-3.69.24-.22-2.93ZM54.98,1434.02l2.61,1.47-1.74,1.47-.87-2.93ZM53.46,1418.61l.87,2.93,1.74-2.93h-2.61ZM106.23,1371.42l3.26-.24,1.95.98,2.39-1.22,2.82-.24,3.47,1.96,1.74,4.65-.22,2.2-2.61,4.89-5.21-.49-4.56-4.4-2.17-.98-2.39-4.89,1.52-2.2ZM60.41,1336.21l.22,4.65,4.34,4.89v1.22l-1.74-.49-3.69-1.96-.65-2.69-.65-3.91,2.17-1.71ZM100.15,1279.23v2.93l4.13,4.4h4.99l1.3,2.69v3.91l4.56,4.65,3.91,2.93-.22,1.71-1.52,2.69-3.04-2.93-4.56.24-1.74-1.96-1.95-5.14-3.26-5.38-5.65-.24-2.17-1.71,2.17-5.14,3.04-3.67ZM136.63,1268.23h2.17l.22,2.69h-2.17l-.22-2.69ZM171.81,1316.4l1.95.24v2.93l-3.69-1.22,1.74-1.96ZM449.33,1506.4l-2.61.98-.22,2.69h2.61l.22-3.67ZM107.1,1495.39l-2.82-.98-8.9,1.47-6.08,3.42-.22,4.65,4.13,1.71,3.26-2.2,3.69-.24,10.21,3.42.22-3.18-3.47-2.69v-5.38ZM111.66,1501.02l-.87-3.42,2.61.49.22,3.42h3.91l.87-6.11.65,5.87,5.43-.24,6.95-8.07,1.74.24-1.52,3.18,3.04,2.2,9.12-.49,5.65-2.93,3.04-.24.65,3.67,1.3-1.22.87-3.42,12.81.49,4.13-3.91-2.82-2.69,1.3-2.93,5.65.49-.43-2.93,5.43.49,1.52-2.69,2.39.49,9.99-4.65.43-4.16,12.16-5.87,4.34-4.65,2.61-1.47,2.82,1.96,4.99-2.2,2.39-4.65,1.09-3.18,3.69-2.2,3.26-1.71.87-3.42-2.39-4.16-4.78-.49-.43-3.18,1.74-3.91,3.04-.49,2.82-3.67,4.13-.24,7.38-7.82.87-3.42,3.26-5.62,8.25-10.03,5.43-2.2,4.13-2.2,4.56,1.96,3.04,6.36h-3.26l-3.04-3.67-6.51,4.89-3.69.24-.43,7.58-6.73,11.98,1.3,4.89h4.99l-1.3,2.45-3.04.24-5.21,4.4v2.2l4.13,2.45,7.38-1.47,3.04-4.16,3.04.24,6.51-4.16,1.09-5.62,3.47-.24,13.68,1.96,2.17-2.69,2.17-11-3.47,2.69,1.3-5.38-3.47-3.42,1.74-3.67.22,3.67h7.38l1.52-2.45,3.47-.24-.65,4.16,4.13.24-4.13,3.18,8.9,2.69-7.6.98-2.82,2.93,1.95,3.42,9.99-4.16,4.99,4.16,1.52-2.2,1.3,3.42,8.69,5.62h6.3l8.47-1.22,9.34,2.69,4.34,4.65,9.77.98,3.91-3.67,1.74,5.87-3.91,1.71,2.61,2.93,16.07,9.29,3.04,6.11,11.73,10.03,7.17-4.89-1.3-5.38-7.6-4.89,6.73,2.93,1.09-1.71,1.95,3.18v6.6l4.56-1.47,4.56,4.4-5.43-23.96,2.61,3.18,3.04,14.67,4.78,6.11,5.21-.98,3.91,8.56h1.95l1.3,13.69,7.38,1.22,3.47,5.38,3.91,2.69.87,6.85-3.91,6.36,6.3,3.91,2.61-5.87-.43,7.58-1.74,2.2,3.04,4.16,1.52-5.87-.43-2.93,1.74.49,1.3,5.62-2.17,3.42,1.3,6.36,1.09.98.65-3.91,1.52,1.47-.65,4.89,2.61.49-.87,2.2,3.69-.24v-2.45h-2.17l.22-4.16-1.74-1.47,3.69-.73,1.09-1.96v-3.91l1.09,3.18-1.3,4.4,2.61,9.54,3.91.24,4.78-10.27.22-4.65-2.82-9.78-.22-2.93,1.09-2.93-1.52-1.71-3.69.24-5.43-4.89h-3.69l-4.34-3.42h-3.26l-1.09-3.91-3.04-.73-.43-3.67-2.17-1.22.22-4.16-11.07-18.1-3.91-3.67v-2.93l-9.34-8.56-1.52-2.69-3.47-4.89-4.13-1.47v-5.38l-2.61-3.18-3.69-1.71-4.56,3.18-3.47,5.14-.87,5.87-3.26.24-5.43,6.6-1.74-.73v-6.11l-5.21-5.38-4.99-4.89-1.09-4.89-5.43-3.18.43-5.38-6.08-.24-1.52,2.69h-2.61l-1.52-1.71-2.61,1.96-3.91-2.93v-209.81l-14.98-10.03-3.91-1.22-4.78,2.69-4.78.24-4.99-3.91-9.34-1.47-12.59-8.8-12.38-.98-4.34,1.22-.43-4.4-3.91-1.71,2.39-2.45-.43-2.2-6.95-2.69h-5.21l-.87.98-1.95-1.47.22-6.36-1.74-2.2-5.43,7.09-1.74-.24v-1.96l3.69-1.96v-1.96l-4.13-5.87-2.39-.24-9.77,7.58h-8.47l.87-2.2-3.91-.24-11.29,8.31h-3.91l-1.3-1.96-5.86,3.67-7.82,9.05-6.08,6.6-3.26,2.93-5.65.24-4.78-.98-4.99-3.18h0l-6.08,9.54-.22,5.87,5.65,5.87,4.56,11,.43,12.96,6.3,4.89,7.38.98,1.52,1.96-3.26,5.62,1.52,6.6-3.69-6.36v-5.87l-3.26-.73.22,2.93,1.52,5.14,6.3,9.05h-3.04l-4.78,2.69-13.46-6.11-.22-4.89,3.04-3.18v-3.42l-4.56-1.22-4.99.49-10.42.49,3.26,5.62-4.13-4.4-18.24,2.93-1.74,3.67,10.64,11.49-1.74,3.42-.65,4.89-1.52,1.96-.22,4.65,9.55,8.8,8.9.49,9.99,4.65h4.34l1.74-1.47,8.25.24.22-1.96,2.61,2.69.22,4.89-5.43-.24.22,8.07,1.09,7.82-6.3,6.6-4.13-.24-4.34-1.96-2.17.24-6.73,5.14-3.69.49-3.04-6.85h-6.73l-4.78,4.89-1.09,4.4-7.17,4.4-11.51,10.51-.65,7.58,1.52,5.38,2.17,2.93,2.17-.98,1.95,2.45-1.74,1.47-3.26,2.2,2.39,3.67-5.65,2.69,1.74,5.38,3.69,5.62,1.74,10.03,8.69,3.67,5.65-1.96,3.69-2.69,1.09,5.14.65,10.76-4.13,3.42v10.76l-1.3,2.2h-3.69l3.69,2.93,4.56-.24.87-2.45,9.99-1.47,4.34,6.36,2.82-1.71,2.82,12.47,2.17,1.22,2.17-1.71.22-5.87,1.95-2.45,1.52,2.69.43,3.91,3.47.98,10.21-2.93.43,2.93-4.34,2.69-3.47,4.16-6.08,17.12-9.34,4.89-3.04,3.67-.65,3.42-2.17-1.47-20.2,8.07-3.91,10.03-2.82-.98,1.09-2.69-3.26-3.42-7.6-.49-11.51,7.82-4.78,3.18h-4.99l-1.09,5.87,3.69-.24Z"/>
    <path id="Arizona" class="cls-60" d="M281.76,947.08l6.51-5.38,1.74-5.87-2.17-3.91-3.91-.49-2.39-3.91,2.39-16.87,3.47-.73,5.21-7.82,3.47-17.12,5.21-8.8,10.42-4.16,2.82-3.18-.87-4.65-4.99-6.11-2.61-14.18-3.04-4.4-2.82-8.31,1.95-5.14,3.04-7.34,1.09-7.09-1.09-11.98,2.17-33.26,7.6-1.47,8.03,3.42,2.61,6.6h4.34l5.21-7.09,7.38-42.79,100.32,20.05,86.86,14.67-37.78,303.46-81-13.2-139.41-91.7,1.09-7.09,4.34-4.4,4.78.24Z"/>
    <path id="Arkansas" class="cls-60" d="M1247.22,896.7l1.95-5.38,2.61,1.22,1.52-2.45-1.74-1.71.65-3.67-2.39-2.2,1.3-2.45-.22-3.67-2.39-.24,1.74-1.96,2.82,1.96.65-3.42-.87-2.69.22-1.71,4.34,1.47-.87-3.67,3.47-3.18-1.09-2.2-2.39.24-1.3-2.2,1.95-2.2,3.47-.49,1.09-1.96,3.04-.49-.22-1.96-1.95-2.2v-1.22h3.26l.87-1.71-3.04-2.45-.22-1.47-24.32,1.96,6.08-12.47,3.69-3.67v-5.38l-3.47-6.11-86.43,4.89-84.91,1.71,8.9,59.66-1.52,95.37,5.65,5.62,6.08-3.18,6.95,1.96.43,29.1,113.57-3.18,2.61-3.67,1.09-7.34-3.26-5.62-1.09-5.38,1.95-1.71v-1.96l-3.69-2.69-.22-1.71,3.47-2.2-2.61-2.69,3.69-17.36,7.38-3.91v-1.96l-2.39-3.42,6.3-13.2h4.13l3.26-2.93-.65-12.72,6.73-11,3.91-1.47-1.09-7.58,3.47-1.71Z"/>
    <path id="California" class="cls-60" d="M129.31,893.28l7.38,12.72-3.04.24-3.91-4.65-.43-8.31ZM133.44,869.32l3.91,10.03,5.65,2.45,1.52-1.47-2.82-6.11-5.65-5.87-2.61.98ZM90.23,822.86v5.87l4.34,2.93,9.55-.49,2.17-2.45-6.73-.49-9.34-5.38ZM77.41,823.1l7.17,1.22,3.04,5.38h-8.25l-1.95-6.6ZM181.43,934.36l-2.17-7.34.43-7.34-.87-19.32-3.91-11.74-2.61-3.42-1.3-3.67-15.2-21.03-7.82.24-4.34-4.65,2.39-4.4-1.52-9.05-4.78-2.93-8.47-1.47-6.08-3.18-3.26-4.65-9.77-16.14-5.86-5.38-8.03-1.22-6.73-5.62-10.21-3.67-6.08-.73-5.43-6.11.43-6.85,1.74-11.74,3.91-12.47-3.04-3.91-8.69-22.99-5.86-9.05-.87-7.34-3.47-5.62.43-6.11-4.34-12.23-6.3-6.6,1.3-17.36,5.21-1.96,3.91-7.58-.87-7.82-2.17-2.2h-5.43l-5.43-8.07-3.26-8.56v-18.34l2.61-10.27.43-5.14,5.43.49-.22,3.91-1.74,1.71v6.11l8.03,7.82v-11.49l-3.04-8.31,1.09-2.69-2.17-4.16,6.08-3.67-4.13-7.34-3.04,1.22-3.26,9.29,1.09,3.18-1.74,2.45-1.95-.24-11.73-14.92,1.52-13.69-2.39-9.54-14.11-31.3,1.74-26.16,4.99-8.8.43-15.65-11.94-27.14.65-12.72,14.98-18.34,3.69-5.87-.22-3.42,8.69-22.5.22-20.54,1.95-6.11,143.54,45.48-35.61,154.3,2.39,8.56,152.88,256.75-1.95,5.14,2.82,8.31,3.04,4.4,2.61,14.18,4.99,6.11.87,4.65-2.82,3.18-10.42,4.16-5.21,8.8-3.47,17.12-5.21,7.82-3.47.73-2.39,16.87,2.39,3.91,3.91.49,2.17,3.91-1.74,5.87-6.51,5.38-4.78-.24-95.55-12.47Z"/>
    <path id="Colorado" class="cls-60" d="M792.07,789.84l-35.83-2.45-112.27-11.74-114.22-15.89,24.97-215.92,97.5,13.94,81.43,8.31,71.88,5.87-3.04,54.04-10.42,163.83Z"/>
    <path id="Connecticut" class="cls-60" d="M1875.44,436.75l.87-2.69-6.95-30.08-.22-.73-32.36,8.31v1.71l-1.95.73-1.09-1.71-22.8,5.87,6.08,39.86,3.91,3.67-7.6,8.31,3.69,5.38,11.73-11,3.69-3.18h1.74l5.21-7.58,3.04.24,6.3-2.69h4.56l11.51-6.6,6.08-2.2,2.17-2.45,3.26,1.22-.87-4.4Z"/>
    <path id="Delaware" class="cls-60" d="M1764.05,553.39l-3.47.73-3.26,2.69-2.61,5.14,16.5,66.27,23.67-5.62-4.78-18.58-2.39,1.22-7.17-6.36-1.09-4.16-3.91-2.45-.43-9.05-4.56-5.38-2.39-1.96-2.61-2.69-.87-7.82.65-5.14,2.17-5.38-3.47-1.47Z"/>
    <path id="Florida" class="cls-60" d="M1610.95,1087.68l-8.69-1.71-3.69-2.2-4.78,3.42v6.11l3.04,5.14-1.09,10.51-4.56,1.47-2.17-2.69-1.3-7.82-108.79,8.07-7.17-14.67-105.97,12.47-1.09,7.09,5.43,6.85,3.69,1.71,1.95,2.93-.87,17.85-2.39,1.47,1.09.98,2.17-.73,1.52-1.96,22.8-6.6,19.98-1.22,17.59,4.65,18.46,12.23,5.21,1.96,4.78,4.89-.22,6.6h5.21l4.13-2.45,5.43.24,4.34-1.96,6.3-4.89,6.73-7.09,2.39-.98,1.3,1.22h3.04l1.09-1.96-1.09-2.93-1.3-1.47.43-1.96,4.34-2.69,10.86-.98,1.74,2.45,2.17.24,4.99,2.45,6.51,4.4,2.61,4.16,2.39,2.93,6.08,3.42v5.87l6.08,4.65,2.17.24,3.47,3.42,1.52,3.91,2.17.49,1.74,5.14,1.52,1.47,2.17-2.69,6.3.24,1.09,3.42,2.39,2.2v3.18l6.3,5.38.43,23.47-3.91,14.18,2.17,2.93-.43,8.31-1.74,3.42,1.52,2.93,4.99,5.62.65,3.67,1.74,2.45-.87-4.65,2.82-1.47,1.74-8.8-6.51-2.93.22-1.47,5.65-.98,1.95,6.36,2.39,1.47.22-4.89,2.39.73,1.3,1.96-.22,1.71-6.3,10.27-.43,2.69-3.69,4.65v2.69l8.03,9.29,11.51,19.32,3.91,5.14v4.4l6.08,11.25,4.99,1.47,1.52-2.93-4.56.73-6.51-11,.43-3.42,3.26-1.96v-3.67l-1.3-3.18,1.95-2.2.87,2.2,1.52,1.22v9.78l-2.61-1.47-1.74,2.2,3.04,3.91,2.17,6.36,2.61-1.47,4.99,2.93,4.56,5.38,3.47,12.47,6.73,11.74,1.74-3.18,6.08-1.22,6.95,3.18.65,4.16,7.17,9.29.22,2.69,4.78,6.6-1.52,1.22v6.6l5.86,3.42h3.26l5.86-4.4,3.26.73,2.39.98,4.99-4.16.43-1.71,2.61.73,5.21-4.16,2.82-5.62-1.52-7.82-.43-3.18,2.39-9.78,1.3-.49,1.3,3.91,1.74-4.4-1.74-17.61-.87-25.68-2.17-16.63-1.52-4.16-14.33-27.14-11.29-22.25-4.78-8.07-2.82-8.8-.43-8.31,1.95-.73v-2.2l-2.39-5.38-8.69-9.78-16.5-23.72-12.38-25.43-9.34-26.16-1.3-9.05-2.61-2.45-1.09-9.29-7.82.73ZM1630.93,1416.57l3.69-.24-1.52-2.45-2.17,2.69ZM1646.78,1413.88v-1.71l3.47-.49,8.03-8.07,3.26-1.47,5.21-2.2.65,3.18,3.69,1.96-5.65,2.93h-5.21l-8.47,6.11-4.99-.24ZM1684.13,1395.3l-6.51,3.42-2.17,3.18,2.39.24,6.3-6.85ZM1692.38,1388.2l-2.39.73-3.04,4.89,2.39-.49,3.26-3.91-.22-1.22ZM1710.41,1349.81l-3.69,13.69-1.74,2.45-2.17,6.36-2.61,3.91-1.52,4.16-4.13,5.38v2.2l5.86-6.85,5.21-8.56,1.3-4.89,4.56-11.98-1.09-5.87Z"/>
    <path id="Georgia" class="cls-60" d="M1632.88,1011.88v3.42l-9.12,15.16-2.61.49,3.26,1.22v4.89l-1.95,2.69-1.3,14.67-4.99,15.16,1.09,4.89,1.52,12.47-7.82.73-8.69-1.71-3.69-2.2-4.78,3.42v6.11l3.04,5.14-1.09,10.51-4.56,1.47-2.17-2.69-1.3-7.82-108.79,8.07-7.17-14.67-1.52-5.38-3.26-3.67-1.09-3.42,1.3-15.41-5.21-13.94,1.09-6.36.65-9.05,4.78-9.29-.43-2.69-3.69-2.45v-7.82l-3.91-4.65-6.3-14.92-28.01-111.99,49.73-7.09,46.47-7.34-.22,4.65-4.13,2.45-3.04,7.82.43,3.18,13.25,9.29,5.65-.73,6.73,9.78.87,4.16,9.12,12.47,5.65,4.16,3.04.49,4.78,3.91,2.39,5.38,4.34,3.91,3.91,1.22,5.86,6.6.22,3.42,5.65,6.85,10.86,5.62,7.82,16.38.65,6.6,8.47,5.14,5.43,11.74,1.74,7.58,9.12.98,1.95.98Z"/>
    <path id="Hawai" class="cls-60" d="M728.32,1461.65l-.43,7.82,3.69,4.65.22,2.93-10.42,11-.22,2.93,4.13,7.82,3.69,10.27v6.36l-1.09,2.93.22,8.31,8.9,5.14,2.39,2.69,2.61-2.69,4.56-8.8,9.77-7.09,7.17-1.22,5.43-2.45,3.69-2.93,6.95-8.56-6.08-2.69-3.04-3.42.22-4.16-1.09-1.47h-4.34l.43-6.11-1.52-2.93-5.65-5.62-9.77-4.65-6.08-.49-7.17-6.6-2.61-1.47-4.56.49ZM695.09,1420.08l-2.39,3.67-.22,4.16,5.86,5.87,4.13,1.22,1.3,2.45.87,7.34,7.82.49,11.51-6.36-.22-6.11-3.04-1.22-7.6-6.36-3.91-.73-6.3,3.18-3.26-6.6-4.56-.98ZM691.84,1448.2l1.95-3.42,5.43-.73,1.3,4.4-8.69-.24ZM676.64,1426.93l3.69,9.78,6.73-1.47.65-4.89-3.04-3.67-8.03.24ZM667.73,1410.54l-2.39,5.87h10.86l10.42,3.91,5.43-3.91.43-3.67-10.42.49-14.33-2.69ZM632.99,1384.62l-4.13,5.14-6.3,1.47,1.74,5.38,4.78,6.85.22,2.45,4.56-.73,4.99.24,3.69,2.93,7.6-1.96v-1.71l-2.17-1.96-1.09-5.14-1.74-.73-1.09,2.45-2.61-3.18.43-3.42-3.91-8.07-2.39-1.71-2.61,1.71ZM563.93,1354.3l-9.12,7.09.43,5.62,5.21,2.93,4.13,3.18,5.86.98,5.65-5.38-.43-4.65,1.74-4.16v-3.42l-2.17-2.2h-11.29ZM540.48,1366.04l-.65,2.93-4.13,2.2-1.3,4.4,2.17,1.96,2.39-3.67,4.13-1.47.87-6.36h-3.47Z"/>
    <path id="Idaho" class="cls-60" d="M337.56,447.02l-52.99-13.2,18.46-91.21,6.3-14.18.87-5.14,1.74-2.2-1.95-4.89-6.3-2.93.43-10.27,8.69-14.18,5.43-1.96,3.47-5.62-.22-3.91,3.91-3.91,6.95-13.45,9.12-11.74-1.09-7.82-7.6-7.58-3.47-8.8,2.39-10.51-1.52-9.78,27.58-137.18,30.84,7.34-10.42,53.8,8.03,18.1-3.47,11.74,7.82,11.74,4.13,1.71,8.47,20.3v5.14l4.99,7.34h1.95l3.04,5.14h6.95v3.91l-15.42,41.57-1.09,10.03,3.04,1.22,3.47,6.36,6.08-3.42,7.82-5.87,4.13,4.65,1.09,6.11-1.09,7.82,5.43,23.72,5.65,8.56,4.99,3.42.87,7.34v10.03l4.99,5.62,3.47-5.62,14.98,3.91,4.56-2.93,19.54,4.16,6.08-8.07,3.91-1.47,2.61,4.4,3.47,10.03,1.95.24-18.46,134-104.02-20.05-50.6-11.49Z"/>
    <path id="Illinois" class="cls-60" d="M1332.56,649.48l-2.17,12.72v4.89l5.21,8.56v1.71l-.65,2.2,1.95,4.65-.65,5.87-3.47,4.4-2.82,10.27-8.25,12.96-.22,17.12h-2.17l1.95,4.65v2.2l-4.78,6.6.22,2.69,3.26,5.38-.22,2.2-8.03,1.47-1.3,2.93-2.61-1.47-2.17,1.22-.87,8.07,3.69,4.4-.87,5.87-3.26.73-14.98-7.34-8.69,9.05.65,4.4h-6.08l-3.04-3.67-3.91-9.29v-4.65l1.74-1.47.22-3.18-3.69-4.65-1.95-6.11-5.86-10.03-10.42-3.18-16.07-17.36-.87-5.87,6.08-18.58-.87-4.65,2.61-2.69v-3.18l-6.08-3.67-6.51-1.71-7.38,2.93-2.82-5.62,1.3-4.65-1.52-5.87-18.68-20.54-4.78-3.67-5.43-14.43-2.61-13.2,3.04-9.05,1.52-1.71.22-5.62-1.52-2.2,2.17-3.67,3.91-1.47,1.95-.73,2.17-2.93v-5.87l3.69-5.87,1.09-1.22.22-8.56-1.95-3.42-2.17-.73-2.39-3.91,2.17-9.78,6.51-1.96h5.21l9.12-4.4,3.69-5.38.22-5.87,2.39-3.18,2.82-7.82-.22-6.36-6.08-8.56h-2.61l-1.95-2.69.43-3.91-3.69-4.16-5.43-3.18,1.09-1.47,99.67-6.85.22,11.25,7.38,11.25,2.61,10.03,3.47,7.82,8.9,122.75Z"/>
    <path id="Indiana" class="cls-60" d="M1344.94,524.53l-11.07,5.62-10.21-3.42,8.9,122.75-2.17,12.72v4.89l5.21,8.56v1.71l-.65,2.2,1.95,4.65-.65,5.87-3.47,4.4-2.82,10.27-8.25,12.96-.22,17.12h-2.17l1.95,4.65,2.39,1.96,1.3-2.45-1.52-4.16,9.99-1.22.43,2.93,2.39.49.87-2.2-1.3-3.18.65-1.96,2.82,1.96,3.69-.98,3.69,1.47,7.38,5.14,3.91-6.85,7.6-5.38,6.51,8.07,3.47-5.14.65-6.6,8.25-5.62.43,3.18,4.13,2.93,6.51-.49,2.61-1.71.22-8.31,5.43-9.05,9.99-10.76-.22-4.16,2.61-9.29,4.78,2.45,14.55-11-.87-4.16-3.26-5.14,2.17-4.65-14.33-139.87-.22-3.42-70.36,8.31-3.69,3.91Z"/>
    <path id="Iowa" class="cls-60" d="M1187.94,446.77l4.56,3.91,1.3,2.69-3.47,8.07-.22,6.11,4.34,13.45,5.86,3.67,7.17,1.71,2.82,6.85-1.09,1.47,5.43,3.18,3.69,4.16-.43,3.91,1.95,2.69h2.61l6.08,8.56.22,6.36-2.82,7.82-2.39,3.18-.22,5.87-3.69,5.38-9.12,4.4h-5.21l-6.51,1.96-2.17,9.78,2.39,3.91,2.17.73,1.95,3.42-.22,8.56-1.09,1.22-3.69,5.87v5.87l-2.17,2.93-1.95.73-3.91,1.47-2.17,3.67,1.52,2.2-.22,5.62-1.52,1.71-3.26-1.96-2.39-2.69-1.3-3.91-3.69-3.18-31.05,1.96-59.07,2.93-56.24-.24-3.91-10.76,1.52-5.38-1.74-8.07.43-7.09-2.82-1.71-.87-14.92-6.08-12.23-.43-9.05-4.78-10.51-2.82-9.05v-3.42l-1.3-4.16v-5.62l-1.09-2.2-1.52-4.16-.65-3.18-2.82-2.93,2.17-10.51,3.69-12.47-1.52-4.89-2.82-.98-.87-3.91,2.17-1.22.22-2.69-2.82-3.67.22-3.91,4.78.24h61.24l78.83-2.2,40.39-1.71.43,6.36Z"/>
    <path id="Kansas" class="cls-60" d="M975.56,633.84l-94.9-2.93-78.18-4.89-10.42,163.83,147.01,7.09,134.64.24-1.09-117.62-6.95-1.71-5.65-11.49-5.43-6.11,1.09-5.62,5.86-6.36.22-2.93-3.26-5.14-1.95,2.45-4.34-1.47-6.3-7.34h-70.36Z"/>
    <path id="Kentucky" class="cls-60" d="M1481.53,787.89l-44.52,3.42-11.29,1.96-37.78,2.45-5.65,1.96-49.08,4.89-1.52-1.47h-8.03l2.61,7.82-1.3,2.2-50.6,3.67,2.17-6.6,3.04,2.2,1.52-.98,2.61-10.03-2.17-2.45,2.17-4.89.43-2.2-2.82-1.96-.65-4.4,8.69-9.05,14.98,7.34,3.26-.73.87-5.87-3.69-4.4.87-8.07,2.17-1.22,2.61,1.47,1.3-2.93,8.03-1.47.22-2.2-3.26-5.38-.22-2.69,4.78-6.6v-2.2l2.39,1.96,1.3-2.45-1.52-4.16,9.99-1.22.43,2.93,2.39.49.87-2.2-1.3-3.18.65-1.96,2.82,1.96,3.69-.98,3.69,1.47,7.38,5.14,3.91-6.85,7.6-5.38,6.51,8.07,3.47-5.14.65-6.6,8.25-5.62.43,3.18,4.13,2.93,6.51-.49,2.61-1.71.22-8.31,5.43-9.05,9.99-10.76-.22-4.16,2.61-9.29,4.78,2.45,14.55-11-.87-4.16-3.26-5.14,2.17-4.65,2.82,1.22,4.78.24,4.13-1.96,6.3,2.93,4.78,8.31v2.45l8.9,1.71,4.99-.49,4.13,5.14,4.78.49v-2.45l4.13-1.96,6.51,1.96,2.61,1.96,2.82-1.71h1.95l1.3-4.16,7.38-4.4,1.09,1.96,1.74,7.09,7.6,3.42,2.61,5.14-.22,2.69,1.3,2.45-1.3,8.8,4.13,3.91,1.74,2.69,2.17,1.47-.22,2.2,9.55,13.69h3.04l3.26,4.4,2.61.73,3.04-.24-10.64,16.14-6.3,2.45-6.51,7.34-.87,5.38-4.56,3.18-.22,4.16-3.04,3.42-3.91,1.22-1.09,4.65-2.17.98-14.98,10.27-12.16,3.42ZM1268.72,815.52l-1.52-1.71.43-2.45h2.39l1.52,1.71-.65,2.45h-2.17Z"/>
    <path id="Louisiana" class="cls-60" d="M1286.96,1155.41l-2.61-4.4.65-3.18-10.42-16.63,1.95-11.25,2.17-3.42.22-3.42-78.18,4.89,3.69-29.1,5.21-11.74,13.03-20.54-3.91-6.11h4.34v-8.07l-5.21-6.11,1.09-4.16-2.61-2.45-3.47-17.36,1.3-3.42-113.57,3.18,1.09,48.66,1.52,8.31,5.65,6.85,1.52,13.2,8.25,11.25,1.74,10.51h2.17l-.22,17.85-7.17,15.65,2.82,5.62-2.82,3.67,1.52,7.34-.22,10.51-4.78,8.56-.22,1.96-3.69,2.93,2.17,4.4,2.61,2.69,3.47-3.18,11.51-2.2,13.25-.24,20.85,9.29,17.37,2.45,3.26-3.42,3.91-.49,10.42,5.38,3.47-.98,2.39-3.67-9.12-4.4-4.78,2.45-2.39-.49-3.04-4.89,7.17-5.38,3.47-.24v4.16l3.26-.24,7.38-.73.87,5.62,2.39.98,1.3,4.65,10.42,2.45,3.69,3.91v1.71h-2.61l-3.26,4.16,3.69,2.93,11.73,2.45,5.86,6.85,9.55-2.45-8.03.49-.22-1.47,6.08-1.71.43-4.4,2.61-.73v-3.42l2.39.24v3.91l5.43.24,1.74-4.65,1.95.73.43,6.11,2.61.49-3.91,4.89,5.65-2.2,4.34-2.69,6.3-8.07h-1.52l-2.82,2.93-.87-.24-1.09-1.96,1.95-2.93v-5.62l2.39-1.96,1.52,1.71,2.17-1.96,2.17-.24,1.3,3.18-1.3,4.65h5.21l11.07,4.16,1.09,3.18,3.47,3.42,6.08.24,2.82,1.71,3.91-2.45,1.95-4.16v-4.16h-3.04l-2.61-3.42-2.39-2.69-6.95-2.2-5.65.49-9.12-5.87v-5.62l2.82-2.45,5.21,1.47-6.73-3.91.43-1.96h7.82l5.65-8.56-5.65-4.4,1.74-3.67-2.61-1.96h-1.74l-4.34,5.14v5.14l-1.3,1.71-2.39-.24-3.47-3.42h-2.82v-3.67l1.3-1.71,1.74,1.71,3.69-3.91,1.52-3.91,1.74-.73-1.3-1.71ZM1264.59,1148.81l4.13,2.45,1.74,2.69,5.43.24,3.26,1.96.43,3.42-.87,1.47-1.95-3.67-3.04,2.93-1.95,3.42-6.08,1.96-3.47.24-8.03-2.45.22-4.16,4.34-4.89,2.39-5.87,3.47.24ZM1254.39,1151.75v2.69l-3.91,4.89h-2.61v-5.38l3.47-3.67,3.04,1.47Z"/>
    <path id="Maine" class="cls-60" d="M1878.7,313.99l1.3,9.78,6.95,4.89,1.74,5.38,4.99,3.42,3.04-.73,2.17-7.34-1.74-7.09,3.47-2.2,1.09-6.85-1.3-3.18,7.17-4.65-4.78-5.62,1.95-5.87,3.04-5.38,1.09,7.82,3.47-4.89,2.82,2.2,2.61-1.96v-4.16l6.95-3.18.65-7.09,5.43-.49,5.86-9.05v-1.71l-1.95-1.22-.22-8.07,1.3-2.69.43,3.91,2.17-1.22-.43-7.82-1.95.73-.22,2.93-2.61-3.42,1.95-3.42,1.3.24,2.39-.98,1.09,6.85,4.34-.73,6.3,1.71v-2.45l-2.39-2.93,2.82.24.22-5.62,1.3,1.96.65,4.65,4.56,3.67.43-2.45,1.95-.49-.65-1.96,1.74-1.47-.22-3.91-3.47-.49-4.34,1.71,3.04-3.91,1.52-1.96,2.82-.49.87,3.18,3.69,3.91.87-5.14,4.99-2.93-1.95-3.18.22-4.16,2.39,1.22h1.52l3.69-3.42.87-5.62,4.78.73.22-1.71.43-3.91,1.09,3.42,3.26-2.45,4.99-10.03-.22-5.38-3.04-4.89-6.51-7.82h-4.13l-1.74,5.38-6.3-7.34.65-1.96v-3.67l-3.47-11-1.74-.49-1.52.98h-10.42l-.65-8.8-17.59-63.58-15.85-9.05-6.3-.24-14.55,16.14-5.86-2.45-2.17-9.54h-5.86l-14.98,47.68,1.52,15.16-3.69,5.87-.87,11.25,2.82,9.05,1.74.49v3.91l-3.47,11-3.26,3.42-2.82,5.38-.87,19.07-5.21-2.45-3.26.98,25.84,89.99ZM1953.84,253.59l-2.17,1.96v3.18l1.52-1.96,1.95,1.96.87-1.22,2.39.49-2.17-1.96.87-1.96-3.26-.49ZM1950.15,259.95l-2.17,2.69,1.09.98-.22,2.45h2.39v-4.4l-1.09-1.71ZM1943.63,256.04l1.95,3.18,2.17,1.22.65-2.45v-4.4l-2.82-1.71-.87,2.93-1.09,1.22ZM1941.46,268.27l-3.69-4.16,3.47-5.87,1.74.73.43,2.69,2.17,1.96v2.69l-2.17,2.45-1.95-.49Z"/>
    <path id="Maryland" class="cls-60" d="M1765.57,657.8v-4.16h-1.74v4.4l1.74-.24ZM1791.19,648.26l2.61-5.38.22-6.11-1.3-1.47-1.52,2.2-.43,5.14-1.74,3.42-.65,2.69-9.99,3.91-1.52,1.96-2.82.49-.87,2.2-2.82,1.47-.65-6.11.87-1.71-1.74-1.22.43-3.67-3.47,2.45v-4.89l2.61-.73-4.13-.98-1.52-1.96.87-3.18-1.74-1.47-1.52,3.91,1.09,1.96-1.52,1.47-2.39,1.22-4.34-2.45-.43-2.93-2.17-2.69-3.04-4.16,3.26-1.96-2.17-1.47v-2.2l1.3-2.45,3.69-.73-3.04-1.47-.22-1.71-2.82-.24-.87,2.69-1.3.73.22-8.31,2.17-2.45,1.74,1.71.22-3.91-2.17-2.2-1.95,2.69-2.17,3.42-1.3-2.45.43-5.87,1.95-2.45,1.95,2.2,2.61-1.71-.87-4.16-2.17,2.45-1.95-5.14-.43-4.16,2.39-5.87,2.39-3.42,3.04-.49-1.09-1.96,1.09-1.47-.65-1.71.43-5.14-3.26.98-1.74,2.69,2.17,3.18-5.65,8.8-1.95-.98-1.52,2.2-1.3,5.38-3.91,1.22,2.82,1.47,2.82,3.18-.43,1.71,1.95,2.93-2.39,2.45,1.09.73-1.09,3.18v5.14l-1.09,3.18,1.95,2.69,1.52,8.31,2.82,3.42,3.47,3.42.87,6.85,3.47,4.89.87,3.42v2.45h-1.52l-3.26-2.93-.87.49-2.61-.49-3.69-3.42-3.04-.73-2.17,1.22-2.61-.73-.87.49-3.69-1.96-2.17-2.45-2.17-3.18-1.3-.49-1.74,1.71-3.47,3.18-2.39-1.96-.87-5.62,1.74-5.14-.65-1.22.65-.98-1.52-2.45,2.17-.24,2.17-2.2.87-4.4,3.69-6.36-5.65-4.4-2.17,4.16-1.3-1.47h-2.17l-1.3-.24-.87-.98.22-1.22-3.69-1.47-1.74.73-2.61-.24-1.52-1.71-1.09-.49-.43-1.71,1.3-1.96v-2.2l-2.61-.49-2.17-2.2-1.95.24-3.47-.73-1.95-.98.43-3.91-2.17-1.22-.43-1.71h-1.52l-1.74-2.93.43-2.45-5.65.98-4.78-3.91-3.04.73-1.95,3.42h-2.82l-3.69,7.09-7.17.98-4.13-2.45-5.65,9.29-4.78-.73-6.73,9.54-1.95,3.91-3.91,3.91-3.69-27.88,131.38-28.85,16.5,66.27,23.67-5.62v12.96l-.22,7.58-2.17,4.4-1.3.73ZM1762.09,643.86l-2.82,2.2,1.74,4.4,3.69,1.96-.87-3.91-1.74-4.65Z"/>
    <path id="Rhode_Island" data-name="Rhode Island" class="cls-60" d="M1932.77,425.25h7.38l1.95-1.47.22-3.18-4.13-4.4.87,2.45-3.26,3.67h-4.99l.22,1.96,1.74.98ZM1913.23,429.65l-2.61-1.47,2.17-1.96,1.3-5.14,2.61-2.45,1.74-.49,1.3,2.2,2.39.49,1.3-1.47,1.09,4.65-2.82.73-6.08,1.71-2.39,3.18ZM1837.44,372.43l39.96-9.29,2.17-3.67.65-4.16,4.13-1.47,1.09-2.69,3.69-2.69,2.82.73,3.69,8.07,2.17.98,2.39-3.18,1.74,3.18v2.69l-6.51,5.87.43,1.96-1.95,2.45.87,1.96-2.82.73,1.95,2.93-1.74,1.71,1.3,2.45,1.95-.49.65-1.96,2.39,1.47h3.91l5.43,6.36.43,6.36,3.91.24,1.74,2.69,1.3,4.89,2.17,1.71h4.13l4.13-.24,1.74-2.2,3.47-2.93,2.39-.73-2.61-5.14-.65,2.2-3.26-8.8h-1.74l-.87,2.2-2.61-2.45,2.82-2.69,3.91.98,4.99,5.14,2.82,6.6,2.61,8.07-2.17,6.85v-4.4l-1.52-2.45-7.6,5.62-1.95-.73-3.47,2.45-.22,2.93-4.78,2.93-4.34,5.14-4.34,4.65h-2.61l7.17-8.07,1.09-4.65-1.09-1.47-.65-3.18-1.95-.24-.22,3.18-2.17,2.93h-2.61l-.65,2.69.87,2.93-2.61,2.69-2.39-.49-.87,2.45-3.04-7.34-2.82-2.69-5.65-3.18-1.3-5.38h-1.74l-1.52-6.36-14.11,4.89-.22-.73-32.36,8.31v1.71l-1.95.73-1.09-1.71-22.8,5.87-1.52-2.45,1.09-36.68,26.93-6.6Z"/>
    <path id="Michigan" class="cls-60" d="M1418.99,512.3l.22,3.42,46.47-8.56,1.09-2.93,8.47-14.43v-10.51l1.74-5.14,4.78-1.96,4.34-19.07,2.17-1.22,2.17,1.47-.43,1.47-2.39,1.96.65,2.2,1.74.98,4.13-3.42.87-23.96-3.47-5.62-2.61-9.05v-6.11l-4.99-10.76v-4.4l-2.61-8.07-4.99-7.34-6.3-2.45-10.42,7.34-5.43,11.25-.43,2.2-6.51,8.56-3.26-.49-6.3-6.85-.22-8.31,3.26-4.65,4.34-.49,2.61-4.16.43-9.78,1.74-1.96,2.39-.24,1.95-4.16-.43-23.47-.65-3.18-2.61-2.93-3.69-2.45-.22-4.4,1.52-1.47,3.91,1.96-.65-4.16-4.13-6.6-1.52-3.91-2.39-2.69h-4.78l-17.59-7.09-3.04-4.16-6.73-.73-2.61.73-9.55-5.62h-3.04l1.09,2.45-5.86-.24.22,1.47,1.3,1.47-5.43,5.14.22,4.4,3.26,5.62,3.26.49v1.47l-3.26,1.22-4.56-.24-6.08,6.11.22,6.11.87,14.18-4.78,8.31,1.74-11-1.74-1.47-1.95,12.96-2.17-5.62,1.09-5.62-1.09-2.45,1.3-3.18-1.3-2.69,2.17-2.45v-2.93l-2.82,1.47-2.82,7.58-1.52,1.71-2.82,5.87-3.69-.49-.22,2.93h-3.47l.43,3.67.43,4.89-6.51,2.93.22,3.18,2.17,4.16-.22,12.72-2.82,10.76-3.69,6.11,2.61,3.42,1.74,8.56-2.17,6.11-.43,5.14,3.69,8.31,5.43,11.98,2.61,4.65,3.47,16.87-.22,21.52-1.95,9.54-4.34,7.82-1.95,9.05-4.34,7.34-2.61,2.45,70.36-8.31ZM1210.96,275.6l6.51,9.29,36.92,9.29,3.04,2.45,8.69,1.96,1.52,1.22,6.08-.49,10.64,1.96,3.04,3.67-2.17,2.45,1.74,1.96,8.25,1.71,2.61,2.93.22,10.76-2.82,6.85,4.34.24,2.17-1.96,1.95,1.96-2.39,7.58,2.17,3.91,2.61.73,1.74-4.4,6.3-11.25,3.47-14.67,4.99-4.89-1.09-3.91,1.09-2.2,2.17,3.91-.65,5.38,6.3-5.38.43-5.62,4.56,1.47,1.74-3.91,1.52,1.47-1.52,3.67-2.17,1.22-2.17,4.89,3.04,4.4,2.39-1.22-1.09-1.71,2.17-3.67,4.13-4.16h1.74l.43-6.36,4.34-4.4,17.16-1.22,4.13-7.58,8.25-.73,8.25,2.93,9.12,6.6,1.52-.49-.43-8.56,1.52-.49,9.77,2.69,3.26-.49,6.3-1.71,3.69.98,3.91.24v-2.69l-1.52-2.2-3.26-.49-2.39-1.96,1.09-3.42-1.74-.73-5.65.24-.22-2.45,2.39-1.96,1.3,1.96,1.09-4.4-1.52-1.71,1.52-.49-3.04-3.18.65-3.18.22-4.65h-2.82l-3.26,2.45-4.13.24-1.09,4.4-4.13.49-.65-2.93-4.78.24-2.17,2.93-1.52-.24-.43-1.96-5.65.98-.22-11.74,2.17-4.89-1.52-.24-3.91,2.69h-4.78l-8.25,6.6-13.46.73-8.9,1.96-4.13,3.67-3.04,3.18-5.43,4.16-.65,1.96-1.3-4.16-2.82-1.47v1.47l1.52,1.71v3.18l-3.26-1.47h-1.3l-.65,2.93-4.34-4.65-2.82-.49-2.82,3.67-6.95-.24-1.09-3.42-4.34-4.65-2.82-3.91v-1.71l-2.39-3.42-5.65-2.93-7.17-.24-2.39-2.2h-3.04l-1.52.98-4.78,5.38-1.52,2.69-2.17-1.71.43-2.45,1.74-5.14,6.95-12.23,1.74-.49,3.69-4.65,1.52-3.91,6.51-1.47,1.74-1.47-.22-2.45-1.09-1.22-9.77.49-4.34,1.22-5.65,2.93-2.61,2.93-3.69,5.38-3.91,2.45-7.17,8.31-.87,3.91-16.07,11.25-8.69,1.22-3.91.98-4.99,7.34-3.91,1.71-9.55,5.62,4.13,1.71ZM1429.63,284.89l8.25.24,1.3-1.22-.43-4.89-3.69-4.4-4.13.24-.22,1.22,2.39.98-3.47,1.96-.65,2.45-1.3-1.47-.87,1.96,2.82,2.93ZM1266.55,182.44l-4.99.49-5.86,4.65-15.42,12.96,1.74,2.45,3.91.73,6.08-4.89-2.39-1.22,4.99-3.91h2.17l6.51-4.65-.22-2.2,3.47-4.4ZM1355.8,336v2.45l4.56,3.91-.43-5.87-4.13-.49ZM1354.28,342.85l2.39.24v2.2h-2.17l-.22-2.45ZM1400.75,290.76v2.2l1.74-.49v-1.22l-1.74-.49ZM1410.95,298.34l-.22-2.69-3.47-.49-1.3-.98h-1.95l-.87.73,1.95.98,2.39,2.69,3.47-.24ZM1371.87,301.28l-.22,2.69-.65,1.71.43,5.38.87.73,1.52.24,1.09-2.2.22-3.91-.65-1.47-.22-2.69-2.39-.49Z"/>
    <path id="Minnesota" class="cls-60" d="M987.72,167.03l-2.39,6.85,1.74,3.42-.65,12.47-1.09,2.69,5.86,22.25,2.82,6.11,1.52,34.23,2.17,6.6-.87,14.18,6.3,18.1.65,14.18-.22,5.14-.22,5.38-1.95,4.89-6.73,4.65-.65,2.93,3.69,6.11.87,4.4,5.65,1.47,3.26,4.65-.43,96.59h61.24l78.83-2.2,40.39-1.71-2.39-11-.43-7.34-4.78-7.34-6.08-1.71-11.29-8.8-1.3-8.07-13.68-7.58-.43-3.18h-7.17l-4.78-6.36-4.34-3.18,1.52-12.47-1.95-3.91,1.09-13.2,2.17-4.4-.65-6.6-2.61-3.18-3.91-.73v-4.16l6.08-14.18,12.81-9.54-.87-31.79,1.95.98,1.3-1.22.22-2.69,1.95-1.47,3.04,2.93,1.52-.24h0l-2.61-5.38,9.34-7.58,6.73-9.05,3.47-1.96,10.21-14.43,13.68-14.18,8.47-5.14,13.68-6.6,16.5-11-1.3-.98-8.03,1.71-6.08.24-2.17-3.91-3.04-2.2-21.28,2.93-2.17-6.85-3.47-.24-3.69,1.96-8.03,7.58h-8.9l-4.56-2.45-.65-4.16-8.47-1.96-1.3-3.91-1.52-3.18-2.17,2.2-5.65.24-21.5-13.45h-6.3l-1.74-1.71-6.73,3.18-1.74,3.18-7.17,1.96-2.82-.49v-4.16l-1.52-2.2h-12.81l-.87-3.42h-5.65l-2.39.98-5.21-4.16.65-3.42-1.3-5.87-1.52-2.69-.43-7.34-2.17-7.58-4.56-3.91h-6.3l.22,19.56-67.1-.98,5.21,17.85Z"/>
    <path id="Mississippi" class="cls-60" d="M1333.21,1145.14l-10.86.24-5.21-3.67-17.16,6.11-1.95-1.71-1.09.49-.22,3.91-1.3.24-5.65,6.6-1.52-.24-1.3-1.71-2.61-4.4.65-3.18-10.42-16.63,1.95-11.25,2.17-3.42.22-3.42-78.18,4.89,3.69-29.1,5.21-11.74,13.03-20.54-3.91-6.11h4.34v-8.07l-5.21-6.11,1.09-4.16-2.61-2.45-3.47-17.36,1.3-3.42,2.61-3.67,1.09-7.34-3.26-5.62-1.09-5.38,1.95-1.71v-1.96l-3.69-2.69-.22-1.71,3.47-2.2-2.61-2.69,3.69-17.36,7.38-3.91v-1.96l-2.39-3.42,6.3-13.2h4.13l3.26-2.93-.65-12.72,6.73-11,3.91-1.47-1.09-7.58,83.17-6.36,2.82,4.89-2.82,163.83,9.55,81.18-3.26,3.18Z"/>
    <path id="Missouri" class="cls-60" d="M1184.46,607.92l-2.39-2.69-1.3-3.91-3.69-3.18-31.05,1.96-59.07,2.93-56.24-.24,2.82,3.18-.65,3.42,4.56,9.05,8.47,15.41,6.3,7.34,4.34,1.47,1.95-2.45,3.26,5.14-.22,2.93-5.86,6.36-1.09,5.62,5.43,6.11,5.65,11.49,6.95,1.71,1.09,117.62.43,26.41,84.91-1.71,86.43-4.89,3.47,6.11v5.38l-3.69,3.67-6.08,12.47,24.32-1.96,2.17-4.89,2.61-1.22v-1.71l-2.61-2.69-1.3-2.45,3.69.49,1.74-1.71-3.04-3.67,3.04-1.22.22-2.45-1.3-2.45v-3.18l-1.52-1.71.43-2.45h2.39l1.52,1.71-.65,2.45,1.74,1.71,1.74-2.45,2.17-6.6,3.04,2.2,1.52-.98,2.61-10.03-2.17-2.45,2.17-4.89.43-2.2-2.82-1.96h-6.08l-3.04-3.67-3.91-9.29v-4.65l1.74-1.47.22-3.18-3.69-4.65-1.95-6.11-5.86-10.03-10.42-3.18-16.07-17.36-.87-5.87,6.08-18.58-.87-4.65,2.61-2.69v-3.18l-6.08-3.67-6.51-1.71-7.38,2.93-2.82-5.62,1.3-4.65-1.52-5.87-18.68-20.54-4.78-3.67-5.43-14.43-2.61-13.2,3.04-9.05-3.26-1.96Z"/>
    <path id="Montana" class="cls-60" d="M514.98,318.39l124.43,19.32,110.75,12.96,4.34-50.62,11.29-163.1-116.18-13.69-117.91-18.83-143.1-30.57-10.42,53.8,8.03,18.1-3.47,11.74,7.82,11.74,4.13,1.71,8.47,20.3v5.14l4.99,7.34h1.95l3.04,5.14h6.95v3.91l-15.42,41.57-1.09,10.03,3.04,1.22,3.47,6.36,6.08-3.42,7.82-5.87,4.13,4.65,1.09,6.11-1.09,7.82,5.43,23.72,5.65,8.56,4.99,3.42.87,7.34v10.03l4.99,5.62,3.47-5.62,14.98,3.91,4.56-2.93,19.54,4.16,6.08-8.07,3.91-1.47,2.61,4.4,3.47,10.03,1.95.24,4.34-26.16Z"/>
    <path id="Nebraska" class="cls-60" d="M852.65,466.58l82.52,3.91,7.38,7.82,3.69.49,4.56,4.89,3.91-.24,3.91-4.89,3.26,1.47,2.17-1.71,1.52,1.22,1.95-.98,1.52.98,1.95-.98,2.17,1.22,3.04-1.47,4.34,1.47,1.3,2.69,13.25,5.38,2.61,3.18,1.95,6.36,3.91,1.71,3.26-.49,1.09,2.2v5.62l1.3,4.16v3.42l2.82,9.05,4.78,10.51.43,9.05,6.08,12.23.87,14.92,2.82,1.71-.43,7.09,1.74,8.07-1.52,5.38,3.91,10.76,2.82,3.18-.65,3.42,4.56,9.05,8.47,15.41h-70.36l-94.9-2.93-78.18-4.89,3.04-54.04-71.88-5.87,8.03-108.08,110.97,8.56Z"/>
    <path id="Nevada" class="cls-60" d="M342.56,725.04l-7.38,42.79-5.21,7.09h-4.34l-2.61-6.6-8.03-3.42-7.6,1.47-2.17,33.26,1.09,11.98-1.09,7.09-3.04,7.34-152.88-256.75-2.39-8.56,35.61-154.3,102.06,27.39,52.99,13.2,50.6,11.49-45.6,266.54Z"/>
    <path id="Nuevo_Hampshire" data-name="Nuevo Hampshire" class="cls-60" d="M1851.77,228.16l-2.82.24-2.17-2.69-4.13,3.42-1.09,14.92,2.61,5.62-2.39,8.56,4.56,6.85-.87,4.16.22,3.18-2.39,5.14-3.04.98-1.3,3.18-4.56,2.45-1.52,3.67,3.04,8.31-1.09,6.11,1.09,3.67-2.17,4.65.87,4.65-2.82,4.65.43,5.38-1.52,2.69,1.52,11,1.52,3.67-1.09,6.36,1.95,4.4-.43,6.11-1.09,3.18-.22,3.42,4.56,6.36,39.96-9.29,2.17-3.67.65-4.16,4.13-1.47,1.09-2.69,3.69-2.69,2.82.73,1.74-11.74-4.99-3.42-1.74-5.38-6.95-4.89-1.3-9.78-25.84-89.99-1.09,4.16Z"/>
    <path id="Nueva_Jersey" data-name="Nueva Jersey" class="cls-60" d="M1808.13,477.09l-31.7-11.98-3.91,6.11.22,5.38-6.51,13.2,3.26,4.4-1.52,4.89-2.17,2.45,1.09,8.8,5.86,2.2,2.17,6.85,4.56,2.69,9.12,7.82-7.17,6.36-3.47,5.62-3.91,7.34-3.47,1.47-3.04,4.16-2.17,5.38-.65,5.14,1.74,2.2.87,5.62,2.61,1.47,5.21,3.67,3.91,1.96,3.47,1.96.22,2.69,1.74.24,2.39-2.93,1.74.98,4.56.49-.43,7.09.43,6.11,3.91-1.71,3.26-9.54,3.47-11.74,6.3-6.85,1.3-8.56-1.3-2.93,3.69-7.09v-2.93l-1.52-2.69,2.61-6.6-.65-8.8-1.3-20.05-2.61-3.42v3.42l1.09,1.47h-2.39l-1.3-.98-2.82-.49-1.95,1.47-2.61-3.91,1.52-4.16v-2.45l3.69-1.71,1.74-5.14.87-14.43Z"/>
    <path id="Nuevo_Mxico" data-name="Nuevo Mxico" class="cls-60" d="M754.93,813.32h-1.74l-17.16,242.82-69.05-6.36-74.7-8.8-.65,7.34,4.34,5.38-66.88-10.03-3.04,24.94-34.09-5.38,37.78-303.46,114.22,15.89,112.27,11.74-1.3,25.92Z"/>
    <path id="Nueva_York" data-name="Nueva York" class="cls-60" d="M1874.14,443.35l-2.82.24-1.09,2.45,3.91-2.69ZM1807.69,498.86l1.52,1.47,2.82-.73,2.39.73,1.95-3.18h4.13l5.21-2.2,11.07-5.14-1.09-1.22-4.13,1.96-4.34,2.2.43-1.96,5.65-2.69,1.74-2.45,2.61.24,8.9-5.62v1.71l-9.12,7.34,9.77-6.85,3.69-5.38,3.26-.24,9.77-7.58,6.95-7.58,6.51-5.62,2.17-2.93-3.69-.24-2.17,2.93-.43,1.71-1.95,1.71-1.74-2.69-3.69,2.45-.22,2.2-1.95-.49,1.09-2.2-2.61-1.71-1.3,2.2,1.95.73.43,1.22-.65,1.22-3.04,6.36h-4.13l1.95-4.4,1.95-1.47.65-4.16,3.04-3.91,1.95-1.96,3.26-1.71-2.61-.49-1.52,2.2h-1.52l-2.39,1.96-.43,2.45-4.78,5.14-.87,2.2-3.04,2.2-16.72,4.65.43,2.2-1.95,1.71-4.34.73-2.17-1.47-.43,2.69-2.39-.98.22,2.45-2.61-.24-2.61,1.22-.43,2.69h-2.17l.43,2.45h-1.52l.43,2.45-3.91.98-3.26,5.62-.43,5.14ZM1805.96,497.88l-3.47.98v2.45l-1.52,3.91,1.3,1.71,5.21-5.62-.22-2.2-1.3-1.22ZM1784.02,265.09l-1.3,4.65,3.04,2.2-.87,3.67,1.09,7.82,4.78,5.62-.87,5.38,1.3,4.89-.87,2.45-.65,9.29,6.73,16.38-1.74,4.4,1.95,5.38,1.95-3.91,4.13,3.67,6.51,34.72-1.09,4.89,2.39,2.45-1.09,36.68,1.52,2.45,6.08,39.86,3.91,3.67-7.6,8.31,3.69,5.38-2.82,8.07-3.26,4.16-3.26,5.62-.43-1.71.87-14.43-31.7-11.98-3.47-2.69-4.13.73-6.51-5.38-6.51-14.18h-4.34l-.87-3.67-3.69-2.69-153.09,33.99-1.74-14.67,9.34-9.54,1.3-4.16,8.47-6.11,1.3-5.87,4.99-4.89,1.74-2.69-3.69-8.07-3.69-1.22-3.91-7.34-.43-7.82,16.5-9.54,17.81-3.91h9.55l6.95,3.91,1.95-.24,3.91-3.91,7.38-1.71h6.51l5.65-3.18,5.43-6.36,5.21-7.58,4.13-.98,2.39-1.22.87-7.82-3.04-6.6-2.61-1.71,4.34-3.18-.22-4.4h-3.26l-4.99-3.42-.22-7.58,13.46-14.92,1.52-5.87,8.03-15.41,12.81-15.65,4.56-4.16,5.43.24,44.73-12.72,1.74,4.16Z"/>
    <path id="Carolina_del_Norte" data-name="Carolina del Norte" class="cls-60" d="M1778.81,733.11l-63.19,14.92-85.56,17.85-63.84,8.56v12.72l-3.26-.24-3.04,2.93-5.21,12.72-5.65-2.69-7.6,6.11-1.52,5.14-3.26,2.93-1.74-1.96-.22-3.67-1.74-.49-8.69,8.07-1.3,8.31-10.21,5.87-1.09,2.93-6.95,6.36-7.82,1.22-9.99,7.34-1.74,10.03-2.82,2.2-3.26-.24-3.04,3.18-.22,11.98,46.47-7.34,9.55-4.65,2.82-.24,15.85-10.51,50.38-5.38.87,1.22-.43,3.42,1.52.73,2.61-3.67,7.17,7.34.22,6.36,42.78-6.85,53.2,41.81,8.69-5.38,6.51-1.71h3.69l2.39,2.69,1.74-4.89,1.3-12.23,3.69-9.54,11.73-14.92,8.9-8.56,11.73-5.62,5.43-.98,2.82.98,1.52,2.69,7.17-16.14,7.17-12.96-1.52-.73-9.55,16.63-1.09-1.96,4.34-5.38-.87-3.67-4.34-1.22,2.17,3.18-2.61.24-2.61-4.4-2.61,4.89-3.47.49,2.17-6.6,1.52-4.16-.43-7.09-4.78-.24,1.95-2.2,2.39.73,5.86.24,1.74-1.22h4.99l4.34-4.65.43-7.82,2.82-3.42,2.61-.49,2.82-2.45-1.09-9.05-4.78-9.29-5.86-.49-1.95,3.91-1.09-2.45-5.86.49-2.61.98-4.13,2.93-.65-.98h-1.95l-3.91,2.93-5.65,1.22v-3.18l1.74-2.45,2.17,1.71h2.17l3.69-5.14,8.03-4.16,4.34-5.38h5.21l1.74,3.18,3.69,1.96-1.09-3.67-.65-3.91-6.08-7.58-.65-3.42-.87,2.45-1.95-3.18-2.82-3.91ZM1794.01,808.92l5.86-6.11,9.99-8.07v-9.05l-.87-7.58-3.69-10.27,3.26,3.42,2.17,7.82.87,18.58-3.69.98-6.73,5.87-6.95,7.82-.22-3.42ZM1798.14,761.72l-1.95-.49v2.45l5.43,5.38-.43-3.42-3.04-3.91ZM1804.44,766.86l-3.04-6.85-4.78-8.31-5.21-7.34-4.78-10.51-1.74-1.71,4.78,10.51.65,3.18,7.38,13.45,3.91,5.14,2.82,2.45Z"/>
    <path id="Dakota_del_Norte" data-name="Dakota del Norte" class="cls-60" d="M987.72,167.03l-2.39,6.85,1.74,3.42-.65,12.47-1.09,2.69,5.86,22.25,2.82,6.11,1.52,34.23,2.17,6.6-.87,14.18,6.3,18.1.65,14.18-.22,5.14-64.06-.98-99.89-5.14-85.12-7.09,11.29-163.1,96.63,8.31,120.09,3.91,5.21,17.85Z"/>
    <path id="Ohio" class="cls-60" d="M1467.63,509.86l4.13-.98,6.51,3.18,4.56,1.47,1.52,2.2h2.17l2.17-3.67,2.82,1.96h3.26l-.22,2.45-6.73,1.22-4.34,2.69,4.13,1.96,3.47-3.67,5.21-.98,4.78,3.67,3.26-.24,5.43-4.16,7.82-5.14,11.29-.73,10.64-14.43,8.25-7.58,20.2-12.47,10.64,73.11-4.78,2.93,3.04,5.14-.22,5.38,1.3,4.89-2.39,8.31-.22,13.2-2.17,8.8,1.09,2.69-.87,5.38-2.39,1.22-4.34,8.07-3.91,4.89h-1.3l-3.91,4.16-2.82-2.93-3.26,4.4-.65,2.93h-2.82l-2.82,5.38.22,5.14-2.17,1.22,3.04,2.69v4.65l-2.17.49-1.52,1.96-2.17,1.22-1.3-5.14-3.47-1.22-2.17,5.62-.65,5.38-2.39,3.18,2.82,8.8-3.26,1.96-.87,8.56h-3.26l-6.95,3.42-2.61-5.14-7.6-3.42-1.74-7.09-1.09-1.96-7.38,4.4-1.3,4.16h-1.95l-2.82,1.71-2.61-1.96-6.51-1.96-4.13,1.96v2.45l-4.78-.49-4.13-5.14-4.99.49-8.9-1.71v-2.45l-4.78-8.31-6.3-2.93-4.13,1.96-4.78-.24-2.82-1.22-14.33-139.87,46.47-8.56,1.95,2.69Z"/>
    <path id="Oklahoma" class="cls-60" d="M1067.63,973.97l-9.99-9.29-4.78-2.2-1.09,3.91-11.07.73-1.3-3.67-10.86,6.11-3.47-1.71-8.03.73-1.3,4.16-7.82,2.2-2.82-2.93-2.61.24-4.34-4.4-4.56,1.71-4.34-1.22-3.91-4.89-5.43,10.27-2.61,1.96-2.17-4.4.65-4.89-2.61-1.71-4.99,6.11-3.69-2.93-.22-3.67-2.82,1.22-5.65-4.16-6.51,6.36-4.99-2.69,1.52-5.14-4.99.24-4.13-7.34-7.6-2.69-4.34,5.62-4.99-5.38-3.04.98-4.34.24-7.6-4.65-4.99.24-2.61-1.71-1.09-7.09-4.99-4.16-2.39,3.67-3.04-2.45-2.61-.98-2.39,2.45-3.26-.73-5.43-7.34-5.86-3.18,3.04-104.41-114.22-7.82,1.3-25.92,35.83,2.45,147.01,7.09,134.64.24.43,26.41,8.9,59.66-1.52,95.37-13.9-4.65Z"/>
    <path id="Oregn" class="cls-60" d="M182.52,406.42l102.06,27.39,18.46-91.21,6.3-14.18.87-5.14,1.74-2.2-1.95-4.89-6.3-2.93.43-10.27,8.69-14.18,5.43-1.96,3.47-5.62-.22-3.91,3.91-3.91,6.95-13.45,9.12-11.74-1.09-7.82-7.6-7.58-3.47-8.8-65.8-17.85-6.08,2.45-11.73-2.2-3.91-2.2-3.26,2.93-7.17-.98-9.77,1.22-1.95,1.71-9.12-.98-1.74-3.91-2.61-.49-9.55,3.18-3.47-2.69-4.78,1.96-.43-4.4-4.99-2.93-3.26-.49-2.17-2.69-6.51.73-2.61-1.96h-2.61l-2.61,2.2-11.94,1.71-14.33-10.27,2.39-13.69-.87-10.03-6.95-9.05-8.03.24-.87-2.69.87-2.93-1.52-1.96-2.17.24-2.39,3.18-3.26-.49-1.09-2.69-2.17-.24-1.52,1.47-4.34-4.65v10.51l-2.82,3.18-2.39,8.56-.22,5.62-9.77,30.08-28.66,76.54-6.95,11.25-3.47-.24.22,5.14-11.29,17.36-.65,8.07,2.17,3.18.22,5.87-2.61,2.69-2.61,7.34.22,13.94,2.61,7.09,143.54,45.48Z"/>
    <path id="Pennsilvania" class="cls-60" d="M1772.95,462.42l-4.13.73-6.51-5.38-6.51-14.18h-4.34l-.87-3.67-3.69-2.69-153.09,33.99-1.74-14.67-9.12,8.31-1.95.24-5.86,7.34-7.17,4.16,10.64,73.11,6.95,48.17,37.78-7.09,131.38-28.85,2.61-5.14,3.26-2.69,3.47-.73,3.47,1.47,3.04-4.16,3.47-1.47,3.91-7.34,3.47-5.62,7.17-6.36-9.12-7.82-4.56-2.69-2.17-6.85-5.86-2.2-1.09-8.8,2.17-2.45,1.52-4.89-3.26-4.4,6.51-13.2-.22-5.38,3.91-6.11-3.47-2.69Z"/>
    <path id="Delaware-2" data-name="Delaware" class="cls-60" d="M1896.51,416.69l-2.82-2.69-5.65-3.18-1.3-5.38h-1.74l-1.52-6.36-14.11,4.89,6.95,30.08-.87,2.69.87,4.4,12.16-8.8.22-7.34-1.74-1.96.87-1.47-.22-3.18-1.95-1.71,2.61-.98-1.95-3.91,3.91,1.71.65,3.42,1.52,2.93-3.04-1.96,2.39,4.16-.65,2.93-1.3-2.69v6.11l1.3-2.2.87,2.2,2.82-3.67-.43-6.11,3.04,7.58,2.17-2.2-3.04-7.34ZM1886.3,446.53h1.95l1.09-1.47-1.74-3.18-1.52,1.71.22,2.93Z"/>
    <path id="Carolina_del_Sur" data-name="Carolina del Sur" class="cls-60" d="M1655.69,855.62l-42.78,6.85-.22-6.36-7.17-7.34-2.61,3.67-1.52-.73.43-3.42-.87-1.22-50.38,5.38-15.85,10.51-2.82.24-9.55,4.65-.22,4.65-4.13,2.45-3.04,7.82.43,3.18,13.25,9.29,5.65-.73,6.73,9.78.87,4.16,9.12,12.47,5.65,4.16,3.04.49,4.78,3.91,2.39,5.38,4.34,3.91,3.91,1.22,5.86,6.6.22,3.42,5.65,6.85,10.86,5.62,7.82,16.38.65,6.6,8.47,5.14,5.43,11.74,1.74,7.58,9.12.98,1.74-3.67h1.3l3.91-3.67,1.09-4.89,6.95-5.14.65-5.87-2.61-2.2,1.74-1.71,1.74.98,2.82-.98,3.91-5.14,8.25-4.4,3.47-5.87.22-1.71,10.42-10.76-.22-1.22-1.95-1.96,2.39-3.67h1.74l.87,1.22,1.52-1.96h2.82l1.3-3.67,4.99-5.14-.65-13.2,1.74-5.62,7.82-15.16,5.21-5.38,4.78-2.69-53.2-41.81Z"/>
    <path id="Dakota_del_Sur" data-name="Dakota del Sur" class="cls-60" d="M839.62,307.15l99.89,5.14,64.06.98-.22,5.38-1.95,4.89-6.73,4.65-.65,2.93,3.69,6.11.87,4.4,5.65,1.47,3.26,4.65-.43,96.59-4.78-.24-.22,3.91,2.82,3.67-.22,2.69-2.17,1.22.87,3.91,2.82.98,1.52,4.89-3.69,12.47-2.17,10.51,2.82,2.93.65,3.18,1.52,4.16-3.26.49-3.91-1.71-1.95-6.36-2.61-3.18-13.25-5.38-1.3-2.69-4.34-1.47-3.04,1.47-2.17-1.22-1.95.98-1.52-.98-1.95.98-1.52-1.22-2.17,1.71-3.26-1.47-3.91,4.89-3.91.24-4.56-4.89-3.69-.49-7.38-7.82-82.52-3.91-110.97-8.56,8.47-107.35,4.34-50.62,85.12,7.09Z"/>
    <path id="Tennessee" class="cls-60" d="M1326.92,892.06l99.24-9.78,49.73-7.09.22-11.98,3.04-3.18,3.26.24,2.82-2.2,1.74-10.03,9.99-7.34,7.82-1.22,6.95-6.36,1.09-2.93,10.21-5.87,1.3-8.31,8.69-8.07,1.74.49.22,3.67,1.74,1.96,3.26-2.93,1.52-5.14,7.6-6.11,5.65,2.69,5.21-12.72,3.04-2.93,3.26.24v-12.72l.65-1.71-9.99,1.22-.43,2.45-62.76,8.07-12.16,3.42-44.52,3.42-11.29,1.96-37.78,2.45-5.65,1.96-49.08,4.89-1.52-1.47h-8.03l2.61,7.82-1.3,2.2-50.6,3.67-1.74,2.45-1.74-1.71h-2.17v3.18l1.3,2.45-.22,2.45-3.04,1.22,3.04,3.67-1.74,1.71-3.69-.49,1.3,2.45,2.61,2.69v1.71l-2.61,1.22-2.17,4.89.22,1.47,3.04,2.45-.87,1.71h-3.26v1.22l1.95,2.2.22,1.96-3.04.49-1.09,1.96-3.47.49-1.95,2.2,1.3,2.2,2.39-.24,1.09,2.2-3.47,3.18.87,3.67-4.34-1.47-.22,1.71.87,2.69-.65,3.42-2.82-1.96-1.74,1.96,2.39.24.22,3.67-1.3,2.45,2.39,2.2-.65,3.67,1.74,1.71-1.52,2.45-2.61-1.22-1.95,5.38-3.47,1.71,83.17-6.36Z"/>
    <path id="Texas" class="cls-60" d="M591.63,1048.31l.65-7.34,74.7,8.8,69.05,6.36,17.16-242.82h1.74l114.22,7.82-3.04,104.41,5.86,3.18,5.43,7.34,3.26.73,2.39-2.45,2.61.98,3.04,2.45,2.39-3.67,4.99,4.16,1.09,7.09,2.61,1.71,4.99-.24,7.6,4.65,4.34-.24,3.04-.98,4.99,5.38,4.34-5.62,7.6,2.69,4.13,7.34,4.99-.24-1.52,5.14,4.99,2.69,6.51-6.36,5.65,4.16,2.82-1.22.22,3.67,3.69,2.93,4.99-6.11,2.61,1.71-.65,4.89,2.17,4.4,2.61-1.96,5.43-10.27,3.91,4.89,4.34,1.22,4.56-1.71,4.34,4.4,2.61-.24,2.82,2.93,7.82-2.2,1.3-4.16,8.03-.73,3.47,1.71,10.86-6.11,1.3,3.67,11.07-.73,1.09-3.91,4.78,2.2,9.99,9.29,13.9,4.65,5.65,5.62,6.08-3.18,6.95,1.96.43,29.1,1.09,48.66,1.52,8.31,5.65,6.85,1.52,13.2,8.25,11.25,1.74,10.51h2.17l-.22,17.85-7.17,15.65,2.82,5.62-2.82,3.67,1.52,7.34-.22,10.51-4.78,8.56-.22,1.96-3.69,2.93,2.17,4.4,2.61,2.69-7.6.73-18.24,9.54-7.6,3.42-3.91,4.4-1.52-1.22,4.56-5.62,3.91-1.71,1.09-2.2-6.3-.24-1.52-1.96,1.74-4.89-1.95-4.4h-1.3l-5.21,3.18-4.13,6.36.65,4.16,7.17,8.31,2.82.73v1.96l-4.99,3.91-10.64,9.78-8.69,9.54-6.95,3.42-10.86,7.34-8.03,4.89-9.77,4.65-8.9,6.11,6.95-7.34v-2.69l1.3-1.96-.43-4.4-3.26-.24-2.39,3.67-5.65,3.18-3.91-2.93-.65-4.16h-3.26l1.74,5.38,3.04,1.71,2.61,2.2,3.91,3.91-1.52,1.96-8.47,4.16-3.69.24-2.61-2.93-1.09,5.14,1.09,2.69-5.86,4.89-3.26.49-1.74,1.71-.87,4.16-3.91,8.07-3.47,1.71-3.47-1.47-3.91,2.69.65,3.42,2.82,1.96,2.17,1.96-3.91,8.56-.65,6.85-2.17,4.16-3.04,2.45-6.3.98,3.91,1.47,4.13-1.47-.87,7.82-2.39-.24.43,2.93.65,3.42-2.82,2.2v7.58l3.47,3.42,1.3,7.58-.87,5.38-2.17.98.87,3.67,2.39.98,1.74,4.16v6.36l2.39,5.14,4.78,6.36-.22,1.71-4.78-.49-3.47,3.42.43,3.42-1.95-.73-3.04-.49-7.38-9.05-4.99-1.47h-15.42l-6.08-1.96-7.82-7.34-3.69-2.45-4.56.24-6.95-6.36-11.73-3.91v-3.18l-3.04-4.4-1.95-11.49-2.39-4.16-3.69-3.42v-3.91l-3.04-1.47,1.3-6.36-.65-5.38-2.82-3.42,1.52-7.34-1.74-7.82-3.69-3.42h-2.39l-8.69-8.56.22-4.65-1.74-4.16-1.74-.49-1.95-5.87-4.34-3.91-6.3-6.11-.43-5.14-2.17-1.71.43-3.91,1.09-1.71-3.04-3.67.22-1.71-4.34-5.38.22-5.14-5.86-11.98-.22-4.16-3.91-7.58-11.07-11.74v-2.69l-7.17-4.16-.22-4.4-2.61-.98v-1.71l-1.74-.49-4.56-6.85h-1.74l-1.52-1.47-2.82,2.69h-4.78l-5.65-2.69h-9.99l-9.12-5.14-2.82,4.65-4.78-1.47-7.17,2.93-3.69,6.85-4.34,7.82-2.39,10.76-3.04,2.93-2.39.24-1.95,3.91-2.82,1.47-.22,4.4-6.3.24-3.91-3.67h-2.17l-4.34-7.09-7.82-1.22-3.69-5.62-2.82-.49-4.56-1.96-7.38-8.31.43-1.96-3.47-2.93-2.17-.24-7.38-7.58-.22-4.89-4.99-9.78.43-3.91-1.52-3.18,1.74-3.67-.22-5.87-5.65-10.03-1.3-10.27-3.47-3.91v-2.45l-2.61-.49-1.52-2.69-5.21-4.16-1.95-.24-4.13-3.91v-2.69l-6.3-4.4-1.3-5.14-5.65-5.62-6.95-10.76-6.51-3.18-4.56-4.4.43-2.93-2.82-3.42-3.69-9.05-5.21-2.45-4.34-5.38ZM971.43,1386.49l1.74.24-1.3-11.74-7.6-30.08-.43-19.81,10.64-25.68,13.25-20.05,15.64-12.47v-1.71h-1.74l-5.65,2.45-7.82,5.62-1.52,3.67-17.81,28.37-6.08,19.32v21.52l7.82,29.34.87,11Z"/>
    <path id="Utah" class="cls-60" d="M485.01,532.11l7.17-53.55-104.02-20.05-45.6,266.54,100.32,20.05,86.86,14.67,24.97-215.92-69.71-11.74Z"/>
    <path id="Vermont" class="cls-60" d="M1844.17,249.68l-2.39,8.56,4.56,6.85-.87,4.16.22,3.18-2.39,5.14-3.04.98-1.3,3.18-4.56,2.45-1.52,3.67,3.04,8.31-1.09,6.11,1.09,3.67-2.17,4.65.87,4.65-2.82,4.65.43,5.38-1.52,2.69,1.52,11,1.52,3.67-1.09,6.36,1.95,4.4-.43,6.11-1.09,3.18-.22,3.42,4.56,6.36-26.93,6.6-2.39-2.45,1.09-4.89-6.51-34.72-4.13-3.67-1.95,3.91-1.95-5.38,1.74-4.4-6.73-16.38.65-9.29.87-2.45-1.3-4.89.87-5.38-4.78-5.62-1.09-7.82.87-3.67-3.04-2.2,1.3-4.65-1.74-4.16,59.28-16.87,2.61,5.62Z"/>
    <path id="Virginia" class="cls-60" d="M1791.19,648.26l-2.39,6.85,1.09,2.69.87-2.69,1.74-7.58-1.3.73ZM1716.05,631.15l-1.52-2.45,2.17-.24,2.17-2.2.87-4.4-.43-1.22.22-1.22-.65-1.71-1.3-1.22-.87-.24-1.09-.98-1.3-1.47h-2.17l-1.3-.24-.87-.98.22-1.22-3.69-1.47-1.74.73-2.61-.24-1.52-1.71-1.09-.49-.43-1.71,1.3-1.96v-2.2l-2.61-.49-2.17-2.2-1.95.24-3.47-.73-.87,1.71-.87,3.91-1.09,5.62-21.72-12.72-.43,2.2,1.95,3.91-1.74,5.62.22,7.09-2.61,1.96-1.09,5.14-1.95,1.96-3.04,4.4-1.95,1.96-2.17,6.11-5.21-2.69-4.99,20.78-2.82,3.91-6.08-1.22-2.82-4.65-4.99-1.71-.22,11.49-3.04,4.16.87,3.67-4.56,5.38.87,4.65-8.03,15.41-2.17,8.07,3.26,2.93-3.26,4.65.22,3.42-4.99,4.89-1.52-2.69-9.34,7.58-3.26-2.45-1.3,3.42,1.74,1.22-1.09,2.2-11.94,5.87-6.51-4.4-1.74,4.16-4.13,4.4-4.99.24-9.55-5.62-.22-3.67-3.26-1.71,1.74-2.93-1.52-1.47-10.64,16.14-6.3,2.45-6.51,7.34-.87,5.38-4.56,3.18-.22,4.16-3.04,3.42-3.91,1.22-1.09,4.65-2.17.98-14.98,10.27,62.76-8.07.43-2.45,9.99-1.22-.65,1.71,63.84-8.56,85.56-17.85,63.19-14.92-1.3-2.93.87-.24,1.95,2.2-.22-3.42-.65-4.65,3.47,2.93,1.95,5.14v-3.18l-7.38-13.45v-2.93l-1.52-1.96-2.82,1.71,1.09,3.42h-1.74l-.87-2.45-1.3,2.2-1.95-2.69-4.56-.24-.43,1.71,3.26,5.14-3.04-1.71-1.09-2.45-.87,1.96-1.74.24-3.26,4.16.65-3.91v-3.42l-3.26-1.71-3.91-1.22-.43-4.16-1.3-3.18-1.3,2.69-3.69-2.45-4.34.73.43-2.2,3.26-.49,1.95,1.22,3.69-1.96,1.95.98,1.09,2.45v1.71l4.13.98.65,2.2,1.95.98,1.95,2.93,3.04-3.91h1.3l-.22-5.14-2.82,2.45-1.3-2.2,3.26-.49-2.61-2.2-2.61,1.47-.22-4.16-3.69.49-4.78-2.69-3.91-5.38,7.82,5.38,1.95.73,3.69-1.96-3.69-2.2,1.3-1.47-2.17-1.22,1.74-.49-.65-2.2,2.39,2.2.87-1.96.87,3.18,2.61,1.96,1.3-1.22-1.09-1.47-.22-6.11-2.39-.24-3.47-1.96,1.95-2.69-4.34-.24-.87-1.22-3.04,1.47-3.04-1.96-1.09-2.93-4.56-2.93-4.56-4.4-4.78-4.65,6.51,3.18,1.95,2.93,4.56,1.71,4.99,6.11.43-4.16,1.3,3.18,4.99,1.22v-9.78l-1.74-2.69,2.39.98.22-3.91-6.73-3.42-3.47-.49-2.82-.49.65-2.93-3.26-.73-.22-1.47h-3.91l-.43,1.96-1.52-2.45h-5.86l-2.17-.98-.43-2.45-2.61-1.47-.87-3.67-1.3-.98-1.52,2.69-1.95.49-1.95,1.71h-3.26l-1.95-3.18.87-7.58,1.09-5.87,1.3,1.22.65-.98ZM1763.61,659.51l1.95-.24v-1.47l-1.74.24-.22,1.47ZM1779.9,694.23l-2.17,6.6,2.61-3.18-.43-3.42ZM1775.99,656.82l1.52.73-.43,4.65-1.09-1.22-2.82,2.45,2.17.98-3.91,10.76.22,19.81,4.13,7.58,1.09-3.67.87-6.6-.65-5.62,1.52-2.2-.43-3.42,2.61-1.47-1.3-1.22,1.09-1.71,1.74,2.69-.43,2.69-.87,9.54,2.39-5.38.87-7.58.22-7.34-.65-4.89,1.3-5.62,2.39-4.4.22-5.38.65-2.2-9.99,3.91-1.52,1.96-.87,2.2Z"/>
    <path id="Washington" class="cls-60" d="M330.18,203.71l1.52,9.78-2.39,10.51-65.8-17.85-6.08,2.45-11.73-2.2-3.91-2.2-3.26,2.93-7.17-.98-9.77,1.22-1.95,1.71-9.12-.98-1.74-3.91-2.61-.49-9.55,3.18-3.47-2.69-4.78,1.96-.43-4.4-4.99-2.93-3.26-.49-2.17-2.69-6.51.73-2.61-1.96h-2.61l-2.61,2.2-11.94,1.71-14.33-10.27,2.39-13.69-.87-10.03-6.95-9.05-8.03.24-.87-2.69.87-2.93-1.52-1.96-2.17.24-4.56-3.67-2.61.98-4.34-.24-1.52-3.67-3.47-.73,5.43-18.34-1.52,14.67,1.09,1.22v-4.89l1.74-.49,2.39,5.62-1.09-5.38,2.61-10.27,3.91.98-2.39-4.89-2.17.73-3.26-.98.43-10.27.43,3.67,1.95,1.22,1.3-3.91h6.95l-4.78-2.93-3.69-4.65-3.04,3.91,2.61-7.58-.65-11.25-.43-8.8,1.95-14.92-1.09-4.89-3.04-5.14.22-9.78.87-6.6,4.34-5.62-1.52-3.42.43-1.47,1.95.24,16.94,18.58,10.21,4.65,11.07,6.11,6.95-.24.43,7.34,2.17-3.91h1.52l1.3,6.6,1.09-6.36,3.04-.49,1.09,1.71-2.39,1.47.22,3.91,1.52-3.67h2.39l-.87,6.36-2.39-1.96.87,3.42-.22,3.67-1.74,1.71-5.43,7.09,2.61-8.31-3.47.98-.87,5.14-8.25,6.85-.87,2.45-4.56,5.38-.22,2.45h4.78l5.21-.49,1.09-2.2-8.47,1.22v-1.47l5.65-6.85,3.91-1.96,4.13-.49,2.17-3.91,6.51-5.62v-3.42h2.39l.22,9.78h-3.26l-1.3,1.96-2.39-2.2.65,2.69v4.16l-1.52,1.71-.65-3.91-1.74,1.96,1.52,1.47-1.95,2.69h2.82l1.52-1.22.22,4.89-2.17,4.65-1.95,2.45-.22,4.4-2.17-.49-.43-3.42,1.95-2.69-1.74-1.22-1.74,1.71-1.52,5.38-1.74,2.2-.22-4.89,1.74-2.69-.43-2.69-2.61,2.93.22,5.38-1.3.98-4.56-.98-2.82,2.93,4.78-1.47-.43,5.38,2.17-4.4.87,3.42,1.09-2.45,1.52,4.4h1.52l1.52-1.96,1.3-.24,4.34-4.65.43-2.93,1.74,1.47.65,2.2,1.52-.73.22-2.93h2.82l.43-7.09-.22-6.6,1.95.73-1.52-5.14,3.04-1.96.43-5.87,4.99-5.38,2.17.24.65-3.42-2.61-3.42-.22-8.56-1.74,2.2,1.52,7.09-1.3.24-1.3-4.65-1.3-1.22.65-5.62,3.91-.24.65,1.71.65-3.91-3.47-4.16-1.3-3.91-.43,4.89,1.95,2.69-1.52.98-2.17-1.96-3.91,3.18,3.26,1.22.43,5.87-.65,4.4,1.95-3.18,3.04,5.62-.87,4.65h-3.26v-2.93l-3.26-2.93,1.09-7.34-4.13-6.36,5.86-7.34,1.3-10.03h1.95l3.04,7.82v-6.36l2.61.73v-8.07l-1.95-1.96-2.61,6.11-2.17-7.34,2.82-.24-3.26-11.98,4.13-1.47,55.16,18.34,68.84,19.56,51.25,13.45-27.58,137.18ZM159.28,107.37h1.09l.22,1.96-1.09.73.22,1.47-1.52.98-.43-2.2,1.09-.98.43-1.96ZM170.14,96.85l-2.61,4.65-.22,1.96.87.49,1.09-1.47,2.39.24-1.52-5.87ZM169.27,44.03l1.09,1.47,2.82-.73.43-2.45,2.61-4.4-2.17-.98-1.52,3.91-.22-3.91-2.39.49-1.52,3.42.87,3.18ZM176.22,30.58l1.52,3.67-1.95.49-1.74.98-.43-5.87,2.61.73ZM170.36,26.67l-2.39-.49,1.09,3.42,1.3-2.93ZM168.18,32.78l1.74.98-.87,2.69,3.69-1.22-.43-5.38-1.95-.49-2.17,3.42ZM162.32,31.81l.65,6.6,3.47,3.18,1.3-4.65-2.39-5.38-3.04.24ZM166.45,29.12l-2.39-2.45-1.95.24,3.91,3.67.43-1.47ZM173.4,12h-2.61v1.96l2.61,1.47v-3.42ZM171.44,91.47l.87-6.6h-2.39l-.43,4.65,1.95,1.96Z"/>
    <path id="Virginia_Occidental" data-name="Virginia Occidental" class="cls-60" d="M1549.5,726.76l-1.74,2.93,3.26,1.71.22,3.67,9.55,5.62,4.99-.24,4.13-4.4,1.74-4.16,6.51,4.4,11.94-5.87,1.09-2.2-1.74-1.22,1.3-3.42,3.26,2.45,9.34-7.58,1.52,2.69,4.99-4.89-.22-3.42,3.26-4.65-3.26-2.93,2.17-8.07,8.03-15.41-.87-4.65,4.56-5.38-.87-3.67,3.04-4.16.22-11.49,4.99,1.71,2.82,4.65,6.08,1.22,2.82-3.91,4.99-20.78,5.21,2.69,2.17-6.11,1.95-1.96,3.04-4.4,1.95-1.96,1.09-5.14,2.61-1.96-.22-7.09,1.74-5.62-1.95-3.91.43-2.2,21.72,12.72,1.09-5.62.87-3.91.87-1.71-1.95-.98.43-3.91-2.17-1.22-.43-1.71h-1.52l-1.74-2.93.43-2.45-5.65.98-4.78-3.91-3.04.73-1.95,3.42h-2.82l-3.69,7.09-7.17.98-4.13-2.45-5.65,9.29-4.78-.73-6.73,9.54-1.95,3.91-3.91,3.91-3.69-27.88-37.78,7.09-6.95-48.17-4.78,2.93,3.04,5.14-.22,5.38,1.3,4.89-2.39,8.31-.22,13.2-2.17,8.8,1.09,2.69-.87,5.38-2.39,1.22-4.34,8.07-3.91,4.89h-1.3l-3.91,4.16-2.82-2.93-3.26,4.4-.65,2.93h-2.82l-2.82,5.38.22,5.14-2.17,1.22,3.04,2.69v4.65l-2.17.49-1.52,1.96-2.17,1.22-1.3-5.14-3.47-1.22-2.17,5.62-.65,5.38-2.39,3.18,2.82,8.8-3.26,1.96-.87,8.56h-3.26l-6.95,3.42-.22,2.69,1.3,2.45-1.3,8.8,4.13,3.91,1.74,2.69,2.17,1.47-.22,2.2,9.55,13.69h3.04l3.26,4.4,2.61.73,3.04-.24,1.52,1.47Z"/>
    <path id="Wisconsin" class="cls-60" d="M1305.42,351.41l-6.3,1.96.43,5.62-5.21,8.31-.43,7.58,1.3,1.71,1.74-1.71,1.09-3.91,4.34-2.69,3.47-10.27,7.6-2.69,1.74-8.07,1.52-2.2.87-5.14,3.91-2.69v-3.67l2.17-2.2,3.04.24v4.89l-2.17.24,1.09,2.93-1.52,5.38-1.3.24-2.61,11-1.52,1.22-6.08,17.61-.65,10.27,1.3,4.89.22,3.18-5.21,4.65.65,4.65-1.95,7.58.65,3.91.87,9.05-2.39,10.03-3.26,12.23,2.17,3.67-.65.73,1.74,4.16-1.09,2.69,2.39,2.2v6.6l2.82,3.67-.87,7.34.65,9.78-99.67,6.85-2.82-6.85-7.17-1.71-5.86-3.67-4.34-13.45.22-6.11,3.47-8.07-1.3-2.69-4.56-3.91-.43-6.36-2.39-11-.43-7.34-4.78-7.34-6.08-1.71-11.29-8.8-1.3-8.07-13.68-7.58-.43-3.18h-7.17l-4.78-6.36-4.34-3.18,1.52-12.47-1.95-3.91,1.09-13.2,2.17-4.4-.65-6.6-2.61-3.18-3.91-.73v-4.16l6.08-14.18,12.81-9.54-.87-31.79,1.95.98,1.3-1.22.22-2.69,1.95-1.47,3.04,2.93,1.52-.24h5.65l14.77-6.36.65-2.45h2.61l1.52-2.93.87,1.96,3.91-2.2,3.91-4.16.65,1.22,2.17-2.45,4.78,3.91-1.74,3.91-2.61,3.42,1.09,3.67-3.04,3.91.87,2.2,4.99-2.69v-3.42l7.17,4.65,4.13,1.71,4.13,1.71,6.51,9.29,36.92,9.29,3.04,2.45,8.69,1.96,1.52,1.22,6.08-.49,10.64,1.96,3.04,3.67-2.17,2.45,1.74,1.96,8.25,1.71,2.61,2.93.22,10.76-2.82,6.85,4.34.24,2.17-1.96,1.95,1.96-2.39,7.58,2.17,3.91,2.61.73-.65,7.34ZM1197.93,260.2l-1.09.24-3.26,3.91.43,1.22,3.26-1.47v-1.47l1.95-.73-1.3-1.71ZM1201.4,257.51l-2.17.73-.43,1.71,1.95-.24.65-2.2ZM1198.58,253.59l-.43,2.2h3.69l1.3-.98.22-2.45-4.78,1.22ZM1204.66,246.26l-.65,4.65,2.61-1.22.22-3.42h-2.17ZM1331.26,324.26l-4.34.73-.87,3.18,2.82,4.16,2.39-8.07Z"/>
    <path id="Wyoming" class="cls-60" d="M750.16,350.67l-110.75-12.96-124.43-19.32-4.34,26.16-18.46,134-7.17,53.55,69.71,11.74,97.5,13.94,81.43,8.31,8.03-108.08,8.47-107.35Z"/>
    <circle id="Washington_DC" data-name="Washington DC" class="cls-60" cx="1715.07" cy="612.68" r="21.5"/>
  </g>
  <g id="etiquetas">
    <g id="etiqueta-oregon">
      <text class="cls-19" transform="translate(108.33 304.99) scale(1.01 1)"><tspan x="0" y="0">Oregn</tspan></text>
      <g>
        <rect id="rectangulo-oregon" class="cls-59" x="161.13" y="324.79" width="62.95" height="53.13"/>
        <text class="cls-26" transform="translate(178.47 365.58) scale(1.01 1)"><tspan x="0" y="0">8</tspan></text>
      </g>
    </g>
    <g id="etiqueta-california">
      <text>
        <textPath startOffset="6.57%" xlink:href="#path"><tspan class="cls-11"><tspan x="0" y="0">California</tspan></tspan>
        </textPath></text>
      <g>
        <rect id="rectangulo-california" class="cls-59" x="153.94" y="787.03" width="62.95" height="53.13"/>
        <text class="cls-3" transform="translate(159.67 827.82) scale(1.01 1)"><tspan x="0" y="0">20</tspan></text>
      </g>
    </g>
    <g id="etiqueta-nevada">
      <text class="cls-57" transform="translate(188.04 549.03) scale(1.01 1)"><tspan x="0" y="0">Nevada</tspan></text>
      <g>
        <rect id="rectangulo-nevada" class="cls-59" x="219.35" y="568.11" width="62.95" height="53.13"/>
        <text class="cls-9" transform="translate(236.7 608.9) scale(1.01 1)"><tspan x="0" y="0">6</tspan></text>
      </g>
    </g>
    <g id="etiqueta-arizona">
      <text class="cls-19" transform="translate(341.75 885.5) scale(1.01 1)"><tspan x="0" y="0">Arizona</tspan></text>
      <g>
        <rect id="rectangulo-arizona" class="cls-59" x="375.2" y="902.57" width="62.95" height="53.13"/>
        <text class="cls-47" transform="translate(380.93 943.36) scale(1.01 1)"><tspan x="0" y="0">11</tspan></text>
      </g>
    </g>
    <g id="etiqueta-nuevo-mexico">
      <text class="cls-57" transform="translate(559.36 885.93) scale(1.01 1)"><tspan x="0" y="0">Nuevo</tspan><tspan x="-4.56" y="31.52">Mxico</tspan></text>
      <g>
        <rect id="rectangulo-nuevo-mexico" class="cls-59" x="577.39" y="939.73" width="62.95" height="53.13"/>
        <text class="cls-29" transform="translate(594.73 980.53) scale(1.01 1)"><tspan x="0" y="0">5</tspan></text>
      </g>
    </g>
    <g id="etiqueta-texas">
      <text class="cls-57" transform="translate(843.47 1100.44) scale(1.01 1)"><tspan x="0" y="0">Texas</tspan></text>
      <g>
        <rect id="rectangulo-texas" class="cls-59" x="865.52" y="1117.26" width="62.95" height="53.13"/>
        <text class="cls-18" transform="translate(871.25 1158.06) scale(1.01 1)"><tspan x="0" y="0">40</tspan></text>
      </g>
    </g>
    <g id="etiqueta-alaska">
      <text class="cls-19" transform="translate(185.82 1334.54) scale(1.01 1)"><tspan x="0" y="0">Alaska</tspan></text>
      <g>
        <rect id="rectangulo-alaska" class="cls-59" x="213.54" y="1348.43" width="62.95" height="53.13"/>
        <text class="cls-48" transform="translate(230.89 1389.22) scale(1.01 1)"><tspan x="0" y="0">3</tspan></text>
      </g>
    </g>
    <g id="etiqueta-hawai">
      <text class="cls-57" transform="translate(575.07 1467.56) scale(1.01 1)"><tspan x="0" y="0">Hawai</tspan></text>
      <g>
        <rect id="rectangulo-hawai" class="cls-59" x="594.15" y="1481.82" width="62.95" height="53.13"/>
        <text class="cls-35" transform="translate(611.49 1522.62) scale(1.01 1)"><tspan x="0" y="0">4</tspan></text>
      </g>
    </g>
    <g id="etiqueta-luisiana">
      <text class="cls-19" transform="translate(1125.34 1167.96) scale(1.01 1)"><tspan x="0" y="0">Luisiana</tspan></text>
      <g>
        <rect id="rectangulo-luisiana" class="cls-59" x="1165.22" y="1185.18" width="62.95" height="53.13"/>
        <text class="cls-23" transform="translate(1182.57 1225.98) scale(1.01 1)"><tspan x="0" y="0">8</tspan></text>
      </g>
    </g>
    <g id="etiqueta-colorado">
      <text class="cls-57" transform="translate(567.08 689.68) scale(1.01 1)"><tspan x="0" y="0">Colorado</tspan></text>
      <g>
        <rect id="rectangulo-colorado" class="cls-59" x="608.86" y="702.19" width="62.95" height="53.13"/>
        <text class="cls-13" transform="translate(614.59 742.98) scale(1.01 1)"><tspan x="0" y="0">10</tspan></text>
      </g>
    </g>
    <g id="etiqueta-utah">
      <text class="cls-57" transform="translate(397.44 647.09) scale(1.01 1)"><tspan x="0" y="0">Utah</tspan></text>
      <g>
        <rect id="rectangulo-utah" class="cls-59" x="404.21" y="656.08" width="62.95" height="53.13"/>
        <text class="cls-30" transform="translate(421.55 696.88) scale(1.01 1)"><tspan x="0" y="0">6</tspan></text>
      </g>
    </g>
    <g id="etiqueta-idaho">
      <text class="cls-19" transform="translate(330.1 356.28) scale(1.01 1)"><tspan x="0" y="0">Idaho</tspan></text>
      <g>
        <rect id="rectangulo-idaho" class="cls-59" x="343.72" y="366.66" width="62.95" height="53.13"/>
        <text class="cls-20" transform="translate(361.06 407.46) scale(1.01 1)"><tspan x="0" y="0">4</tspan></text>
      </g>
    </g>
    <g id="etiqueta-montana">
      <text class="cls-57" transform="translate(516.37 216.47) scale(1.01 1)"><tspan x="0" y="0">Montana</tspan></text>
      <g>
        <rect id="rectangulo-montana" class="cls-59" x="555.58" y="229.38" width="62.95" height="53.13"/>
        <text class="cls-5" transform="translate(572.92 270.18) scale(1.01 1)"><tspan x="0" y="0">4</tspan></text>
      </g>
    </g>
    <g id="etiqueta-wyoming">
      <text class="cls-57" transform="translate(537.85 452.56) scale(1.01 1)"><tspan x="0" y="0">Wyoming</tspan></text>
      <g>
        <rect id="rectangulo-wyoming" class="cls-59" x="583.9" y="463.39" width="62.95" height="53.13"/>
        <text class="cls-21" transform="translate(601.25 504.19) scale(1.01 1)"><tspan x="0" y="0">3</tspan></text>
      </g>
    </g>
    <g id="etiqueta-dakotadelnorte">
      <text class="cls-11" transform="translate(811.32 190.79) scale(1.01 1)"><tspan class="cls-62"><tspan x="0" y="0">Dakota</tspan></tspan><tspan class="cls-63"><tspan x="-14.84" y="35.41">del Norte</tspan></tspan></text>
      <g>
        <rect id="rectangulo-dakotadelnorte" class="cls-59" x="833.96" y="233.25" width="62.95" height="53.13"/>
        <text class="cls-44" transform="translate(851.3 274.05) scale(1.01 1)"><tspan x="0" y="0">3</tspan></text>
      </g>
    </g>
    <g id="etiqueta-dakotadelsur">
      <text class="cls-11" transform="translate(798.65 348.19) scale(1.01 1)"><tspan class="cls-62"><tspan x="0" y="0">Dakota</tspan></tspan><tspan class="cls-63"><tspan x=".84" y="35.41">del Sur</tspan></tspan></text>
      <g>
        <rect id="rectangulo-dakotadelsur" class="cls-59" x="826.14" y="393.7" width="62.95" height="53.13"/>
        <text class="cls-17" transform="translate(843.48 434.5) scale(1.01 1)"><tspan x="0" y="0">3</tspan></text>
      </g>
    </g>
    <g id="etiqueta-minnesota">
      <text class="cls-57" transform="translate(978.06 242.39) scale(1.01 1)"><tspan x="0" y="0">Minnesota</tspan></text>
      <g>
        <rect id="rectangulo-minnesota" class="cls-59" x="1026.9" y="261.05" width="62.95" height="53.13"/>
        <text class="cls-22" transform="translate(1032.63 301.84) scale(1.01 1)"><tspan x="0" y="0">10</tspan></text>
      </g>
    </g>
    <g id="etiqueta-iowa">
      <text class="cls-19" transform="translate(1058.68 489.04) scale(1.01 1)"><tspan x="0" y="0">Iowa</tspan></text>
      <g>
        <rect id="rectangulo-iowa" class="cls-59" x="1066.28" y="500.59" width="62.95" height="53.13"/>
        <text class="cls-46" transform="translate(1083.62 541.39) scale(1.01 1)"><tspan x="0" y="0">6</tspan></text>
      </g>
    </g>
    <g id="etiqueta-kansas">
      <text class="cls-19" transform="translate(848.82 695.87) scale(1.01 1)"><tspan x="0" y="0">Kansas</tspan></text>
      <g>
        <rect id="rectangulo-kansas" class="cls-59" x="884.63" y="708.53" width="62.95" height="53.13"/>
        <text class="cls-41" transform="translate(901.97 749.33) scale(1.01 1)"><tspan x="0" y="0">6</tspan></text>
      </g>
    </g>
    <g id="etiqueta-oklahoma">
      <text class="cls-19" transform="translate(879.11 880.61) scale(1.01 1)"><tspan x="0" y="0">Oklahoma</tspan></text>
      <g>
        <rect id="rectangulo-oklahoma" class="cls-59" x="922.55" y="891.31" width="62.95" height="53.13"/>
        <text class="cls-36" transform="translate(939.9 932.11) scale(1.01 1)"><tspan x="0" y="0">7</tspan></text>
      </g>
    </g>
    <g id="etiqueta-arkansas">
      <text class="cls-19" transform="translate(1072.84 880.9) scale(1.01 1)"><tspan x="0" y="0">Arkansas</tspan></text>
      <g>
        <rect id="rectangulo-arkansas" class="cls-59" x="1117.23" y="899.28" width="62.95" height="53.13"/>
        <text class="cls-32" transform="translate(1134.58 940.08) scale(1.01 1)"><tspan x="0" y="0">6</tspan></text>
      </g>
    </g>
    <g id="etiqueta-missouri">
      <text class="cls-57" transform="translate(1081.63 713.84) scale(1.01 1)"><tspan x="0" y="0">Missouri</tspan></text>
      <g>
        <rect id="rectangulo-missouri" class="cls-59" x="1116.8" y="733.35" width="62.95" height="53.13"/>
        <text class="cls-27" transform="translate(1122.53 774.15) scale(1.01 1)"><tspan x="0" y="0">10</tspan></text>
      </g>
    </g>
    <g id="etiqueta-illinois">
      <text class="cls-19" transform="translate(1206.78 615.1) scale(1.01 1)"><tspan x="0" y="0">Illinois</tspan></text>
      <g>
        <rect id="rectangulo-illinois" class="cls-59" x="1230.69" y="627.59" width="62.95" height="53.13"/>
        <text class="cls-4" transform="translate(1236.42 668.39) scale(1.01 1)"><tspan x="0" y="0">19</tspan></text>
      </g>
    </g>
    <g id="etiqueta-wisconsin">
      <text class="cls-57" transform="translate(1127.15 356.28) scale(1.01 1)"><tspan x="0" y="0">Wisconsin</tspan></text>
      <g>
        <rect id="rectangulo-wisconsin" class="cls-59" x="1200.08" y="372.67" width="62.95" height="53.13"/>
        <text class="cls-50" transform="translate(1205.81 413.47) scale(1.01 1)"><tspan x="0" y="0">10</tspan></text>
      </g>
    </g>
    <g id="etiqueta-michigan">
      <text class="cls-57" transform="translate(1345.07 432.15) scale(1.01 1)"><tspan x="0" y="0">Michigan</tspan></text>
      <g>
        <rect id="rectangulo-michigan" class="cls-59" x="1385.75" y="443.2" width="62.95" height="53.13"/>
        <text class="cls-28" transform="translate(1391.48 484) scale(1.01 1)"><tspan x="0" y="0">15</tspan></text>
      </g>
    </g>
    <g id="etiqueta-indiana">
      <text class="cls-19" transform="translate(1316.54 614.44) scale(1.01 1)"><tspan x="0" y="0">Indiana</tspan></text>
      <g>
        <rect id="rectangulo-indiana" class="cls-59" x="1342.2" y="626.25" width="62.95" height="53.13"/>
        <text class="cls-39" transform="translate(1347.93 667.05) scale(1.01 1)"><tspan x="0" y="0">11</tspan></text>
      </g>
    </g>
    <g id="etiqueta-ohio">
      <text class="cls-19" transform="translate(1439.9 559.47) scale(1.01 1)"><tspan x="0" y="0">Ohio</tspan></text>
      <g>
        <rect id="rectangulo-ohio" class="cls-59" x="1446.99" y="567.48" width="62.95" height="53.13"/>
        <text class="cls-53" transform="translate(1452.72 608.28) scale(1.01 1)"><tspan x="0" y="0">17</tspan></text>
      </g>
    </g>
    <g id="etiqueta-pensilvania">
      <text class="cls-19" transform="translate(1567.69 503.06) scale(1.01 1)"><tspan x="0" y="0">Pensilvania</tspan></text>
      <g>
        <rect id="rectangulo-pensilvania" class="cls-59" x="1619.62" y="513.52" width="62.95" height="53.13"/>
        <text class="cls-45" transform="translate(1625.35 554.32) scale(1.01 1)"><tspan x="0" y="0">19</tspan></text>
      </g>
    </g>
    <g id="etiqueta-nuevayork">
      <text class="cls-11" transform="translate(1645.02 321.84) scale(1.01 1)"><tspan class="cls-62"><tspan x="0" y="0">Nueva</tspan></tspan><tspan class="cls-63"><tspan x="15.45" y="31.52">York</tspan></tspan></text>
      <g>
        <rect id="rectangulo-nuevayork" class="cls-59" x="1666.3" y="366.57" width="62.95" height="53.13"/>
        <text class="cls-51" transform="translate(1672.03 407.37) scale(1.01 1)"><tspan x="0" y="0">28</tspan></text>
      </g>
    </g>
    <g id="etiqueta-vermont" data-name="etiqueta vermont">
      <path class="cls-61" d="M1803.32,290.01c-22.78-8.47-72.03-30.27-82.45-52.4-.91-2.02-1.43-4.24-1.38-6.44.12,2.2.76,4.33,1.74,6.27,11.02,20.63,60.16,42.48,82.09,52.57h0Z"/>
      <text class="cls-19" transform="translate(1640.36 216.47) scale(1.01 1)"><tspan x="0" y="0">Vermont</tspan></text>
      <g>
        <rect id="rectangulo-vermont" class="cls-59" x="1759.46" y="261.05" width="62.95" height="53.13"/>
        <text class="cls-1" transform="translate(1776.81 301.84) scale(1.01 1)"><tspan x="0" y="0">3</tspan></text>
      </g>
    </g>
    <g id="etiqueta-nuevohampshire">
      <path class="cls-61" d="M1848.51,289.44c-11.21-22.23-21.26-45.04-30.41-68.19-6.65-17.44-13.04-35.09-16.96-53.39-1.22-6.1-2.24-12.3-2.16-18.54.66,12.44,4.27,24.47,7.94,36.3,3.78,11.83,8.03,23.52,12.58,35.08,8.99,23.19,18.9,46.02,29.01,68.74h0Z"/>
      <text class="cls-57" transform="translate(1701.95 108.72) scale(1.01 1)"><tspan x="0" y="0">Nuevo</tspan><tspan x="-34.6" y="31.52">Hampshire</tspan></text>
      <g>
        <rect id="rectangulo-nuevohampshire" class="cls-59" x="1833.95" y="248.21" width="62.95" height="53.13"/>
        <text class="cls-16" transform="translate(1851.29 289.01) scale(1.01 1)"><tspan x="0" y="0">4</tspan></text>
      </g>
    </g>
    <g id="etiqueta-massachusetts">
      <path class="cls-61" d="M1860.64,387.01c12.33-6.17,53.8-24.48,54.75-38.48-.02,1.42-.23,2.91-.89,4.22-7.13,14.85-38.52,28.7-53.86,34.26h0Z"/>
      <text class="cls-57" transform="translate(1905.56 342.51) scale(1.01 1)"><tspan x="0" y="0">Massachusetts</tspan></text>
      <g>
        <rect id="rectangulo-massachusetts" class="cls-59" x="1822" y="357.72" width="62.95" height="53.13"/>
        <text class="cls-8" transform="translate(1827.73 398.52) scale(1.01 1)"><tspan x="0" y="0">11</tspan></text>
      </g>
    </g>
    <g id="etiqueta-rhode-island">
      <path class="cls-61" d="M1878.23,423.2c30.62-6.17,61.76-10.44,93.02-11.2-30.12,2.69-62.94,7.16-93.02,11.2h0Z"/>
      <text class="cls-11" transform="translate(2021.35 404.5) scale(1.01 1)"><tspan class="cls-62"><tspan x="0" y="0">Rhode</tspan></tspan><tspan class="cls-63"><tspan x="6.27" y="35.41">Island</tspan></tspan></text>
      <g>
        <rect id="rectangulo-rhode-island" class="cls-59" x="1936.54" y="384.29" width="62.95" height="53.13"/>
        <text class="cls-31" transform="translate(1953.89 425.09) scale(1.01 1)"><tspan x="0" y="0">4</tspan></text>
      </g>
    </g>
    <g id="etiqueta-connecticut">
      <path class="cls-61" d="M1817.49,440.81c12.22,26.16,34.97,51.69,65.74,52.57-.98.02-3.25,0-4.19,0-.84-.07-3.3-.25-4.19-.33-27.64-3.44-47.86-27.52-57.36-52.25h0Z"/>
      <text class="cls-57" transform="translate(1949.59 496.11) scale(1.01 1)"><tspan x="0" y="0">Connecticut</tspan></text>
      <g>
        <rect id="rectangulo-connecticut" class="cls-59" x="1868.85" y="456.06" width="62.95" height="53.13"/>
        <text class="cls-33" transform="translate(1886.19 496.86) scale(1.01 1)"><tspan x="0" y="0">7</tspan></text>
      </g>
    </g>
    <g id="etiqueta-nuevajersey">
      <path class="cls-61" d="M1792.24,549.87c26.28,4.09,53.24,3,79.54-.33,3.78-.46,7.53-1.11,11.31-1.59-1.86.41-3.72.81-5.59,1.19-26.93,5.52-58.39,7.01-85.27.73h0Z"/>
      <text class="cls-57" transform="translate(1917.78 564.81) scale(1.01 1)"><tspan x="0" y="0">Nueva Jersey</tspan></text>
      <g>
        <rect id="rectangulo-nuevajersey" class="cls-59" x="1832.07" y="524.02" width="62.95" height="53.13"/>
        <text class="cls-25" transform="translate(1837.8 564.81) scale(1.01 1)"><tspan x="0" y="0">14</tspan></text>
      </g>
    </g>
    <g id="etiqueta-delaware">
      <path class="cls-61" d="M1769.01,611.24c23.31,5.9,47.31,11.6,70.95,15.98,9.37,1.61,19.31,3.29,28.76,4.16,4.83.51,9.66.73,14.51.89-19.45.76-38.82-2.69-57.84-6.39-19.02-3.98-37.87-8.75-56.38-14.64h0Z"/>
      <text class="cls-57" transform="translate(1929.93 642.55) scale(1.01 1)"><tspan x="0" y="0">Delaware</tspan></text>
      <g>
        <rect id="rectangulo-delaware" class="cls-59" x="1851.94" y="605.71" width="62.95" height="53.13"/>
        <text class="cls-10" transform="translate(1869.28 646.51) scale(1.01 1)"><tspan x="0" y="0">3</tspan></text>
      </g>
    </g>
    <g id="etiqueta-maryland">
      <path class="cls-61" d="M1773.57,637.29c17.56,11.28,35.18,22.5,53.23,32.99,8.98,5.3,18.11,10.36,27.42,15.04,9.34,4.49,18.82,9.3,29.19,10.77-2.6-.18-5.21-.56-7.73-1.28-17.67-4.95-33.75-14.29-49.64-23.23-17.99-10.64-35.57-21.99-52.48-34.28h0Z"/>
      <text class="cls-57" transform="translate(1925.77 711.75) scale(1.01 1)"><tspan x="0" y="0">Maryland</tspan></text>
      <g>
        <rect id="rectangulo-maryland" class="cls-59" x="1844.26" y="676.13" width="62.95" height="53.13"/>
        <text class="cls-37" transform="translate(1849.99 716.93) scale(1.01 1)"><tspan x="0" y="0">10</tspan></text>
      </g>
    </g>
    <g id="etiqueta-washingtondc">
      <text class="cls-57" transform="translate(1899.26 788.04) scale(1.01 1)"><tspan x="0" y="0">Washington DC</tspan></text>
      <path class="cls-61" d="M1710.16,616.92c41.71,45.3,87.27,96.38,127.51,143-41.72-45.3-87.27-96.39-127.51-143h0Z"/>
      <g>
        <rect id="rectangulo-washingtondc" class="cls-59" x="1822" y="740.44" width="62.95" height="53.13"/>
        <text class="cls-6" transform="translate(1839.35 781.24) scale(1.01 1)"><tspan x="0" y="0">3</tspan></text>
      </g>
    </g>
    <g id="etiqueta-virginiaoccidental">
      <text class="cls-55" transform="translate(1517.86 632.44) rotate(2.91) scale(1.01 1)"><tspan x="0" y="0">Virginia</tspan><tspan x="21.61" y="31.52">Occ.</tspan></text>
      <g>
        <rect id="rectangulo-virginiaoccidental" class="cls-59" x="1537.51" y="673.67" width="64.73" height="54.63"/>
        <text class="cls-49" transform="translate(1555.34 715.62) scale(1.01 1)"><tspan x="0" y="0">4</tspan></text>
      </g>
    </g>
    <g id="etiqueta-virginia">
      <text class="cls-19" transform="translate(1625.46 739.44) scale(1.01 1)"><tspan x="0" y="0">Virginia</tspan></text>
      <g>
        <rect id="rectangulo-virginia" class="cls-59" x="1650.2" y="646.99" width="64.73" height="54.63"/>
        <text class="cls-14" transform="translate(1656.09 688.94) scale(1.01 1)"><tspan x="0" y="0">13</tspan></text>
      </g>
    </g>
    <g id="etiqueta-carolinadelnorte">
      <text class="cls-11" transform="translate(1552.9 804.28) scale(1.01 1)"><tspan class="cls-62"><tspan x="0" y="0">Carolina</tspan></tspan><tspan class="cls-63"><tspan x="-5.67" y="35.41">del Norte</tspan></tspan></text>
      <g>
        <rect id="rectangulo-carolinadelnorte" class="cls-59" x="1706.14" y="784.2" width="64.73" height="54.63"/>
        <text class="cls-52" transform="translate(1712.04 826.15) scale(1.01 1)"><tspan x="0" y="0">16</tspan></text>
      </g>
    </g>
    <g id="etiqueta-carolinadelsur">
      <text class="cls-11" transform="translate(1625.5 908.89) scale(1.01 1)"><tspan class="cls-62"><tspan x="0" y="0">Carolina</tspan></tspan><tspan class="cls-63"><tspan x="10.01" y="35.41">del Sur</tspan></tspan></text>
      <g>
        <rect id="rectangulo-carolinadelsur" class="cls-59" x="1546.11" y="884.6" width="64.73" height="54.63"/>
        <text class="cls-2" transform="translate(1563.95 926.56) scale(1.01 1)"><tspan x="0" y="0">9</tspan></text>
      </g>
    </g>
    <g id="etiqueta-georgia">
      <text class="cls-19" transform="translate(1464.93 1006.62) scale(1.01 1)"><tspan x="0" y="0">Georgia</tspan></text>
      <g>
        <rect id="rectangulo-georgia" class="cls-59" x="1496.8" y="1015.93" width="64.73" height="54.63"/>
        <text class="cls-42" transform="translate(1502.69 1057.88) scale(1.01 1)"><tspan x="0" y="0">16</tspan></text>
      </g>
    </g>
    <g id="etiqueta-florida">
      <text class="cls-57" transform="translate(1639.86 1254.13) scale(1.01 1)"><tspan x="0" y="0">Florida</tspan></text>
      <g>
        <rect id="rectangulo-florida" class="cls-59" x="1665.42" y="1265.36" width="64.73" height="54.63"/>
        <text class="cls-56" transform="translate(1671.31 1307.31) scale(1.01 1)"><tspan x="0" y="0">30</tspan></text>
      </g>
    </g>
    <g id="etiqueta-kentucky">
      <text class="cls-19" transform="translate(1327.19 771.81) scale(1.01 1)"><tspan x="0" y="0">Kentucky</tspan></text>
      <g>
        <rect id="rectangulo-kentucky" class="cls-59" x="1424.59" y="680.76" width="64.73" height="54.63"/>
        <text class="cls-34" transform="translate(1442.42 722.71) scale(1.01 1)"><tspan x="0" y="0">8</tspan></text>
      </g>
    </g>
    <g id="etiqueta-tennessee">
      <text class="cls-57" transform="translate(1339.58 856.54) scale(1.01 1)"><tspan x="0" y="0">Tennessee</tspan></text>
      <g>
        <rect id="rectangulo-tennessee" class="cls-59" x="1264.43" y="821.73" width="64.73" height="54.63"/>
        <text class="cls-24" transform="translate(1270.32 863.68) scale(1.01 1)"><tspan x="0" y="0">11</tspan></text>
      </g>
    </g>
    <g id="etiqueta-alabama">
      <text class="cls-19" transform="translate(1304.02 932.35) scale(1.01 1)"><tspan x="0" y="0">Alabama</tspan></text>
      <g>
        <rect id="rectangulo-alabama" class="cls-59" x="1343.56" y="947.44" width="64.73" height="54.63"/>
        <text class="cls-12" transform="translate(1361.39 989.39) scale(1.01 1)"><tspan x="0" y="0">9</tspan></text>
      </g>
    </g>
    <g id="etiqueta-misisippi">
      <g>
        <rect id="rectangulo-misisippi" class="cls-59" x="1234.17" y="1016.68" width="62.95" height="53.13"/>
        <text class="cls-7" transform="translate(1251.51 1057.48) scale(1.01 1)"><tspan x="0" y="0">6</tspan></text>
      </g>
      <text class="cls-57" transform="translate(1182.89 1000.8) scale(1.01 1)"><tspan x="0" y="0">Misisippi</tspan></text>
    </g>
    <g id="etiqueta-washington">
      <g>
        <rect id="rectangulo-washington" class="cls-59" x="226.4" y="110.54" width="62.95" height="53.13"/>
        <text class="cls-15" transform="translate(232.13 151.34) scale(1.01 1)"><tspan x="0" y="0">12</tspan></text>
      </g>
      <text class="cls-57" transform="translate(163.86 88.16) scale(1.01 1)"><tspan x="0" y="0">Washington</tspan></text>
    </g>
    <g id="etiqueta-nebraska">
      <text class="cls-57" transform="translate(818.96 540.11) scale(1.01 1)"><tspan x="0" y="0">Nebraska</tspan></text>
      <g>
        <rect id="rectangulo-nebraska-1" class="cls-59" x="832.49" y="552.91" width="62.95" height="53.13"/>
        <text class="cls-43" transform="translate(849.83 593.71) scale(1.01 1)"><tspan x="0" y="0">5</tspan></text>
      </g>
      <g>
        <rect id="rectangulo-nebraska-2" class="cls-59" x="897.15" y="552.91" width="62.95" height="53.13"/>
        <text class="cls-40" transform="translate(914.49 593.71) scale(1.01 1)"><tspan x="0" y="0">5</tspan></text>
      </g>
    </g>
    <g id="etiqueta-maine">
      <g>
        <text class="cls-57" transform="translate(1885.39 135.29) scale(1.01 1)"><tspan x="0" y="0">Maine</tspan></text>
        <g>
          <rect id="rectangulo-maine-1" class="cls-59" x="1877.38" y="143.8" width="62.95" height="53.13"/>
          <text class="cls-38" transform="translate(1894.72 184.59) scale(1.01 1)"><tspan x="0" y="0">4</tspan></text>
        </g>
      </g>
      <g>
        <rect id="rectangulo-maine-2" class="cls-59" x="1940.09" y="143.8" width="62.95" height="53.13"/>
        <text class="cls-54" transform="translate(1957.43 184.59) scale(1.01 1)"><tspan x="0" y="0">4</tspan></text>
      </g>
    </g>
  </g>
</svg>