<?xml version="1.0" encoding="UTF-8"?>
<svg id="Capa_1" data-name="Capa 1" xmlns="http://www.w3.org/2000/svg" version="1.1" viewBox="0 0 2210.5 1552.8">
  <defs>
    <style>
      .cls-1 {
        fill: #545454;
        stroke-width: 0px;
      }

      .cls-2 {
        fill: none;
        stroke: #000;
      }

      .cls-2, .cls-3, .cls-4 {
        stroke-miterlimit: 10;
        stroke-width: 2px;
      }

      .cls-3 {
        fill: #000e89;
      }

      .cls-3, .cls-4 {
        stroke: #fff;
      }

      .cls-4 {
        fill: #ca1504;
      }
    </style>
  </defs>
  <g id="lineas">
    <polyline class="cls-2" points="107.6 1115.2 349.6 1115.2 466.6 1247.2 466.6 1418.2 557.1 1508.7"/>
    <polyline class="cls-2" points="466.6 1312.2 713.6 1312.2 913.6 1505.2"/>
  </g>
  <path id="Alabama" class="cls-4" d="M1374.9,1142.2l.9-17.8-1.9-2.9-3.7-1.7-5.4-6.8,1.1-7.1,106-12.5-1.5-5.4-3.3-3.7-1.1-3.4,1.3-15.4-5.2-13.9,1.1-6.4.7-9.1,4.8-9.3-.4-2.7-3.7-2.5v-7.8l-3.9-4.7-6.3-14.9-28-112-99.2,9.8,2.8,4.9-2.8,163.8,9.6,81.2,1.9-1.2,2.8.2,1.3,1,1.7-.2,4.3-9.3v-5.6l2.4-2.7,3,1.2,7.4,15.7v2.2l-7.2,5.4,7.6-1,10.6-3.9,2.4-1.5h0Z"/>
  <path id="Alaska" class="cls-4" d="M43.2,1506.4h5.2l1.5,1.7-2.2,2.9-4.1.5-5.4,3.2-8-.2,4.8-2.2.7-2.7,5.4-.7,2.2-2.4h0ZM61.3,1502.2l2.8,1.2h1.9l1.1,2.9.7-1.5,1.9.5,2.4,3.7v1.2l-9.1,4.7-5.2-.2-2.2-1.2-2.4,1.7h-4.3l-2.4-3.4,10.2-1.2,4.6-8.3h0ZM73,1502l2.2.2,1.5,1.7v2.4l-2.8.2-1.9-2.7,1.1-2h0ZM78.4,1502.7l2.8-.2-.2,2.4-2.4,1.5-.2-3.7h0ZM79.1,1508.1l7.4-.2.4,2.7-2.8.2-.7-1.2-1.7,1.5-.9-1.5-1.9-.5.2-1ZM440.2,1526.7l4.6.2-2.2,4.7-2.4-.2-.9-2,1.1-3.2M438,1519.1l1.3-3.2-.4-5.6,5.2-1.2,9.8,10.8,2.8,8.3,4.1,3.9.6,12.5h-3l-2.8-5.6-6.7-5.9h-1.3l2.4,6.8,3.7.5.4,5.1-2,.2-8.9-10.8-.2-2.2,4.1-2.4v-2.4l-1.1-2-3.5-1.5-3.7-3.2,3,.2,1.1-1-1.3-2.2-1.3,1.2-2.4-.5h0ZM430.2,1496.9l2.8.2,5.2,6.1-.4,2-1.7-.2-.2,4.4,1.1,1.2v3.7l-1.7.7-.9,2.9-1.7-1-.9-5.4,2.4-3.4-4.6-5.4.2-2.9.4-2.9h0ZM433.5,1493.2l4.1.5,5.4.2,7.4,7.8-.4,1.2-2.4,1.5-2.4-.5-.2-1.7-2.6-3.9-.6,1.7,2.2,3.2-.4,2.9-1.7-.2-2.8.5-.2-4.2-5.6-6.8.4-2.2h0ZM405.9,1471.4l2-1h3.5l1.5-1.2,8.9,5.4.2,3.7-1.1,1.2h-1.7l-3-1.7,2.4,3.2h3.9l1.1,4.9h-2l-4.8-3.7-2.4-.5,1.3,3.2.2,2.2,1.7-1.5,3.7,2.9,2.8-.2-.4,2,4.1,10.5v8.3l.9,5.1-1.7.7-2.6-4.9-1.1-3.7-3.5-3.9-.4-6.6-1.3-4.2h-1.5l.6,2.7v1.2l-3,2.4.2-8.1-3.5-3.9-2.8-5.6-2.6-2.9.4-6.1h0ZM421.5,1465.8l2.4,4.4,5.2-.2,2.2,5.1-1.3,1.5,4.3,7.8v3.2l-2.6,2v1.7l-4.3,4.7-1.1-3.4-.2-3.2,1.3-1.7v-2.7l-3.3-4.7-1.1-9.1-2-3.7.4-1.7h0ZM298.4,1421.1l-8.7,10v3.9l4.6-2,1.7-4.7,4.8-5.9-2.4-1.5h0ZM229.8,1461.7v1.5l3.9,2.9.4-3.4,1.3,2.2,7.6.2,1.5-1.5.4-4.4-1.1-1.7h-3v-2l.9-1.5v-1l-3.3-.7-7.2,8.8-1.5.5h0ZM212.2,1476.8l3.3,14.2h4.6l5.2-6.1.6,2.9,13.7-9.8,1.5-2.4-2.2-2.7v-1.7l1.1-3.2-1.9-.2-4.3,2.4v-2.9l-5.9-1.5-5.2.7-.4,8.3-1.7-4.9-3.3-.2-2.2,1.5-2.8,5.6h0ZM207.4,1496.9l.2-1.7,4.6-3.2,1.3.7,2.8.5,2.8,2.9-4.8-.5-.9-1.5-2.2,1.5-3.9,1.2h0ZM196.1,1504.9l-2.4,2,3.3,3.4,1.7-1.7-.2-3.2-2.4-.5ZM182.4,1485.6l3,.2.9,1.5-3.9.2v-2h0ZM152.3,1514.7v1.2l1.5.2-.2-1.5h-1.3ZM151.4,1506.9l-2.2,2.4v1.2l1.5,2.7,2.2-2.4-1.5-.2v-3.7h0ZM147.1,1504.9l-.6,2.4-2.8.2-.9.5v3.2l-1.1,2.2h1.3l1.5-2.2,1.7-.2,1.9-2.4.4-3.2-1.5-.5h0ZM137.5,1500l-.4,4.4,3,2,2.6-1.5v-2.4l3.7-.7-.2-1.5-1.9-.5-1.5,1.5-1.9-1.2h-3.3ZM126.9,1499.8l2.2,1.7-.6,2.9-3-2.7,1.5-2h0ZM117.7,1503l3,.2-1.5,2s-1.5-2.2-1.5-2.2ZM110.1,1510.3l3.9,2.7-3.7.2-.2-2.9h0ZM55,1434l2.6,1.5-1.7,1.5-.9-2.9h0ZM53.5,1418.6l.9,2.9,1.7-2.9h-2.6ZM106.2,1371.4l3.3-.2,1.9,1,2.4-1.2,2.8-.2,3.5,2,1.7,4.7-.2,2.2-2.6,4.9-5.2-.5-4.6-4.4-2.2-1-2.4-4.9,1.5-2.2h0ZM60.4,1336.2l.2,4.7,4.3,4.9v1.2l-1.7-.5-3.7-2-.7-2.7-.7-3.9,2.2-1.7h0ZM100.2,1279.2v2.9l4.1,4.4h5l1.3,2.7v3.9l4.6,4.7,3.9,2.9-.2,1.7-1.5,2.7-3-2.9-4.6.2-1.7-2-1.9-5.1-3.3-5.4-5.7-.2-2.2-1.7,2.2-5.1,3-3.7h0ZM136.6,1268.2h2.2l.2,2.7h-2.2l-.2-2.7ZM171.8,1316.4l1.9.2v2.9l-3.7-1.2,1.7-2h0ZM449.3,1506.4l-2.6,1-.2,2.7h2.6l.2-3.7h0ZM107.1,1495.4l-2.8-1-8.9,1.5-6.1,3.4-.2,4.7,4.1,1.7,3.3-2.2,3.7-.2,10.2,3.4.2-3.2-3.5-2.7v-5.4h0ZM111.7,1501l-.9-3.4,2.6.5.2,3.4h3.9l.9-6.1.7,5.9,5.4-.2,6.9-8.1,1.7.2-1.5,3.2,3,2.2,9.1-.5,5.6-2.9,3-.2.6,3.7,1.3-1.2.9-3.4,12.8.5,4.1-3.9-2.8-2.7,1.3-2.9,5.6.5-.4-2.9,5.4.5,1.5-2.7,2.4.5,10-4.7.4-4.2,12.2-5.9,4.3-4.7,2.6-1.5,2.8,2,5-2.2,2.4-4.7,1.1-3.2,3.7-2.2,3.3-1.7.9-3.4-2.4-4.2-4.8-.5-.4-3.2,1.7-3.9,3-.5,2.8-3.7,4.1-.2,7.4-7.8.9-3.4,3.3-5.6,8.2-10,5.4-2.2,4.1-2.2,4.6,2,3,6.4h-3.3l-3-3.7-6.5,4.9-3.7.2-.4,7.6-6.7,12,1.3,4.9h5l-1.3,2.4-3,.2-5.2,4.4v2.2l4.1,2.4,7.4-1.5,3-4.2,3,.2,6.5-4.2,1.1-5.6,3.5-.2,13.7,2,2.2-2.7,2.2-11-3.5,2.7,1.3-5.4-3.5-3.4,1.7-3.7.2,3.7h7.4l1.5-2.4,3.5-.2-.6,4.2,4.1.2-4.1,3.2,8.9,2.7-7.6,1-2.8,2.9,2,3.4,10-4.2,5,4.2,1.5-2.2,1.3,3.4,8.7,5.6h6.3l8.5-1.2,9.3,2.7,4.3,4.7,9.8,1,3.9-3.7,1.7,5.9-3.9,1.7,2.6,2.9,16.1,9.3,3,6.1,11.7,10,7.2-4.9-1.3-5.4-7.6-4.9,6.7,2.9,1.1-1.7,2,3.2v6.6l4.6-1.5,4.6,4.4-5.4-24,2.6,3.2,3,14.7,4.8,6.1,5.2-1,3.9,8.6h2l1.3,13.7,7.4,1.2,3.5,5.4,3.9,2.7.9,6.8-3.9,6.4,6.3,3.9,2.6-5.9-.4,7.6-1.7,2.2,3,4.2,1.5-5.9-.4-2.9,1.7.5,1.3,5.6-2.2,3.4,1.3,6.4,1.1,1,.6-3.9,1.5,1.5-.6,4.9,2.6.5-.9,2.2,3.7-.2v-2.4h-2.2l.2-4.2-1.7-1.5,3.7-.7,1.1-2v-3.9l1.1,3.2-1.3,4.4,2.6,9.5,3.9.2,4.8-10.3.2-4.7-2.8-9.8-.2-2.9,1.1-2.9-1.5-1.7-3.7.2-5.4-4.9h-3.7l-4.3-3.4h-3.3l-1.1-3.9-3-.7-.4-3.7-2.2-1.2.2-4.2-11.1-18.1-3.9-3.7v-2.9l-9.3-8.6-1.5-2.7-3.5-4.9-4.1-1.5v-5.4l-2.6-3.2-3.7-1.7-4.6,3.2-3.5,5.1-.9,5.9-3.3.2-5.4,6.6-1.7-.7v-6.1l-5.2-5.4-5-4.9-1.1-4.9-5.4-3.2.4-5.4-6.1-.2-1.5,2.7h-2.6l-1.5-1.7-2.6,2-3.9-2.9v-209.8l-15-10-3.9-1.2-4.8,2.7-4.8.2-5-3.9-9.3-1.5-12.6-8.8-12.4-1-4.3,1.2-.4-4.4-3.9-1.7,2.4-2.4-.4-2.2-7-2.7h-5.2l-.9,1-2-1.5.2-6.4-1.7-2.2-5.4,7.1-1.7-.2v-2l3.7-2v-2l-4.1-5.9-2.4-.2-9.8,7.6h-8.5l.9-2.2-3.9-.2-11.3,8.3h-3.9l-1.3-2-5.9,3.7-7.8,9.1-6.1,6.6-3.3,2.9-5.6.2-4.8-1-5-3.2h0l-6.1,9.5-.2,5.9,5.6,5.9,4.6,11,.4,13,6.3,4.9,7.4,1,1.5,2-3.3,5.6,1.5,6.6-3.7-6.4v-5.9l-3.3-.7.2,2.9,1.5,5.1,6.3,9.1h-3l-4.8,2.7-13.5-6.1-.2-4.9,3-3.2v-3.4l-4.6-1.2-5,.5-10.4.5,3.3,5.6-4.1-4.4-18.2,2.9-1.7,3.7,10.6,11.5-1.7,3.4-.6,4.9-1.5,2-.2,4.7,9.6,8.8,8.9.5,10,4.7h4.3l1.7-1.5,8.2.2.2-2,2.6,2.7.2,4.9-5.4-.2.2,8.1,1.1,7.8-6.3,6.6-4.1-.2-4.3-2-2.2.2-6.7,5.1-3.7.5-3-6.8h-6.7l-4.8,4.9-1.1,4.4-7.2,4.4-11.5,10.5-.7,7.6,1.5,5.4,2.2,2.9,2.2-1,1.9,2.4-1.7,1.5-3.3,2.2,2.4,3.7-5.7,2.7,1.7,5.4,3.7,5.6,1.7,10,8.7,3.7,5.6-2,3.7-2.7,1.1,5.1.6,10.8-4.1,3.4v10.8l-1.3,2.2h-3.7l3.7,2.9,4.6-.2.9-2.4,10-1.5,4.3,6.4,2.8-1.7,2.8,12.5,2.2,1.2,2.2-1.7.2-5.9,1.9-2.4,1.5,2.7.4,3.9,3.5,1,10.2-2.9.4,2.9-4.3,2.7-3.5,4.2-6.1,17.1-9.3,4.9-3,3.7-.6,3.4-2.2-1.5-20.2,8.1-3.9,10-2.8-1,1.1-2.7-3.3-3.4-7.6-.5-11.5,7.8-4.8,3.2h-5l-1.1,5.9,3.7-.2h0Z"/>
  <path id="Arizona" class="cls-3" d="M281.8,947.1l6.5-5.4,1.7-5.9-2.2-3.9-3.9-.5-2.4-3.9,2.4-16.9,3.5-.7,5.2-7.8,3.5-17.1,5.2-8.8,10.4-4.2,2.8-3.2-.9-4.7-5-6.1-2.6-14.2-3-4.4-2.8-8.3,2-5.1,3-7.3,1.1-7.1-1.1-12,2.2-33.3,7.6-1.5,8,3.4,2.6,6.6h4.3l5.2-7.1,7.4-42.8,100.3,20,86.9,14.7-37.8,303.5-81-13.2-139.4-91.7,1.1-7.1,4.3-4.4,4.8.2h0Z"/>
  <path id="Arkansas" class="cls-4" d="M1247.2,896.7l1.9-5.4,2.6,1.2,1.5-2.5-1.7-1.7.7-3.7-2.4-2.2,1.3-2.5-.2-3.7-2.4-.2,1.7-2,2.8,2,.7-3.4-.9-2.7.2-1.7,4.3,1.5-.9-3.7,3.5-3.2-1.1-2.2-2.4.2-1.3-2.2,1.9-2.2,3.5-.5,1.1-2,3-.5-.2-2-1.9-2.2v-1.2h3.3l.9-1.7-3-2.5-.2-1.5-24.3,2,6.1-12.5,3.7-3.7v-5.4l-3.5-6.1-86.4,4.9-84.9,1.7,8.9,59.7-1.5,95.4,5.7,5.6,6.1-3.2,6.9,2,.4,29.1,113.6-3.2,2.6-3.7,1.1-7.3-3.3-5.6-1.1-5.4,1.9-1.7v-2l-3.7-2.7-.2-1.7,3.5-2.2-2.6-2.7,3.7-17.4,7.4-3.9v-2l-2.4-3.4,6.3-13.2h4.1l3.3-2.9-.7-12.7,6.7-11,3.9-1.5-1.1-7.6,3.5-1.7h0Z"/>
  <path id="California" class="cls-3" d="M129.3,893.3l7.4,12.7-3,.2-3.9-4.7-.4-8.3h0ZM133.4,869.3l3.9,10,5.6,2.5,1.5-1.5-2.8-6.1-5.6-5.9-2.6,1h0ZM90.2,822.9v5.9l4.3,2.9,9.6-.5,2.2-2.5-6.7-.5-9.3-5.4h0ZM77.4,823.1l7.2,1.2,3,5.4h-8.2l-1.9-6.6h0ZM181.4,934.4l-2.2-7.3.4-7.3-.9-19.3-3.9-11.7-2.6-3.4-1.3-3.7-15.2-21-7.8.2-4.3-4.7,2.4-4.4-1.5-9-4.8-2.9-8.5-1.5-6.1-3.2-3.3-4.7-9.8-16.1-5.9-5.4-8-1.2-6.7-5.6-10.2-3.7-6.1-.7-5.4-6.1.4-6.8,1.7-11.7,3.9-12.5-3-3.9-8.7-23-5.9-9-.9-7.3-3.5-5.6.4-6.1-4.3-12.2-6.3-6.6,1.3-17.4,5.2-2,3.9-7.6-.9-7.8-2.2-2.2h-5.4l-5.4-8.1-3.3-8.6v-18.3l2.6-10.3.4-5.1,5.4.5-.2,3.9-1.7,1.7v6.1l8,7.8v-11.5l-3-8.3,1.1-2.7-2.2-4.2,6.1-3.7-4.1-7.3-3,1.2-3.3,9.3,1.1,3.2-1.7,2.5-2-.2-11.7-14.9,1.5-13.7-2.4-9.5-14.1-31.3,1.7-26.2,5-8.8.4-15.6-11.9-27.1.6-12.7,15-18.3,3.7-5.9-.2-3.4,8.7-22.5.2-20.5,2-6.1,143.5,45.5-35.6,154.3,2.4,8.6,152.9,256.8-2,5.1,2.8,8.3,3,4.4,2.6,14.2,5,6.1.9,4.7-2.8,3.2-10.4,4.2-5.2,8.8-3.5,17.1-5.2,7.8-3.5.7-2.4,16.9,2.4,3.9,3.9.5,2.2,3.9-1.7,5.9-6.5,5.4-4.8-.2-95.6-12.5h0Z"/>
  <path id="Colorado" class="cls-3" d="M792.1,789.8l-35.8-2.5-112.3-11.7-114.2-15.9,25-215.9,97.5,13.9,81.4,8.3,71.9,5.9-3,54-10.4,163.8h0Z"/>
  <path id="Connecticut" class="cls-3" d="M1875.4,436.8l.9-2.7-6.9-30.1-.2-.7-32.4,8.3v1.7l-1.9.7-1.1-1.7-22.8,5.9,6.1,39.9,3.9,3.7-7.6,8.3,3.7,5.4,11.7-11,3.7-3.2h1.7l5.2-7.6,3,.2,6.3-2.7h4.6l11.5-6.6,6.1-2.2,2.2-2.5,3.3,1.2-.9-4.4h0Z"/>
  <path id="Delaware" class="cls-3" d="M1764.1,553.4l-3.5.7-3.3,2.7-2.6,5.1,16.5,66.3,23.7-5.6-4.8-18.6-2.4,1.2-7.2-6.4-1.1-4.2-3.9-2.5-.4-9-4.6-5.4-2.4-2-2.6-2.7-.9-7.8.7-5.1,2.2-5.4-3.5-1.5h0Z"/>
  <path id="Florida" class="cls-4" d="M1610.9,1087.7l-8.7-1.7-3.7-2.2-4.8,3.4v6.1l3,5.1-1.1,10.5-4.6,1.5-2.2-2.7-1.3-7.8-108.8,8.1-7.2-14.7-106,12.5-1.1,7.1,5.4,6.8,3.7,1.7,1.9,2.9-.9,17.8-2.4,1.5,1.1,1,2.2-.7,1.5-2,22.8-6.6,20-1.2,17.6,4.7,18.5,12.2,5.2,2,4.8,4.9-.2,6.6h5.2l4.1-2.4,5.4.2,4.3-2,6.3-4.9,6.7-7.1,2.4-1,1.3,1.2h3l1.1-2-1.1-2.9-1.3-1.5.4-2,4.3-2.7,10.9-1,1.7,2.4,2.2.2,5,2.4,6.5,4.4,2.6,4.2,2.4,2.9,6.1,3.4v5.9l6.1,4.7,2.2.2,3.5,3.4,1.5,3.9,2.2.5,1.7,5.1,1.5,1.5,2.2-2.7,6.3.2,1.1,3.4,2.4,2.2v3.2l6.3,5.4.4,23.5-3.9,14.2,2.2,2.9-.4,8.3-1.7,3.4,1.5,2.9,5,5.6.7,3.7,1.7,2.4-.9-4.7,2.8-1.5,1.7-8.8-6.5-2.9.2-1.5,5.7-1,1.9,6.4,2.4,1.5.2-4.9,2.4.7,1.3,2-.2,1.7-6.3,10.3-.4,2.7-3.7,4.7v2.7l8,9.3,11.5,19.3,3.9,5.1v4.4l6.1,11.2,5,1.5,1.5-2.9-4.6.7-6.5-11,.4-3.4,3.3-2v-3.7l-1.3-3.2,1.9-2.2.9,2.2,1.5,1.2v9.8l-2.6-1.5-1.7,2.2,3,3.9,2.2,6.4,2.6-1.5,5,2.9,4.6,5.4,3.5,12.5,6.7,11.7,1.7-3.2,6.1-1.2,6.9,3.2.7,4.2,7.2,9.3.2,2.7,4.8,6.6-1.5,1.2v6.6l5.9,3.4h3.3l5.9-4.4,3.3.7,2.4,1,5-4.2.4-1.7,2.6.7,5.2-4.2,2.8-5.6-1.5-7.8-.4-3.2,2.4-9.8,1.3-.5,1.3,3.9,1.7-4.4-1.7-17.6-.9-25.7-2.2-16.6-1.5-4.2-14.3-27.1-11.3-22.2-4.8-8.1-2.8-8.8-.4-8.3,1.9-.7v-2.2l-2.4-5.4-8.7-9.8-16.5-23.7-12.4-25.4-9.3-26.2-1.3-9.1-2.6-2.4-1.1-9.3-7.8.7h0ZM1630.9,1416.6l3.7-.2-1.5-2.4-2.2,2.7h0ZM1646.8,1413.9v-1.7l3.5-.5,8-8.1,3.3-1.5,5.2-2.2.7,3.2,3.7,2-5.7,2.9h-5.2l-8.5,6.1-5-.2h0ZM1684.1,1395.3l-6.5,3.4-2.2,3.2,2.4.2,6.3-6.8h0ZM1692.4,1388.2l-2.4.7-3,4.9,2.4-.5,3.3-3.9-.2-1.2ZM1710.4,1349.8l-3.7,13.7-1.7,2.4-2.2,6.4-2.6,3.9-1.5,4.2-4.1,5.4v2.2l5.9-6.8,5.2-8.6,1.3-4.9,4.6-12-1.1-5.9h0Z"/>
  <path id="Georgia" class="cls-3" d="M1632.9,1011.9v3.4l-9.1,15.2-2.6.5,3.3,1.2v4.9l-1.9,2.7-1.3,14.7-5,15.2,1.1,4.9,1.5,12.5-7.8.7-8.7-1.7-3.7-2.2-4.8,3.4v6.1l3,5.1-1.1,10.5-4.6,1.5-2.2-2.7-1.3-7.8-108.8,8.1-7.2-14.7-1.5-5.4-3.3-3.7-1.1-3.4,1.3-15.4-5.2-13.9,1.1-6.4.7-9.1,4.8-9.3-.4-2.7-3.7-2.5v-7.8l-3.9-4.7-6.3-14.9-28-112,49.7-7.1,46.5-7.3-.2,4.7-4.1,2.5-3,7.8.4,3.2,13.2,9.3,5.7-.7,6.7,9.8.9,4.2,9.1,12.5,5.7,4.2,3,.5,4.8,3.9,2.4,5.4,4.3,3.9,3.9,1.2,5.9,6.6.2,3.4,5.7,6.8,10.9,5.6,7.8,16.4.7,6.6,8.5,5.1,5.4,11.7,1.7,7.6,9.1,1,1.9,1h0Z"/>
  <path id="Hawai" class="cls-3" d="M728.3,1461.7l-.4,7.8,3.7,4.7.2,2.9-10.4,11-.2,2.9,4.1,7.8,3.7,10.3v6.4l-1.1,2.9.2,8.3,8.9,5.1,2.4,2.7,2.6-2.7,4.6-8.8,9.8-7.1,7.2-1.2,5.4-2.4,3.7-2.9,7-8.6-6.1-2.7-3-3.4.2-4.2-1.1-1.5h-4.3l.4-6.1-1.5-2.9-5.7-5.6-9.8-4.7-6.1-.5-7.2-6.6-2.6-1.5-4.6.5h0ZM695.1,1420.1l-2.4,3.7-.2,4.2,5.9,5.9,4.1,1.2,1.3,2.4.9,7.3,7.8.5,11.5-6.4-.2-6.1-3-1.2-7.6-6.4-3.9-.7-6.3,3.2-3.3-6.6-4.6-1h0ZM691.8,1448.2l2-3.4,5.4-.7,1.3,4.4-8.7-.2h0ZM676.6,1426.9l3.7,9.8,6.7-1.5.7-4.9-3-3.7-8,.2h0ZM667.7,1410.5l-2.4,5.9h10.9l10.4,3.9,5.4-3.9.4-3.7-10.4.5-14.3-2.7h0ZM633,1384.6l-4.1,5.1-6.3,1.5,1.7,5.4,4.8,6.8.2,2.4,4.6-.7,5,.2,3.7,2.9,7.6-2v-1.7l-2.2-2-1.1-5.1-1.7-.7-1.1,2.4-2.6-3.2.4-3.4-3.9-8.1-2.4-1.7-2.6,1.7h0ZM563.9,1354.3l-9.1,7.1.4,5.6,5.2,2.9,4.1,3.2,5.9,1,5.7-5.4-.4-4.7,1.7-4.2v-3.4l-2.2-2.2h-11.3ZM540.5,1366l-.7,2.9-4.1,2.2-1.3,4.4,2.2,2,2.4-3.7,4.1-1.5.9-6.4h-3.5Z"/>
  <path id="Idaho" class="cls-4" d="M337.6,447l-53-13.2,18.5-91.2,6.3-14.2.9-5.1,1.7-2.2-2-4.9-6.3-2.9.4-10.3,8.7-14.2,5.4-2,3.5-5.6-.2-3.9,3.9-3.9,7-13.5,9.1-11.7-1.1-7.8-7.6-7.6-3.5-8.8,2.4-10.5-1.5-9.8,27.6-137.2,30.8,7.3-10.4,53.8,8,18.1-3.5,11.7,7.8,11.7,4.1,1.7,8.5,20.3v5.1l5,7.3h2l3,5.1h7v3.9l-15.4,41.6-1.1,10,3,1.2,3.5,6.4,6.1-3.4,7.8-5.9,4.1,4.6,1.1,6.1-1.1,7.8,5.4,23.7,5.6,8.6,5,3.4.9,7.3v10l5,5.6,3.5-5.6,15,3.9,4.6-2.9,19.5,4.2,6.1-8.1,3.9-1.5,2.6,4.4,3.5,10,2,.2-18.5,134-104-20-50.6-11.5h0Z"/>
  <path id="Illinois" class="cls-3" d="M1332.6,649.5l-2.2,12.7v4.9l5.2,8.6v1.7l-.7,2.2,1.9,4.7-.7,5.9-3.5,4.4-2.8,10.3-8.2,13-.2,17.1h-2.2l1.9,4.7v2.2l-4.8,6.6.2,2.7,3.3,5.4-.2,2.2-8,1.5-1.3,2.9-2.6-1.5-2.2,1.2-.9,8.1,3.7,4.4-.9,5.9-3.3.7-15-7.3-8.7,9,.7,4.4h-6.1l-3-3.7-3.9-9.3v-4.7l1.7-1.5.2-3.2-3.7-4.7-1.9-6.1-5.9-10-10.4-3.2-16.1-17.4-.9-5.9,6.1-18.6-.9-4.7,2.6-2.7v-3.2l-6.1-3.7-6.5-1.7-7.4,2.9-2.8-5.6,1.3-4.7-1.5-5.9-18.7-20.5-4.8-3.7-5.4-14.4-2.6-13.2,3-9,1.5-1.7.2-5.6-1.5-2.2,2.2-3.7,3.9-1.5,1.9-.7,2.2-2.9v-5.9l3.7-5.9,1.1-1.2.2-8.6-1.9-3.4-2.2-.7-2.4-3.9,2.2-9.8,6.5-2h5.2l9.1-4.4,3.7-5.4.2-5.9,2.4-3.2,2.8-7.8-.2-6.4-6.1-8.6h-2.6l-1.9-2.7.4-3.9-3.7-4.2-5.4-3.2,1.1-1.5,99.7-6.9.2,11.2,7.4,11.2,2.6,10,3.5,7.8,8.9,122.8h0Z"/>
  <path id="Indiana" class="cls-4" d="M1344.9,524.5l-11.1,5.6-10.2-3.4,8.9,122.8-2.2,12.7v4.9l5.2,8.6v1.7l-.7,2.2,1.9,4.7-.7,5.9-3.5,4.4-2.8,10.3-8.2,13-.2,17.1h-2.2l1.9,4.7,2.4,2,1.3-2.5-1.5-4.2,10-1.2.4,2.9,2.4.5.9-2.2-1.3-3.2.7-2,2.8,2,3.7-1,3.7,1.5,7.4,5.1,3.9-6.8,7.6-5.4,6.5,8.1,3.5-5.1.7-6.6,8.2-5.6.4,3.2,4.1,2.9,6.5-.5,2.6-1.7.2-8.3,5.4-9,10-10.8-.2-4.2,2.6-9.3,4.8,2.5,14.6-11-.9-4.2-3.3-5.1,2.2-4.7-14.3-139.9-.2-3.4-70.4,8.3-3.7,3.9h0Z"/>
  <path id="Iowa" class="cls-4" d="M1187.9,446.8l4.6,3.9,1.3,2.7-3.5,8.1-.2,6.1,4.3,13.5,5.9,3.7,7.2,1.7,2.8,6.9-1.1,1.5,5.4,3.2,3.7,4.2-.4,3.9,1.9,2.7h2.6l6.1,8.6.2,6.4-2.8,7.8-2.4,3.2-.2,5.9-3.7,5.4-9.1,4.4h-5.2l-6.5,2-2.2,9.8,2.4,3.9,2.2.7,1.9,3.4-.2,8.6-1.1,1.2-3.7,5.9v5.9l-2.2,2.9-1.9.7-3.9,1.5-2.2,3.7,1.5,2.2-.2,5.6-1.5,1.7-3.3-2-2.4-2.7-1.3-3.9-3.7-3.2-31.1,2-59.1,2.9-56.2-.2-3.9-10.8,1.5-5.4-1.7-8.1.4-7.1-2.8-1.7-.9-14.9-6.1-12.2-.4-9-4.8-10.5-2.8-9v-3.4l-1.3-4.2v-5.6l-1.1-2.2-1.5-4.2-.7-3.2-2.8-2.9,2.2-10.5,3.7-12.5-1.5-4.9-2.8-1-.9-3.9,2.2-1.2.2-2.7-2.8-3.7.2-3.9,4.8.2h61.2l78.8-2.2,40.4-1.7.4,6.4h0Z"/>
  <path id="Kansas" class="cls-4" d="M975.6,633.8l-94.9-2.9-78.2-4.9-10.4,163.8,147,7.1,134.6.2-1.1-117.6-6.9-1.7-5.7-11.5-5.4-6.1,1.1-5.6,5.9-6.4.2-2.9-3.3-5.1-1.9,2.5-4.3-1.5-6.3-7.3h-70.4,0Z"/>
  <path id="Kentucky" class="cls-4" d="M1481.5,787.9l-44.5,3.4-11.3,2-37.8,2.5-5.7,2-49.1,4.9-1.5-1.5h-8l2.6,7.8-1.3,2.2-50.6,3.7,2.2-6.6,3,2.2,1.5-1,2.6-10-2.2-2.5,2.2-4.9.4-2.2-2.8-2-.7-4.4,8.7-9,15,7.3,3.3-.7.9-5.9-3.7-4.4.9-8.1,2.2-1.2,2.6,1.5,1.3-2.9,8-1.5.2-2.2-3.3-5.4-.2-2.7,4.8-6.6v-2.2l2.4,2,1.3-2.5-1.5-4.2,10-1.2.4,2.9,2.4.5.9-2.2-1.3-3.2.7-2,2.8,2,3.7-1,3.7,1.5,7.4,5.1,3.9-6.8,7.6-5.4,6.5,8.1,3.5-5.1.7-6.6,8.2-5.6.4,3.2,4.1,2.9,6.5-.5,2.6-1.7.2-8.3,5.4-9,10-10.8-.2-4.2,2.6-9.3,4.8,2.5,14.6-11-.9-4.2-3.3-5.1,2.2-4.7,2.8,1.2,4.8.2,4.1-2,6.3,2.9,4.8,8.3v2.5l8.9,1.7,5-.5,4.1,5.1,4.8.5v-2.5l4.1-2,6.5,2,2.6,2,2.8-1.7h1.9l1.3-4.2,7.4-4.4,1.1,2,1.7,7.1,7.6,3.4,2.6,5.1-.2,2.7,1.3,2.5-1.3,8.8,4.1,3.9,1.7,2.7,2.2,1.5-.2,2.2,9.6,13.7h3l3.3,4.4,2.6.7,3-.2-10.6,16.1-6.3,2.5-6.5,7.3-.9,5.4-4.6,3.2-.2,4.2-3,3.4-3.9,1.2-1.1,4.7-2.2,1-15,10.3-12.2,3.4h0ZM1268.7,815.5l-1.5-1.7.4-2.5h2.4l1.5,1.7-.7,2.5h-2.2Z"/>
  <path id="Louisiana" class="cls-4" d="M1287,1155.4l-2.6-4.4.7-3.2-10.4-16.6,1.9-11.2,2.2-3.4.2-3.4-78.2,4.9,3.7-29.1,5.2-11.7,13-20.5-3.9-6.1h4.3v-8.1l-5.2-6.1,1.1-4.2-2.6-2.4-3.5-17.4,1.3-3.4-113.6,3.2,1.1,48.7,1.5,8.3,5.7,6.8,1.5,13.2,8.2,11.2,1.7,10.5h2.2l-.2,17.8-7.2,15.7,2.8,5.6-2.8,3.7,1.5,7.3-.2,10.5-4.8,8.6-.2,2-3.7,2.9,2.2,4.4,2.6,2.7,3.5-3.2,11.5-2.2,13.2-.2,20.8,9.3,17.4,2.4,3.3-3.4,3.9-.5,10.4,5.4,3.5-1,2.4-3.7-9.1-4.4-4.8,2.4-2.4-.5-3-4.9,7.2-5.4,3.5-.2v4.2l3.3-.2,7.4-.7.9,5.6,2.4,1,1.3,4.7,10.4,2.4,3.7,3.9v1.7h-2.6l-3.3,4.2,3.7,2.9,11.7,2.4,5.9,6.8,9.6-2.4-8,.5-.2-1.5,6.1-1.7.4-4.4,2.6-.7v-3.4l2.4.2v3.9l5.4.2,1.7-4.7,1.9.7.4,6.1,2.6.5-3.9,4.9,5.7-2.2,4.3-2.7,6.3-8.1h-1.5l-2.8,2.9-.9-.2-1.1-2,1.9-2.9v-5.6l2.4-2,1.5,1.7,2.2-2,2.2-.2,1.3,3.2-1.3,4.7h5.2l11.1,4.2,1.1,3.2,3.5,3.4,6.1.2,2.8,1.7,3.9-2.4,1.9-4.2v-4.2h-3l-2.6-3.4-2.4-2.7-6.9-2.2-5.7.5-9.1-5.9v-5.6l2.8-2.4,5.2,1.5-6.7-3.9.4-2h7.8l5.7-8.6-5.7-4.4,1.7-3.7-2.6-2h-1.7l-4.3,5.1v5.1l-1.3,1.7-2.4-.2-3.5-3.4h-2.8v-3.7l1.3-1.7,1.7,1.7,3.7-3.9,1.5-3.9,1.7-.7-1.3-1.7h0ZM1264.6,1148.8l4.1,2.4,1.7,2.7,5.4.2,3.3,2,.4,3.4-.9,1.5-1.9-3.7-3,2.9-1.9,3.4-6.1,2-3.5.2-8-2.4.2-4.2,4.3-4.9,2.4-5.9,3.5.2h0ZM1254.4,1151.8v2.7l-3.9,4.9h-2.6v-5.4l3.5-3.7,3,1.5h0Z"/>
  <path id="Maine" class="cls-3" d="M1878.7,314l1.3,9.8,6.9,4.9,1.7,5.4,5,3.4,3-.7,2.2-7.3-1.7-7.1,3.5-2.2,1.1-6.9-1.3-3.2,7.2-4.6-4.8-5.6,1.9-5.9,3-5.4,1.1,7.8,3.5-4.9,2.8,2.2,2.6-2v-4.2l6.9-3.2.7-7.1,5.4-.5,5.9-9v-1.7l-1.9-1.2-.2-8.1,1.3-2.7.4,3.9,2.2-1.2-.4-7.8-1.9.7-.2,2.9-2.6-3.4,1.9-3.4,1.3.2,2.4-1,1.1,6.9,4.3-.7,6.3,1.7v-2.4l-2.4-2.9,2.8.2.2-5.6,1.3,2,.7,4.6,4.6,3.7.4-2.4,1.9-.5-.7-2,1.7-1.5-.2-3.9-3.5-.5-4.3,1.7,3-3.9,1.5-2,2.8-.5.9,3.2,3.7,3.9.9-5.1,5-2.9-1.9-3.2.2-4.2,2.4,1.2h1.5l3.7-3.4.9-5.6,4.8.7.2-1.7.4-3.9,1.1,3.4,3.3-2.4,5-10-.2-5.4-3-4.9-6.5-7.8h-4.1l-1.7,5.4-6.3-7.3.7-2v-3.7l-3.5-11-1.7-.5-1.5,1h-10.4l-.7-8.8-17.6-63.6-15.8-9.1-6.3-.2-14.6,16.1-5.9-2.4-2.2-9.5h-5.9l-15,47.7,1.5,15.2-3.7,5.9-.9,11.2,2.8,9.1,1.7.5v3.9l-3.5,11-3.3,3.4-2.8,5.4-.9,19.1-5.2-2.4-3.3,1,25.8,90h0ZM1953.8,253.6l-2.2,2v3.2l1.5-2,1.9,2,.9-1.2,2.4.5-2.2-2,.9-2-3.3-.5h0ZM1950.2,260l-2.2,2.7,1.1,1-.2,2.5h2.4v-4.4l-1.1-1.7h0ZM1943.6,256l1.9,3.2,2.2,1.2.7-2.5v-4.4l-2.8-1.7-.9,2.9-1.1,1.2h0ZM1941.5,268.3l-3.7-4.2,3.5-5.9,1.7.7.4,2.7,2.2,2v2.7l-2.2,2.5-1.9-.5h0Z"/>
  <path id="Maryland" class="cls-3" d="M1765.6,657.8v-4.2h-1.7v4.4l1.7-.2h0ZM1791.2,648.3l2.6-5.4.2-6.1-1.3-1.5-1.5,2.2-.4,5.1-1.7,3.4-.7,2.7-10,3.9-1.5,2-2.8.5-.9,2.2-2.8,1.5-.7-6.1.9-1.7-1.7-1.2.4-3.7-3.5,2.5v-4.9l2.6-.7-4.1-1-1.5-2,.9-3.2-1.7-1.5-1.5,3.9,1.1,2-1.5,1.5-2.4,1.2-4.3-2.5-.4-2.9-2.2-2.7-3-4.2,3.3-2-2.2-1.5v-2.2l1.3-2.5,3.7-.7-3-1.5-.2-1.7-2.8-.2-.9,2.7-1.3.7.2-8.3,2.2-2.5,1.7,1.7.2-3.9-2.2-2.2-1.9,2.7-2.2,3.4-1.3-2.5.4-5.9,1.9-2.5,1.9,2.2,2.6-1.7-.9-4.2-2.2,2.5-1.9-5.1-.4-4.2,2.4-5.9,2.4-3.4,3-.5-1.1-2,1.1-1.5-.7-1.7.4-5.1-3.3,1-1.7,2.7,2.2,3.2-5.7,8.8-1.9-1-1.5,2.2-1.3,5.4-3.9,1.2,2.8,1.5,2.8,3.2-.4,1.7,1.9,2.9-2.4,2.5,1.1.7-1.1,3.2v5.1l-1.1,3.2,1.9,2.7,1.5,8.3,2.8,3.4,3.5,3.4.9,6.8,3.5,4.9.9,3.4v2.5h-1.5l-3.3-2.9-.9.5-2.6-.5-3.7-3.4-3-.7-2.2,1.2-2.6-.7-.9.5-3.7-2-2.2-2.5-2.2-3.2-1.3-.5-1.7,1.7-3.5,3.2-2.4-2-.9-5.6,1.7-5.1-.7-1.2.7-1-1.5-2.5,2.2-.2,2.2-2.2.9-4.4,3.7-6.4-5.7-4.4-2.2,4.2-1.3-1.5h-2.2l-1.3-.2-.9-1,.2-1.2-3.7-1.5-1.7.7-2.6-.2-1.5-1.7-1.1-.5-.4-1.7,1.3-2v-2.2l-2.6-.5-2.2-2.2-1.9.2-3.5-.7-1.9-1,.4-3.9-2.2-1.2-.4-1.7h-1.5l-1.7-2.9.4-2.5-5.7,1-4.8-3.9-3,.7-1.9,3.4h-2.8l-3.7,7.1-7.2,1-4.1-2.5-5.7,9.3-4.8-.7-6.7,9.5-1.9,3.9-3.9,3.9-3.7-27.9,131.4-28.8,16.5,66.3,23.7-5.6v13l-.2,7.6-2.2,4.4-1.3.7h0ZM1762.1,643.9l-2.8,2.2,1.7,4.4,3.7,2-.9-3.9-1.7-4.7h0Z"/>
  <path id="Rhode_Island" data-name="Rhode Island" class="cls-3" d="M1932.8,425.2h7.4l1.9-1.5.2-3.2-4.1-4.4.9,2.5-3.3,3.7h-5l.2,2,1.7,1h0ZM1913.2,429.6l-2.6-1.5,2.2-2,1.3-5.1,2.6-2.5,1.7-.5,1.3,2.2,2.4.5,1.3-1.5,1.1,4.6-2.8.7-6.1,1.7-2.4,3.2h0ZM1837.4,372.4l40-9.3,2.2-3.7.7-4.2,4.1-1.5,1.1-2.7,3.7-2.7,2.8.7,3.7,8.1,2.2,1,2.4-3.2,1.7,3.2v2.7l-6.5,5.9.4,2-1.9,2.5.9,2-2.8.7,1.9,2.9-1.7,1.7,1.3,2.5,1.9-.5.7-2,2.4,1.5h3.9l5.4,6.4.4,6.4,3.9.2,1.7,2.7,1.3,4.9,2.2,1.7h4.1l4.1-.2,1.7-2.2,3.5-2.9,2.4-.7-2.6-5.1-.7,2.2-3.3-8.8h-1.7l-.9,2.2-2.6-2.5,2.8-2.7,3.9,1,5,5.1,2.8,6.6,2.6,8.1-2.2,6.9v-4.4l-1.5-2.5-7.6,5.6-1.9-.7-3.5,2.5-.2,2.9-4.8,2.9-4.3,5.1-4.3,4.6h-2.6l7.2-8.1,1.1-4.6-1.1-1.5-.7-3.2-1.9-.2-.2,3.2-2.2,2.9h-2.6l-.7,2.7.9,2.9-2.6,2.7-2.4-.5-.9,2.5-3-7.3-2.8-2.7-5.7-3.2-1.3-5.4h-1.7l-1.5-6.4-14.1,4.9-.2-.7-32.4,8.3v1.7l-1.9.7-1.1-1.7-22.8,5.9-1.5-2.5,1.1-36.7,26.9-6.6h0Z"/>
  <path id="Michigan" class="cls-3" d="M1419,512.3l.2,3.4,46.5-8.6,1.1-2.9,8.5-14.4v-10.5l1.7-5.1,4.8-2,4.3-19.1,2.2-1.2,2.2,1.5-.4,1.5-2.4,2,.7,2.2,1.7,1,4.1-3.4.9-24-3.5-5.6-2.6-9v-6.1l-5-10.8v-4.4l-2.6-8.1-5-7.3-6.3-2.5-10.4,7.3-5.4,11.2-.4,2.2-6.5,8.6-3.3-.5-6.3-6.9-.2-8.3,3.3-4.6,4.3-.5,2.6-4.2.4-9.8,1.7-2,2.4-.2,1.9-4.2-.4-23.5-.7-3.2-2.6-2.9-3.7-2.5-.2-4.4,1.5-1.5,3.9,2-.7-4.2-4.1-6.6-1.5-3.9-2.4-2.7h-4.8l-17.6-7.1-3-4.2-6.7-.7-2.6.7-9.6-5.6h-3l1.1,2.5-5.9-.2.2,1.5,1.3,1.5-5.4,5.1.2,4.4,3.3,5.6,3.3.5v1.5l-3.3,1.2-4.6-.2-6.1,6.1.2,6.1.9,14.2-4.8,8.3,1.7-11-1.7-1.5-1.9,13-2.2-5.6,1.1-5.6-1.1-2.5,1.3-3.2-1.3-2.7,2.2-2.5v-2.9l-2.8,1.5-2.8,7.6-1.5,1.7-2.8,5.9-3.7-.5-.2,2.9h-3.5l.4,3.7.4,4.9-6.5,2.9.2,3.2,2.2,4.2-.2,12.7-2.8,10.8-3.7,6.1,2.6,3.4,1.7,8.6-2.2,6.1-.4,5.1,3.7,8.3,5.4,12,2.6,4.6,3.5,16.9-.2,21.5-1.9,9.5-4.3,7.8-1.9,9-4.3,7.3-2.6,2.5,70.4-8.3h0ZM1211,275.6l6.5,9.3,36.9,9.3,3,2.5,8.7,2,1.5,1.2,6.1-.5,10.6,2,3,3.7-2.2,2.5,1.7,2,8.2,1.7,2.6,2.9.2,10.8-2.8,6.9,4.3.2,2.2-2,1.9,2-2.4,7.6,2.2,3.9,2.6.7,1.7-4.4,6.3-11.2,3.5-14.7,5-4.9-1.1-3.9,1.1-2.2,2.2,3.9-.7,5.4,6.3-5.4.4-5.6,4.6,1.5,1.7-3.9,1.5,1.5-1.5,3.7-2.2,1.2-2.2,4.9,3,4.4,2.4-1.2-1.1-1.7,2.2-3.7,4.1-4.2h1.7l.4-6.4,4.3-4.4,17.2-1.2,4.1-7.6,8.2-.7,8.2,2.9,9.1,6.6,1.5-.5-.4-8.6,1.5-.5,9.8,2.7,3.3-.5,6.3-1.7,3.7,1,3.9.2v-2.7l-1.5-2.2-3.3-.5-2.4-2,1.1-3.4-1.7-.7-5.7.2-.2-2.5,2.4-2,1.3,2,1.1-4.4-1.5-1.7,1.5-.5-3-3.2.7-3.2.2-4.6h-2.8l-3.3,2.5-4.1.2-1.1,4.4-4.1.5-.7-2.9-4.8.2-2.2,2.9-1.5-.2-.4-2-5.7,1-.2-11.7,2.2-4.9-1.5-.2-3.9,2.7h-4.8l-8.2,6.6-13.5.7-8.9,2-4.1,3.7-3,3.2-5.4,4.2-.7,2-1.3-4.2-2.8-1.5v1.5l1.5,1.7v3.2l-3.3-1.5h-1.3l-.7,2.9-4.3-4.6-2.8-.5-2.8,3.7-6.9-.2-1.1-3.4-4.3-4.6-2.8-3.9v-1.7l-2.4-3.4-5.7-2.9-7.2-.2-2.4-2.2h-3l-1.5,1-4.8,5.4-1.5,2.7-2.2-1.7.4-2.4,1.7-5.1,6.9-12.2,1.7-.5,3.7-4.6,1.5-3.9,6.5-1.5,1.7-1.5-.2-2.4-1.1-1.2-9.8.5-4.3,1.2-5.7,2.9-2.6,2.9-3.7,5.4-3.9,2.4-7.2,8.3-.9,3.9-16.1,11.2-8.7,1.2-3.9,1-5,7.3-3.9,1.7-9.6,5.6,4.1,1.7h0ZM1429.6,284.9l8.2.2,1.3-1.2-.4-4.9-3.7-4.4-4.1.2-.2,1.2,2.4,1-3.5,2-.7,2.5-1.3-1.5-.9,2,2.8,2.9h0ZM1266.6,182.4l-5,.5-5.9,4.6-15.4,13,1.7,2.4,3.9.7,6.1-4.9-2.4-1.2,5-3.9h2.2l6.5-4.6-.2-2.2,3.5-4.4h0ZM1355.8,336v2.5l4.6,3.9-.4-5.9-4.1-.5h0ZM1354.3,342.9l2.4.2v2.2h-2.2l-.2-2.5h0ZM1400.8,290.8v2.2l1.7-.5v-1.2l-1.7-.5h0ZM1410.9,298.3l-.2-2.7-3.5-.5-1.3-1h-1.9l-.9.7,1.9,1,2.4,2.7,3.5-.2h0ZM1371.9,301.3l-.2,2.7-.7,1.7.4,5.4.9.7,1.5.2,1.1-2.2.2-3.9-.7-1.5-.2-2.7-2.4-.5h0Z"/>
  <path id="Minnesota" class="cls-3" d="M987.7,167l-2.4,6.9,1.7,3.4-.7,12.5-1.1,2.7,5.9,22.2,2.8,6.1,1.5,34.2,2.2,6.6-.9,14.2,6.3,18.1.7,14.2-.2,5.1-.2,5.4-2,4.9-6.7,4.6-.7,2.9,3.7,6.1.9,4.4,5.7,1.5,3.3,4.6-.4,96.6h61.2l78.8-2.2,40.4-1.7-2.4-11-.4-7.3-4.8-7.3-6.1-1.7-11.3-8.8-1.3-8.1-13.7-7.6-.4-3.2h-7.2l-4.8-6.4-4.3-3.2,1.5-12.5-1.9-3.9,1.1-13.2,2.2-4.4-.7-6.6-2.6-3.2-3.9-.7v-4.2l6.1-14.2,12.8-9.5-.9-31.8,1.9,1,1.3-1.2.2-2.7,1.9-1.5,3,2.9,1.5-.2h0l-2.6-5.4,9.3-7.6,6.7-9.1,3.5-2,10.2-14.4,13.7-14.2,8.5-5.1,13.7-6.6,16.5-11-1.3-1-8,1.7-6.1.2-2.2-3.9-3-2.2-21.3,2.9-2.2-6.9-3.5-.2-3.7,2-8,7.6h-8.9l-4.6-2.4-.7-4.2-8.5-2-1.3-3.9-1.5-3.2-2.2,2.2-5.7.2-21.5-13.4h-6.3l-1.7-1.7-6.7,3.2-1.7,3.2-7.2,2-2.8-.5v-4.2l-1.5-2.2h-12.8l-.9-3.4h-5.7l-2.4,1-5.2-4.2.7-3.4-1.3-5.9-1.5-2.7-.4-7.3-2.2-7.6-4.6-3.9h-6.3l.2,19.6-67.1-1,5.2,17.9h0Z"/>
  <path id="Mississippi" class="cls-4" d="M1333.2,1145.1l-10.9.2-5.2-3.7-17.2,6.1-1.9-1.7-1.1.5-.2,3.9-1.3.2-5.7,6.6-1.5-.2-1.3-1.7-2.6-4.4.7-3.2-10.4-16.6,1.9-11.2,2.2-3.4.2-3.4-78.2,4.9,3.7-29.1,5.2-11.7,13-20.5-3.9-6.1h4.3v-8.1l-5.2-6.1,1.1-4.2-2.6-2.4-3.5-17.4,1.3-3.4,2.6-3.7,1.1-7.3-3.3-5.6-1.1-5.4,1.9-1.7v-2l-3.7-2.7-.2-1.7,3.5-2.2-2.6-2.7,3.7-17.4,7.4-3.9v-2l-2.4-3.4,6.3-13.2h4.1l3.3-2.9-.7-12.7,6.7-11,3.9-1.5-1.1-7.6,83.2-6.4,2.8,4.9-2.8,163.8,9.6,81.2-3.3,3.2h0Z"/>
  <path id="Missouri" class="cls-4" d="M1184.5,607.9l-2.4-2.7-1.3-3.9-3.7-3.2-31.1,2-59.1,2.9-56.2-.2,2.8,3.2-.7,3.4,4.6,9,8.5,15.4,6.3,7.3,4.3,1.5,1.9-2.5,3.3,5.1-.2,2.9-5.9,6.4-1.1,5.6,5.4,6.1,5.7,11.5,6.9,1.7,1.1,117.6.4,26.4,84.9-1.7,86.4-4.9,3.5,6.1v5.4l-3.7,3.7-6.1,12.5,24.3-2,2.2-4.9,2.6-1.2v-1.7l-2.6-2.7-1.3-2.5,3.7.5,1.7-1.7-3-3.7,3-1.2.2-2.5-1.3-2.5v-3.2l-1.5-1.7.4-2.5h2.4l1.5,1.7-.7,2.5,1.7,1.7,1.7-2.5,2.2-6.6,3,2.2,1.5-1,2.6-10-2.2-2.5,2.2-4.9.4-2.2-2.8-2h-6.1l-3-3.7-3.9-9.3v-4.7l1.7-1.5.2-3.2-3.7-4.7-1.9-6.1-5.9-10-10.4-3.2-16.1-17.4-.9-5.9,6.1-18.6-.9-4.7,2.6-2.7v-3.2l-6.1-3.7-6.5-1.7-7.4,2.9-2.8-5.6,1.3-4.7-1.5-5.9-18.7-20.5-4.8-3.7-5.4-14.4-2.6-13.2,3-9-3.3-2h0Z"/>
  <path id="Montana" class="cls-4" d="M515,318.4l124.4,19.3,110.8,13,4.3-50.6,11.3-163.1-116.2-13.7-117.9-18.8-143.1-30.6-10.4,53.8,8,18.1-3.5,11.7,7.8,11.7,4.1,1.7,8.5,20.3v5.1l5,7.3h2l3,5.1h7v3.9l-15.4,41.6-1.1,10,3,1.2,3.5,6.4,6.1-3.4,7.8-5.9,4.1,4.6,1.1,6.1-1.1,7.8,5.4,23.7,5.6,8.6,5,3.4.9,7.3v10l5,5.6,3.5-5.6,15,3.9,4.6-2.9,19.5,4.2,6.1-8.1,3.9-1.5,2.6,4.4,3.5,10,2,.2,4.3-26.2h0Z"/>
  <path id="Nebraska" class="cls-4" d="M852.7,466.6l82.5,3.9,7.4,7.8,3.7.5,4.6,4.9,3.9-.2,3.9-4.9,3.3,1.5,2.2-1.7,1.5,1.2,2-1,1.5,1,2-1,2.2,1.2,3-1.5,4.3,1.5,1.3,2.7,13.2,5.4,2.6,3.2,2,6.4,3.9,1.7,3.3-.5,1.1,2.2v5.6l1.3,4.2v3.4l2.8,9,4.8,10.5.4,9,6.1,12.2.9,14.9,2.8,1.7-.4,7.1,1.7,8.1-1.5,5.4,3.9,10.8,2.8,3.2-.7,3.4,4.6,9,8.5,15.4h-70.4l-94.9-2.9-78.2-4.9,3-54-71.9-5.9,8-108.1,111,8.6h0Z"/>
  <path id="Nevada" class="cls-3" d="M342.6,725l-7.4,42.8-5.2,7.1h-4.3l-2.6-6.6-8-3.4-7.6,1.5-2.2,33.3,1.1,12-1.1,7.1-3,7.3-152.9-256.8-2.4-8.6,35.6-154.3,102.1,27.4,53,13.2,50.6,11.5-45.6,266.5h0Z"/>
  <path id="Nuevo_Hampshire" data-name="Nuevo Hampshire" class="cls-3" d="M1851.8,228.2l-2.8.2-2.2-2.7-4.1,3.4-1.1,14.9,2.6,5.6-2.4,8.6,4.6,6.9-.9,4.2.2,3.2-2.4,5.1-3,1-1.3,3.2-4.6,2.5-1.5,3.7,3,8.3-1.1,6.1,1.1,3.7-2.2,4.6.9,4.6-2.8,4.6.4,5.4-1.5,2.7,1.5,11,1.5,3.7-1.1,6.4,1.9,4.4-.4,6.1-1.1,3.2-.2,3.4,4.6,6.4,40-9.3,2.2-3.7.7-4.2,4.1-1.5,1.1-2.7,3.7-2.7,2.8.7,1.7-11.7-5-3.4-1.7-5.4-6.9-4.9-1.3-9.8-25.8-90-1.1,4.2h0Z"/>
  <path id="Nueva_Jersey" data-name="Nueva Jersey" class="cls-3" d="M1808.1,477.1l-31.7-12-3.9,6.1.2,5.4-6.5,13.2,3.3,4.4-1.5,4.9-2.2,2.5,1.1,8.8,5.9,2.2,2.2,6.8,4.6,2.7,9.1,7.8-7.2,6.4-3.5,5.6-3.9,7.3-3.5,1.5-3,4.2-2.2,5.4-.7,5.1,1.7,2.2.9,5.6,2.6,1.5,5.2,3.7,3.9,2,3.5,2,.2,2.7,1.7.2,2.4-2.9,1.7,1,4.6.5-.4,7.1.4,6.1,3.9-1.7,3.3-9.5,3.5-11.7,6.3-6.8,1.3-8.6-1.3-2.9,3.7-7.1v-2.9l-1.5-2.7,2.6-6.6-.7-8.8-1.3-20-2.6-3.4v3.4l1.1,1.5h-2.4l-1.3-1-2.8-.5-1.9,1.5-2.6-3.9,1.5-4.2v-2.5l3.7-1.7,1.7-5.1.9-14.4h0Z"/>
  <path id="Nuevo_México" data-name="Nuevo México" class="cls-3" d="M754.9,813.3h-1.7l-17.2,242.8-69-6.4-74.7-8.8-.7,7.3,4.3,5.4-66.9-10-3,24.9-34.1-5.4,37.8-303.5,114.2,15.9,112.3,11.7-1.3,25.9h0Z"/>
  <path id="Nueva_York" data-name="Nueva York" class="cls-3" d="M1874.1,443.4l-2.8.2-1.1,2.5,3.9-2.7h0ZM1807.7,498.9l1.5,1.5,2.8-.7,2.4.7,1.9-3.2h4.1l5.2-2.2,11.1-5.1-1.1-1.2-4.1,2-4.3,2.2.4-2,5.7-2.7,1.7-2.5,2.6.2,8.9-5.6v1.7l-9.1,7.3,9.8-6.9,3.7-5.4,3.3-.2,9.8-7.6,6.9-7.6,6.5-5.6,2.2-2.9-3.7-.2-2.2,2.9-.4,1.7-1.9,1.7-1.7-2.7-3.7,2.5-.2,2.2-1.9-.5,1.1-2.2-2.6-1.7-1.3,2.2,1.9.7.4,1.2-.7,1.2-3,6.4h-4.1l1.9-4.4,1.9-1.5.7-4.2,3-3.9,1.9-2,3.3-1.7-2.6-.5-1.5,2.2h-1.5l-2.4,2-.4,2.5-4.8,5.1-.9,2.2-3,2.2-16.7,4.6.4,2.2-1.9,1.7-4.3.7-2.2-1.5-.4,2.7-2.4-1,.2,2.5-2.6-.2-2.6,1.2-.4,2.7h-2.2l.4,2.5h-1.5l.4,2.5-3.9,1-3.3,5.6-.4,5.1h0ZM1806,497.9l-3.5,1v2.5l-1.5,3.9,1.3,1.7,5.2-5.6-.2-2.2-1.3-1.2h0ZM1784,265.1l-1.3,4.6,3,2.2-.9,3.7,1.1,7.8,4.8,5.6-.9,5.4,1.3,4.9-.9,2.5-.7,9.3,6.7,16.4-1.7,4.4,1.9,5.4,1.9-3.9,4.1,3.7,6.5,34.7-1.1,4.9,2.4,2.5-1.1,36.7,1.5,2.5,6.1,39.9,3.9,3.7-7.6,8.3,3.7,5.4-2.8,8.1-3.3,4.2-3.3,5.6-.4-1.7.9-14.4-31.7-12-3.5-2.7-4.1.7-6.5-5.4-6.5-14.2h-4.3l-.9-3.7-3.7-2.7-153.1,34-1.7-14.7,9.3-9.5,1.3-4.2,8.5-6.1,1.3-5.9,5-4.9,1.7-2.7-3.7-8.1-3.7-1.2-3.9-7.3-.4-7.8,16.5-9.5,17.8-3.9h9.6l6.9,3.9,1.9-.2,3.9-3.9,7.4-1.7h6.5l5.7-3.2,5.4-6.4,5.2-7.6,4.1-1,2.4-1.2.9-7.8-3-6.6-2.6-1.7,4.3-3.2-.2-4.4h-3.3l-5-3.4-.2-7.6,13.5-14.9,1.5-5.9,8-15.4,12.8-15.6,4.6-4.2,5.4.2,44.7-12.7,1.7,4.2h0Z"/>
  <path id="Carolina_del_Norte" data-name="Carolina del Norte" class="cls-4" d="M1778.8,733.1l-63.2,14.9-85.6,17.8-63.8,8.6v12.7l-3.3-.2-3,2.9-5.2,12.7-5.7-2.7-7.6,6.1-1.5,5.1-3.3,2.9-1.7-2-.2-3.7-1.7-.5-8.7,8.1-1.3,8.3-10.2,5.9-1.1,2.9-6.9,6.4-7.8,1.2-10,7.3-1.7,10-2.8,2.2-3.3-.2-3,3.2-.2,12,46.5-7.3,9.6-4.7,2.8-.2,15.8-10.5,50.4-5.4.9,1.2-.4,3.4,1.5.7,2.6-3.7,7.2,7.3.2,6.4,42.8-6.8,53.2,41.8,8.7-5.4,6.5-1.7h3.7l2.4,2.7,1.7-4.9,1.3-12.2,3.7-9.5,11.7-14.9,8.9-8.6,11.7-5.6,5.4-1,2.8,1,1.5,2.7,7.2-16.1,7.2-13-1.5-.7-9.6,16.6-1.1-2,4.3-5.4-.9-3.7-4.3-1.2,2.2,3.2-2.6.2-2.6-4.4-2.6,4.9-3.5.5,2.2-6.6,1.5-4.2-.4-7.1-4.8-.2,1.9-2.2,2.4.7,5.9.2,1.7-1.2h5l4.3-4.7.4-7.8,2.8-3.4,2.6-.5,2.8-2.5-1.1-9-4.8-9.3-5.9-.5-1.9,3.9-1.1-2.5-5.9.5-2.6,1-4.1,2.9-.7-1h-1.9l-3.9,2.9-5.7,1.2v-3.2l1.7-2.5,2.2,1.7h2.2l3.7-5.1,8-4.2,4.3-5.4h5.2l1.7,3.2,3.7,2-1.1-3.7-.7-3.9-6.1-7.6-.7-3.4-.9,2.5-1.9-3.2-2.8-3.9h0ZM1794,808.9l5.9-6.1,10-8.1v-9l-.9-7.6-3.7-10.3,3.3,3.4,2.2,7.8.9,18.6-3.7,1-6.7,5.9-6.9,7.8-.2-3.4h0ZM1798.1,761.7l-1.9-.5v2.5l5.4,5.4-.4-3.4-3-3.9h0ZM1804.4,766.9l-3-6.8-4.8-8.3-5.2-7.3-4.8-10.5-1.7-1.7,4.8,10.5.7,3.2,7.4,13.5,3.9,5.1,2.8,2.5h0Z"/>
  <path id="Dakota_del_Norte" data-name="Dakota del Norte" class="cls-4" d="M987.7,167l-2.4,6.9,1.7,3.4-.7,12.5-1.1,2.7,5.9,22.2,2.8,6.1,1.5,34.2,2.2,6.6-.9,14.2,6.3,18.1.7,14.2-.2,5.1-64.1-1-99.9-5.1-85.1-7.1,11.3-163.1,96.6,8.3,120.1,3.9,5.2,17.9h0Z"/>
  <path id="Ohio" class="cls-4" d="M1467.6,509.9l4.1-1,6.5,3.2,4.6,1.5,1.5,2.2h2.2l2.2-3.7,2.8,2h3.3l-.2,2.5-6.7,1.2-4.3,2.7,4.1,2,3.5-3.7,5.2-1,4.8,3.7,3.3-.2,5.4-4.2,7.8-5.1,11.3-.7,10.6-14.4,8.2-7.6,20.2-12.5,10.6,73.1-4.8,2.9,3,5.1-.2,5.4,1.3,4.9-2.4,8.3-.2,13.2-2.2,8.8,1.1,2.7-.9,5.4-2.4,1.2-4.3,8.1-3.9,4.9h-1.3l-3.9,4.2-2.8-2.9-3.3,4.4-.7,2.9h-2.8l-2.8,5.4.2,5.1-2.2,1.2,3,2.7v4.7l-2.2.5-1.5,2-2.2,1.2-1.3-5.1-3.5-1.2-2.2,5.6-.7,5.4-2.4,3.2,2.8,8.8-3.3,2-.9,8.6h-3.3l-6.9,3.4-2.6-5.1-7.6-3.4-1.7-7.1-1.1-2-7.4,4.4-1.3,4.2h-1.9l-2.8,1.7-2.6-2-6.5-2-4.1,2v2.5l-4.8-.5-4.1-5.1-5,.5-8.9-1.7v-2.5l-4.8-8.3-6.3-2.9-4.1,2-4.8-.2-2.8-1.2-14.3-139.9,46.5-8.6,1.9,2.7h0Z"/>
  <path id="Oklahoma" class="cls-4" d="M1067.6,974l-10-9.3-4.8-2.2-1.1,3.9-11.1.7-1.3-3.7-10.9,6.1-3.5-1.7-8,.7-1.3,4.2-7.8,2.2-2.8-2.9-2.6.2-4.3-4.4-4.6,1.7-4.3-1.2-3.9-4.9-5.4,10.3-2.6,2-2.2-4.4.7-4.9-2.6-1.7-5,6.1-3.7-2.9-.2-3.7-2.8,1.2-5.7-4.2-6.5,6.4-5-2.7,1.5-5.1-5,.2-4.1-7.3-7.6-2.7-4.3,5.6-5-5.4-3,1-4.3.2-7.6-4.7-5,.2-2.6-1.7-1.1-7.1-5-4.2-2.4,3.7-3-2.5-2.6-1-2.4,2.5-3.3-.7-5.4-7.3-5.9-3.2,3-104.4-114.2-7.8,1.3-25.9,35.8,2.5,147,7.1,134.6.2.4,26.4,8.9,59.7-1.5,95.4-13.9-4.7h0Z"/>
  <path id="Oregón" class="cls-3" d="M182.5,406.4l102.1,27.4,18.5-91.2,6.3-14.2.9-5.1,1.7-2.2-2-4.9-6.3-2.9.4-10.3,8.7-14.2,5.4-2,3.5-5.6-.2-3.9,3.9-3.9,7-13.5,9.1-11.7-1.1-7.8-7.6-7.6-3.5-8.8-65.8-17.9-6.1,2.4-11.7-2.2-3.9-2.2-3.3,2.9-7.2-1-9.8,1.2-1.9,1.7-9.1-1-1.7-3.9-2.6-.5-9.6,3.2-3.5-2.7-4.8,2-.4-4.4-5-2.9-3.3-.5-2.2-2.7-6.5.7-2.6-2h-2.6l-2.6,2.2-11.9,1.7-14.3-10.3,2.4-13.7-.9-10-6.9-9.1-8,.2-.9-2.7.9-2.9-1.5-2-2.2.2-2.4,3.2-3.3-.5-1.1-2.7-2.2-.2-1.5,1.5-4.3-4.6v10.5l-2.8,3.2-2.4,8.6-.2,5.6-9.8,30.1-28.7,76.5-7,11.2-3.5-.2.2,5.1-11.3,17.4-.7,8.1,2.2,3.2.2,5.9-2.6,2.7-2.6,7.3.2,13.9,2.6,7.1,143.5,45.5h0Z"/>
  <path id="Pennsilvania" class="cls-3" d="M1772.9,462.4l-4.1.7-6.5-5.4-6.5-14.2h-4.3l-.9-3.7-3.7-2.7-153.1,34-1.7-14.7-9.1,8.3-1.9.2-5.9,7.3-7.2,4.2,10.6,73.1,6.9,48.2,37.8-7.1,131.4-28.8,2.6-5.1,3.3-2.7,3.5-.7,3.5,1.5,3-4.2,3.5-1.5,3.9-7.3,3.5-5.6,7.2-6.4-9.1-7.8-4.6-2.7-2.2-6.8-5.9-2.2-1.1-8.8,2.2-2.5,1.5-4.9-3.3-4.4,6.5-13.2-.2-5.4,3.9-6.1-3.5-2.7h0Z"/>
  <path id="Delaware-2" class="cls-3" d="M1896.5,416.7l-2.8-2.7-5.7-3.2-1.3-5.4h-1.7l-1.5-6.4-14.1,4.9,6.9,30.1-.9,2.7.9,4.4,12.2-8.8.2-7.3-1.7-2,.9-1.5-.2-3.2-1.9-1.7,2.6-1-1.9-3.9,3.9,1.7.7,3.4,1.5,2.9-3-2,2.4,4.2-.7,2.9-1.3-2.7v6.1l1.3-2.2.9,2.2,2.8-3.7-.4-6.1,3,7.6,2.2-2.2-3-7.3h0ZM1886.3,446.5h1.9l1.1-1.5-1.7-3.2-1.5,1.7.2,2.9h0Z"/>
  <path id="Carolina_del_Sur" data-name="Carolina del Sur" class="cls-4" d="M1655.7,855.6l-42.8,6.8-.2-6.4-7.2-7.3-2.6,3.7-1.5-.7.4-3.4-.9-1.2-50.4,5.4-15.8,10.5-2.8.2-9.6,4.7-.2,4.7-4.1,2.5-3,7.8.4,3.2,13.2,9.3,5.7-.7,6.7,9.8.9,4.2,9.1,12.5,5.7,4.2,3,.5,4.8,3.9,2.4,5.4,4.3,3.9,3.9,1.2,5.9,6.6.2,3.4,5.7,6.8,10.9,5.6,7.8,16.4.7,6.6,8.5,5.1,5.4,11.7,1.7,7.6,9.1,1,1.7-3.7h1.3l3.9-3.7,1.1-4.9,6.9-5.1.7-5.9-2.6-2.2,1.7-1.7,1.7,1,2.8-1,3.9-5.1,8.2-4.4,3.5-5.9.2-1.7,10.4-10.8-.2-1.2-1.9-2,2.4-3.7h1.7l.9,1.2,1.5-2h2.8l1.3-3.7,5-5.1-.7-13.2,1.7-5.6,7.8-15.2,5.2-5.4,4.8-2.7-53.2-41.8h0Z"/>
  <path id="Dakota_del_Sur" data-name="Dakota del Sur" class="cls-4" d="M839.6,307.1l99.9,5.1,64.1,1-.2,5.4-2,4.9-6.7,4.6-.7,2.9,3.7,6.1.9,4.4,5.7,1.5,3.3,4.6-.4,96.6-4.8-.2-.2,3.9,2.8,3.7-.2,2.7-2.2,1.2.9,3.9,2.8,1,1.5,4.9-3.7,12.5-2.2,10.5,2.8,2.9.7,3.2,1.5,4.2-3.3.5-3.9-1.7-2-6.4-2.6-3.2-13.2-5.4-1.3-2.7-4.3-1.5-3,1.5-2.2-1.2-2,1-1.5-1-2,1-1.5-1.2-2.2,1.7-3.3-1.5-3.9,4.9-3.9.2-4.6-4.9-3.7-.5-7.4-7.8-82.5-3.9-111-8.6,8.5-107.4,4.3-50.6,85.1,7.1h0Z"/>
  <path id="Tennessee" class="cls-4" d="M1326.9,892.1l99.2-9.8,49.7-7.1.2-12,3-3.2,3.3.2,2.8-2.2,1.7-10,10-7.3,7.8-1.2,6.9-6.4,1.1-2.9,10.2-5.9,1.3-8.3,8.7-8.1,1.7.5.2,3.7,1.7,2,3.3-2.9,1.5-5.1,7.6-6.1,5.7,2.7,5.2-12.7,3-2.9,3.3.2v-12.7l.7-1.7-10,1.2-.4,2.5-62.8,8.1-12.2,3.4-44.5,3.4-11.3,2-37.8,2.5-5.7,2-49.1,4.9-1.5-1.5h-8l2.6,7.8-1.3,2.2-50.6,3.7-1.7,2.5-1.7-1.7h-2.2v3.2l1.3,2.5-.2,2.5-3,1.2,3,3.7-1.7,1.7-3.7-.5,1.3,2.5,2.6,2.7v1.7l-2.6,1.2-2.2,4.9.2,1.5,3,2.5-.9,1.7h-3.3v1.2l1.9,2.2.2,2-3,.5-1.1,2-3.5.5-1.9,2.2,1.3,2.2,2.4-.2,1.1,2.2-3.5,3.2.9,3.7-4.3-1.5-.2,1.7.9,2.7-.7,3.4-2.8-2-1.7,2,2.4.2.2,3.7-1.3,2.5,2.4,2.2-.7,3.7,1.7,1.7-1.5,2.5-2.6-1.2-1.9,5.4-3.5,1.7,83.2-6.4h0Z"/>
  <path id="Texas" class="cls-4" d="M591.6,1048.3l.7-7.3,74.7,8.8,69,6.4,17.2-242.8h1.7l114.2,7.8-3,104.4,5.9,3.2,5.4,7.3,3.3.7,2.4-2.5,2.6,1,3,2.5,2.4-3.7,5,4.2,1.1,7.1,2.6,1.7,5-.2,7.6,4.7,4.3-.2,3-1,5,5.4,4.3-5.6,7.6,2.7,4.1,7.3,5-.2-1.5,5.1,5,2.7,6.5-6.4,5.7,4.2,2.8-1.2.2,3.7,3.7,2.9,5-6.1,2.6,1.7-.7,4.9,2.2,4.4,2.6-2,5.4-10.3,3.9,4.9,4.3,1.2,4.6-1.7,4.3,4.4,2.6-.2,2.8,2.9,7.8-2.2,1.3-4.2,8-.7,3.5,1.7,10.9-6.1,1.3,3.7,11.1-.7,1.1-3.9,4.8,2.2,10,9.3,13.9,4.7,5.7,5.6,6.1-3.2,6.9,2,.4,29.1,1.1,48.7,1.5,8.3,5.7,6.8,1.5,13.2,8.2,11.2,1.7,10.5h2.2l-.2,17.8-7.2,15.7,2.8,5.6-2.8,3.7,1.5,7.3-.2,10.5-4.8,8.6-.2,2-3.7,2.9,2.2,4.4,2.6,2.7-7.6.7-18.2,9.5-7.6,3.4-3.9,4.4-1.5-1.2,4.6-5.6,3.9-1.7,1.1-2.2-6.3-.2-1.5-2,1.7-4.9-1.9-4.4h-1.3l-5.2,3.2-4.1,6.4.7,4.2,7.2,8.3,2.8.7v2l-5,3.9-10.6,9.8-8.7,9.5-6.9,3.4-10.9,7.3-8,4.9-9.8,4.7-8.9,6.1,7-7.3v-2.7l1.3-2-.4-4.4-3.3-.2-2.4,3.7-5.7,3.2-3.9-2.9-.7-4.2h-3.3l1.7,5.4,3,1.7,2.6,2.2,3.9,3.9-1.5,2-8.5,4.2-3.7.2-2.6-2.9-1.1,5.1,1.1,2.7-5.9,4.9-3.3.5-1.7,1.7-.9,4.2-3.9,8.1-3.5,1.7-3.5-1.5-3.9,2.7.7,3.4,2.8,2,2.2,2-3.9,8.6-.7,6.8-2.2,4.2-3,2.4-6.3,1,3.9,1.5,4.1-1.5-.9,7.8-2.4-.2.4,2.9.7,3.4-2.8,2.2v7.6l3.5,3.4,1.3,7.6-.9,5.4-2.2,1,.9,3.7,2.4,1,1.7,4.2v6.4l2.4,5.1,4.8,6.4-.2,1.7-4.8-.5-3.5,3.4.4,3.4-2-.7-3-.5-7.4-9.1-5-1.5h-15.4l-6.1-2-7.8-7.3-3.7-2.4-4.6.2-7-6.4-11.7-3.9v-3.2l-3-4.4-2-11.5-2.4-4.2-3.7-3.4v-3.9l-3-1.5,1.3-6.4-.7-5.4-2.8-3.4,1.5-7.3-1.7-7.8-3.7-3.4h-2.4l-8.7-8.6.2-4.7-1.7-4.2-1.7-.5-2-5.9-4.3-3.9-6.3-6.1-.4-5.1-2.2-1.7.4-3.9,1.1-1.7-3-3.7.2-1.7-4.3-5.4.2-5.1-5.9-12-.2-4.2-3.9-7.6-11.1-11.7v-2.7l-7.2-4.2-.2-4.4-2.6-1v-1.7l-1.7-.5-4.6-6.8h-1.7l-1.5-1.5-2.8,2.7h-4.8l-5.7-2.7h-10l-9.1-5.1-2.8,4.7-4.8-1.5-7.2,2.9-3.7,6.8-4.3,7.8-2.4,10.8-3,2.9-2.4.2-2,3.9-2.8,1.5-.2,4.4-6.3.2-3.9-3.7h-2.2l-4.3-7.1-7.8-1.2-3.7-5.6-2.8-.5-4.6-2-7.4-8.3.4-2-3.5-2.9-2.2-.2-7.4-7.6-.2-4.9-5-9.8.4-3.9-1.5-3.2,1.7-3.7-.2-5.9-5.7-10-1.3-10.3-3.5-3.9v-2.4l-2.6-.5-1.5-2.7-5.2-4.2-2-.2-4.1-3.9v-2.7l-6.3-4.4-1.3-5.1-5.7-5.6-7-10.8-6.5-3.2-4.6-4.4.4-2.9-2.8-3.4-3.7-9.1-5.2-2.4-4.3-5.4h0ZM971.4,1386.5l1.7.2-1.3-11.7-7.6-30.1-.4-19.8,10.6-25.7,13.2-20.1,15.6-12.5v-1.7h-1.7l-5.7,2.4-7.8,5.6-1.5,3.7-17.8,28.4-6.1,19.3v21.5l7.8,29.3.9,11h0Z"/>
  <path id="Utah" class="cls-4" d="M485,532.1l7.2-53.5-104-20-45.6,266.5,100.3,20,86.9,14.7,25-215.9-69.7-11.7h0Z"/>
  <path id="Vermont" class="cls-3" d="M1844.2,249.7l-2.4,8.6,4.6,6.9-.9,4.2.2,3.2-2.4,5.1-3,1-1.3,3.2-4.6,2.5-1.5,3.7,3,8.3-1.1,6.1,1.1,3.7-2.2,4.6.9,4.6-2.8,4.6.4,5.4-1.5,2.7,1.5,11,1.5,3.7-1.1,6.4,1.9,4.4-.4,6.1-1.1,3.2-.2,3.4,4.6,6.4-26.9,6.6-2.4-2.5,1.1-4.9-6.5-34.7-4.1-3.7-1.9,3.9-1.9-5.4,1.7-4.4-6.7-16.4.7-9.3.9-2.5-1.3-4.9.9-5.4-4.8-5.6-1.1-7.8.9-3.7-3-2.2,1.3-4.6-1.7-4.2,59.3-16.9,2.6,5.6h0Z"/>
  <path id="Virginia" class="cls-3" d="M1791.2,648.3l-2.4,6.8,1.1,2.7.9-2.7,1.7-7.6-1.3.7h0ZM1716.1,631.2l-1.5-2.5,2.2-.2,2.2-2.2.9-4.4-.4-1.2.2-1.2-.7-1.7-1.3-1.2-.9-.2-1.1-1-1.3-1.5h-2.2l-1.3-.2-.9-1,.2-1.2-3.7-1.5-1.7.7-2.6-.2-1.5-1.7-1.1-.5-.4-1.7,1.3-2v-2.2l-2.6-.5-2.2-2.2-1.9.2-3.5-.7-.9,1.7-.9,3.9-1.1,5.6-21.7-12.7-.4,2.2,1.9,3.9-1.7,5.6.2,7.1-2.6,2-1.1,5.1-1.9,2-3,4.4-1.9,2-2.2,6.1-5.2-2.7-5,20.8-2.8,3.9-6.1-1.2-2.8-4.7-5-1.7-.2,11.5-3,4.2.9,3.7-4.6,5.4.9,4.7-8,15.4-2.2,8.1,3.3,2.9-3.3,4.7.2,3.4-5,4.9-1.5-2.7-9.3,7.6-3.3-2.5-1.3,3.4,1.7,1.2-1.1,2.2-11.9,5.9-6.5-4.4-1.7,4.2-4.1,4.4-5,.2-9.6-5.6-.2-3.7-3.3-1.7,1.7-2.9-1.5-1.5-10.6,16.1-6.3,2.5-6.5,7.3-.9,5.4-4.6,3.2-.2,4.2-3,3.4-3.9,1.2-1.1,4.7-2.2,1-15,10.3,62.8-8.1.4-2.5,10-1.2-.7,1.7,63.8-8.6,85.6-17.8,63.2-14.9-1.3-2.9.9-.2,1.9,2.2-.2-3.4-.7-4.7,3.5,2.9,1.9,5.1v-3.2l-7.4-13.5v-2.9l-1.5-2-2.8,1.7,1.1,3.4h-1.7l-.9-2.5-1.3,2.2-1.9-2.7-4.6-.2-.4,1.7,3.3,5.1-3-1.7-1.1-2.5-.9,2-1.7.2-3.3,4.2.7-3.9v-3.4l-3.3-1.7-3.9-1.2-.4-4.2-1.3-3.2-1.3,2.7-3.7-2.5-4.3.7.4-2.2,3.3-.5,1.9,1.2,3.7-2,1.9,1,1.1,2.5v1.7l4.1,1,.7,2.2,1.9,1,1.9,2.9,3-3.9h1.3l-.2-5.1-2.8,2.5-1.3-2.2,3.3-.5-2.6-2.2-2.6,1.5-.2-4.2-3.7.5-4.8-2.7-3.9-5.4,7.8,5.4,1.9.7,3.7-2-3.7-2.2,1.3-1.5-2.2-1.2,1.7-.5-.7-2.2,2.4,2.2.9-2,.9,3.2,2.6,2,1.3-1.2-1.1-1.5-.2-6.1-2.4-.2-3.5-2,1.9-2.7-4.3-.2-.9-1.2-3,1.5-3-2-1.1-2.9-4.6-2.9-4.6-4.4-4.8-4.7,6.5,3.2,1.9,2.9,4.6,1.7,5,6.1.4-4.2,1.3,3.2,5,1.2v-9.8l-1.7-2.7,2.4,1,.2-3.9-6.7-3.4-3.5-.5-2.8-.5.7-2.9-3.3-.7-.2-1.5h-3.9l-.4,2-1.5-2.5h-5.9l-2.2-1-.4-2.5-2.6-1.5-.9-3.7-1.3-1-1.5,2.7-1.9.5-1.9,1.7h-3.3l-1.9-3.2.9-7.6,1.1-5.9,1.3,1.2.7-1h0ZM1763.6,659.5l1.9-.2v-1.5l-1.7.2-.2,1.5h0ZM1779.9,694.2l-2.2,6.6,2.6-3.2-.4-3.4h0ZM1776,656.8l1.5.7-.4,4.7-1.1-1.2-2.8,2.5,2.2,1-3.9,10.8.2,19.8,4.1,7.6,1.1-3.7.9-6.6-.7-5.6,1.5-2.2-.4-3.4,2.6-1.5-1.3-1.2,1.1-1.7,1.7,2.7-.4,2.7-.9,9.5,2.4-5.4.9-7.6.2-7.3-.7-4.9,1.3-5.6,2.4-4.4.2-5.4.7-2.2-10,3.9-1.5,2-.9,2.2h0Z"/>
  <path id="Washington" class="cls-3" d="M330.2,203.7l1.5,9.8-2.4,10.5-65.8-17.9-6.1,2.4-11.7-2.2-3.9-2.2-3.3,2.9-7.2-1-9.8,1.2-1.9,1.7-9.1-1-1.7-3.9-2.6-.5-9.6,3.2-3.5-2.7-4.8,2-.4-4.4-5-2.9-3.3-.5-2.2-2.7-6.5.7-2.6-2h-2.6l-2.6,2.2-11.9,1.7-14.3-10.3,2.4-13.7-.9-10-6.9-9.1-8,.2-.9-2.7.9-2.9-1.5-2-2.2.2-4.6-3.7-2.6,1-4.3-.2-1.5-3.7-3.5-.7,5.4-18.3-1.5,14.7,1.1,1.2v-4.9l1.7-.5,2.4,5.6-1.1-5.4,2.6-10.3,3.9,1-2.4-4.9-2.2.7-3.3-1,.4-10.3.4,3.7,1.9,1.2,1.3-3.9h6.9l-4.8-2.9-3.7-4.7-3,3.9,2.6-7.6-.7-11.2-.4-8.8,1.9-14.9-1.1-4.9-3-5.1.2-9.8.9-6.6,4.3-5.6-1.5-3.4.4-1.5,1.9.2,16.9,18.6,10.2,4.7,11.1,6.1,6.9-.2.4,7.3,2.2-3.9h1.5l1.3,6.6,1.1-6.4,3-.5,1.1,1.7-2.4,1.5.2,3.9,1.5-3.7h2.4l-.9,6.4-2.4-2,.9,3.4-.2,3.7-1.7,1.7-5.4,7.1,2.6-8.3-3.5,1-.9,5.1-8.2,6.8-.9,2.4-4.6,5.4-.2,2.4h4.8l5.2-.5,1.1-2.2-8.5,1.2v-1.5l5.6-6.8,3.9-2,4.1-.5,2.2-3.9,6.5-5.6v-3.4h2.4l.2,9.8h-3.3l-1.3,2-2.4-2.2.6,2.7v4.2l-1.5,1.7-.6-3.9-1.7,2,1.5,1.5-1.9,2.7h2.8l1.5-1.2.2,4.9-2.2,4.7-1.9,2.4-.2,4.4-2.2-.5-.4-3.4,1.9-2.7-1.7-1.2-1.7,1.7-1.5,5.4-1.7,2.2-.2-4.9,1.7-2.7-.4-2.7-2.6,2.9.2,5.4-1.3,1-4.6-1-2.8,2.9,4.8-1.5-.4,5.4,2.2-4.4.9,3.4,1.1-2.4,1.5,4.4h1.5l1.5-2,1.3-.2,4.3-4.7.4-2.9,1.7,1.5.6,2.2,1.5-.7.2-2.9h2.8l.4-7.1-.2-6.6,1.9.7-1.5-5.1,3-2,.4-5.9,5-5.4,2.2.2.6-3.4-2.6-3.4-.2-8.6-1.7,2.2,1.5,7.1-1.3.2-1.3-4.7-1.3-1.2.6-5.6,3.9-.2.6,1.7.6-3.9-3.5-4.2-1.3-3.9-.4,4.9,1.9,2.7-1.5,1-2.2-2-3.9,3.2,3.3,1.2.4,5.9-.6,4.4,1.9-3.2,3,5.6-.9,4.7h-3.3v-2.9l-3.3-2.9,1.1-7.3-4.1-6.4,5.9-7.3,1.3-10h1.9l3,7.8v-6.4l2.6.7v-8.1l-1.9-2-2.6,6.1-2.2-7.3,2.8-.2-3.3-12,4.1-1.5,55.2,18.3,68.8,19.6,51.2,13.4-27.6,137.2h0ZM159.3,107.4h1.1l.2,2-1.1.7.2,1.5-1.5,1-.4-2.2,1.1-1,.4-2h0ZM170.1,96.8l-2.6,4.7-.2,2,.9.5,1.1-1.5,2.4.2-1.5-5.9h0ZM169.3,44l1.1,1.5,2.8-.7.4-2.5,2.6-4.4-2.2-1-1.5,3.9-.2-3.9-2.4.5-1.5,3.4.9,3.2h0ZM176.2,30.6l1.5,3.7-1.9.5-1.7,1-.4-5.9,2.6.7h0ZM170.4,26.7l-2.4-.5,1.1,3.4,1.3-2.9ZM168.2,32.8l1.7,1-.9,2.7,3.7-1.2-.4-5.4-1.9-.5-2.2,3.4h0ZM162.3,31.8l.6,6.6,3.5,3.2,1.3-4.7-2.4-5.4-3,.2h0ZM166.4,29.1l-2.4-2.5-1.9.2,3.9,3.7.4-1.5h0ZM173.4,12h-2.6v2l2.6,1.5v-3.4h0ZM171.4,91.5l.9-6.6h-2.4l-.4,4.7,1.9,2h0Z"/>
  <path id="Virginia_Occidental" data-name="Virginia Occidental" class="cls-4" d="M1549.5,726.8l-1.7,2.9,3.3,1.7.2,3.7,9.6,5.6,5-.2,4.1-4.4,1.7-4.2,6.5,4.4,11.9-5.9,1.1-2.2-1.7-1.2,1.3-3.4,3.3,2.5,9.3-7.6,1.5,2.7,5-4.9-.2-3.4,3.3-4.7-3.3-2.9,2.2-8.1,8-15.4-.9-4.7,4.6-5.4-.9-3.7,3-4.2.2-11.5,5,1.7,2.8,4.7,6.1,1.2,2.8-3.9,5-20.8,5.2,2.7,2.2-6.1,1.9-2,3-4.4,1.9-2,1.1-5.1,2.6-2-.2-7.1,1.7-5.6-1.9-3.9.4-2.2,21.7,12.7,1.1-5.6.9-3.9.9-1.7-1.9-1,.4-3.9-2.2-1.2-.4-1.7h-1.5l-1.7-2.9.4-2.5-5.7,1-4.8-3.9-3,.7-1.9,3.4h-2.8l-3.7,7.1-7.2,1-4.1-2.5-5.7,9.3-4.8-.7-6.7,9.5-1.9,3.9-3.9,3.9-3.7-27.9-37.8,7.1-6.9-48.2-4.8,2.9,3,5.1-.2,5.4,1.3,4.9-2.4,8.3-.2,13.2-2.2,8.8,1.1,2.7-.9,5.4-2.4,1.2-4.3,8.1-3.9,4.9h-1.3l-3.9,4.2-2.8-2.9-3.3,4.4-.7,2.9h-2.8l-2.8,5.4.2,5.1-2.2,1.2,3,2.7v4.7l-2.2.5-1.5,2-2.2,1.2-1.3-5.1-3.5-1.2-2.2,5.6-.7,5.4-2.4,3.2,2.8,8.8-3.3,2-.9,8.6h-3.3l-6.9,3.4-.2,2.7,1.3,2.5-1.3,8.8,4.1,3.9,1.7,2.7,2.2,1.5-.2,2.2,9.6,13.7h3l3.3,4.4,2.6.7,3-.2,1.5,1.5h0Z"/>
  <path id="Wisconsin" class="cls-3" d="M1305.4,351.4l-6.3,2,.4,5.6-5.2,8.3-.4,7.6,1.3,1.7,1.7-1.7,1.1-3.9,4.3-2.7,3.5-10.3,7.6-2.7,1.7-8.1,1.5-2.2.9-5.1,3.9-2.7v-3.7l2.2-2.2,3,.2v4.9l-2.2.2,1.1,2.9-1.5,5.4-1.3.2-2.6,11-1.5,1.2-6.1,17.6-.7,10.3,1.3,4.9.2,3.2-5.2,4.6.7,4.6-1.9,7.6.7,3.9.9,9-2.4,10-3.3,12.2,2.2,3.7-.7.7,1.7,4.2-1.1,2.7,2.4,2.2v6.6l2.8,3.7-.9,7.3.7,9.8-99.7,6.9-2.8-6.9-7.2-1.7-5.9-3.7-4.3-13.5.2-6.1,3.5-8.1-1.3-2.7-4.6-3.9-.4-6.4-2.4-11-.4-7.3-4.8-7.3-6.1-1.7-11.3-8.8-1.3-8.1-13.7-7.6-.4-3.2h-7.2l-4.8-6.4-4.3-3.2,1.5-12.5-1.9-3.9,1.1-13.2,2.2-4.4-.7-6.6-2.6-3.2-3.9-.7v-4.2l6.1-14.2,12.8-9.5-.9-31.8,1.9,1,1.3-1.2.2-2.7,1.9-1.5,3,2.9,1.5-.2h5.7l14.8-6.4.7-2.5h2.6l1.5-2.9.9,2,3.9-2.2,3.9-4.2.7,1.2,2.2-2.4,4.8,3.9-1.7,3.9-2.6,3.4,1.1,3.7-3,3.9.9,2.2,5-2.7v-3.4l7.2,4.6,4.1,1.7,4.1,1.7,6.5,9.3,36.9,9.3,3,2.5,8.7,2,1.5,1.2,6.1-.5,10.6,2,3,3.7-2.2,2.5,1.7,2,8.2,1.7,2.6,2.9.2,10.8-2.8,6.9,4.3.2,2.2-2,1.9,2-2.4,7.6,2.2,3.9,2.6.7-.7,7.3h0ZM1197.9,260.2l-1.1.2-3.3,3.9.4,1.2,3.3-1.5v-1.5l1.9-.7-1.3-1.7h0ZM1201.4,257.5l-2.2.7-.4,1.7,1.9-.2.7-2.2h0ZM1198.6,253.6l-.4,2.2h3.7l1.3-1,.2-2.4-4.8,1.2h0ZM1204.7,246.3l-.7,4.6,2.6-1.2.2-3.4h-2.2ZM1331.3,324.3l-4.3.7-.9,3.2,2.8,4.2,2.4-8.1Z"/>
  <path id="Wyoming" class="cls-4" d="M750.2,350.7l-110.8-13-124.4-19.3-4.3,26.2-18.5,134-7.2,53.6,69.7,11.7,97.5,13.9,81.4,8.3,8-108.1,8.5-107.4h0Z"/>
  <circle id="Washington_DC" data-name="Washington DC" class="cls-3" cx="1715.1" cy="612.7" r="21.5"/>
  <g>
    <path class="cls-1" d="M1513.1,96.8h-55.7v-13.2l25.3-26.2c2.1-2.3,3.9-4.5,5.2-6.4,1.3-1.9,2.3-3.6,2.9-5.1.6-1.5.9-2.9.9-4.1,0-3.2-.7-5.5-2-7-1.3-1.5-3.3-2.3-5.8-2.3s-3.2.5-4.5,1.5c-1.3,1-2.2,2.4-3,4.1-.7,1.7-1.1,3.6-1.1,5.7h-19.6c0-4.9,1.2-9.5,3.6-13.6,2.4-4.1,5.7-7.4,10-9.8,4.3-2.4,9.3-3.7,14.9-3.7,8.9,0,15.6,2,20.1,6.1,4.5,4.1,6.8,9.8,6.8,17.2s-.8,7.3-2.3,10.7-3.7,6.7-6.6,10.1c-2.9,3.4-6.3,7.2-10.4,11.3l-9.1,9.1h30v15.7Z"/>
    <path class="cls-1" d="M1577.6,64.8c0,7.5-1.2,13.7-3.5,18.6-2.4,4.9-5.6,8.5-9.8,10.9-4.2,2.4-9,3.6-14.4,3.6s-10.3-1.2-14.5-3.6c-4.2-2.4-7.5-6.1-9.9-10.9-2.4-4.9-3.6-11.1-3.6-18.6v-14.8c0-7.5,1.2-13.7,3.5-18.6,2.3-4.9,5.6-8.6,9.8-11,4.2-2.4,9-3.6,14.5-3.6s10.2,1.2,14.4,3.6c4.2,2.4,7.5,6.1,9.9,11,2.4,4.9,3.6,11.1,3.6,18.6v14.8ZM1558,47.5c0-3.8-.3-6.8-1-8.9-.7-2.1-1.6-3.7-2.9-4.6-1.2-.9-2.7-1.4-4.4-1.4s-3.2.5-4.4,1.4c-1.2.9-2.2,2.4-2.9,4.6-.7,2.1-1,5.1-1,8.9v19.8c0,3.9.3,6.9,1,9.1.7,2.2,1.7,3.7,2.9,4.6,1.2.9,2.7,1.3,4.5,1.3s3.1-.4,4.3-1.3c1.2-.9,2.2-2.4,2.8-4.6.7-2.2,1-5.2,1-9.1v-19.8Z"/>
    <path class="cls-1" d="M1642.3,96.8h-55.7v-13.2l25.3-26.2c2.1-2.3,3.9-4.5,5.2-6.4,1.3-1.9,2.3-3.6,2.9-5.1.6-1.5.9-2.9.9-4.1,0-3.2-.7-5.5-2-7-1.3-1.5-3.3-2.3-5.8-2.3s-3.2.5-4.5,1.5c-1.3,1-2.2,2.4-3,4.1-.7,1.7-1.1,3.6-1.1,5.7h-19.6c0-4.9,1.2-9.5,3.6-13.6,2.4-4.1,5.7-7.4,10-9.8,4.3-2.4,9.3-3.7,14.9-3.7,8.9,0,15.6,2,20.1,6.1,4.5,4.1,6.8,9.8,6.8,17.2s-.8,7.3-2.3,10.7-3.7,6.7-6.6,10.1c-2.9,3.4-6.3,7.2-10.4,11.3l-9.1,9.1h30v15.7Z"/>
    <path class="cls-1" d="M1706.8,64.8c0,7.5-1.2,13.7-3.5,18.6-2.4,4.9-5.6,8.5-9.8,10.9-4.2,2.4-9,3.6-14.4,3.6s-10.3-1.2-14.5-3.6c-4.2-2.4-7.5-6.1-9.9-10.9-2.4-4.9-3.6-11.1-3.6-18.6v-14.8c0-7.5,1.2-13.7,3.5-18.6,2.3-4.9,5.6-8.6,9.8-11,4.2-2.4,9-3.6,14.5-3.6s10.2,1.2,14.4,3.6c4.2,2.4,7.5,6.1,9.9,11,2.4,4.9,3.6,11.1,3.6,18.6v14.8ZM1687.2,47.5c0-3.8-.3-6.8-1-8.9-.7-2.1-1.6-3.7-2.9-4.6-1.2-.9-2.7-1.4-4.4-1.4s-3.2.5-4.4,1.4c-1.2.9-2.2,2.4-2.9,4.6-.7,2.1-1,5.1-1,8.9v19.8c0,3.9.3,6.9,1,9.1.7,2.2,1.7,3.7,2.9,4.6,1.2.9,2.7,1.3,4.5,1.3s3.1-.4,4.3-1.3c1.2-.9,2.2-2.4,2.8-4.6.7-2.2,1-5.2,1-9.1v-19.8Z"/>
  </g>
</svg>